<ttFont>
        <CharString name=".notdef">
          -327 endchar
        </CharString>
        <CharString name="A">
          36 21 -21 195.5 41.5 345 57 hstem
          -11 496 vstem
          485 hmoveto
          -130 639 rlineto
          -55 hlineto
          -311 -639 rlineto
          50 hlineto
          22 55 68 140 129 1 142 -1 29 -142 6 -53 rlineto
          -44 238 rmoveto
          -123 -2 -118 2 167 344 rlineto
          4 hlineto
          endchar
        </CharString>
        <CharString name="AE">
          255 0 41 540 58 -42 42 hstemhm
          387.5 46.5 -40 46.5 hintmask 10110000
          713 38 rmoveto
          -3 6 -155 -3 rlineto
          hintmask 10101000
          -112 hlineto
          -5 245 218 40 3 36 -3 5 rlineto
          hintmask 10110000
          -219 -42 -6 272 rlineto
          98 hlineto
          154 -2 11 38 -4 6 rlineto
          -319 hlineto
          -413 -639 rlineto
          52 hlineto
          30 55 111 173 rlineto
          hintmask 10101000
          240 48 6 -223 -2 -53 rlineto
          308 hlineto
          hintmask 11010000
          -312 316 rmoveto
          -209 -41 197 306 rlineto
          5 hlineto
          endchar
        </CharString>
        <CharString name="AEacute">
          255 0 41 540 58 -42 42 hstemhm
          387.5 47 -40.5 46.5 hintmask 10110000
          457 726 rmoveto
          7 -3 61 28 59 28 64 33 rlinecurve
          2 7 -13 28 -7 2 -67 -39 -58 -31 -59 -28 rlinecurve
          267 -713 rmoveto
          -2 6 -156 -3 rlineto
          hintmask 10101000
          -112 hlineto
          -5 245 217 40 4 36 -4 5 rlineto
          hintmask 10110000
          -218 -42 -5 272 rlineto
          97 hlineto
          154 -2 11 38 -3 6 rlineto
          -319 hlineto
          -414 -639 rlineto
          53 hlineto
          29 55 112 173 rlineto
          hintmask 10101000
          239 48 6 -223 -1 -53 rlineto
          308 hlineto
          hintmask 11010000
          -313 316 rmoveto
          -209 -41 198 306 rlineto
          4 hlineto
          endchar
        </CharString>
        <CharString name="Aacute">
          36 21 -21 195.5 41.5 345 57 hstem
          -11 496 vstem
          261 726 rmoveto
          7 -3 61 28 59 28 64 33 rlinecurve
          2 7 -13 28 -7 2 -67 -39 -58 -31 -59 -28 rlinecurve
          235 -751 rmoveto
          -130 639 rlineto
          -55 hlineto
          -311 -639 rlineto
          50 hlineto
          22 55 68 140 129 1 142 -1 29 -142 6 -53 rlineto
          -44 238 rmoveto
          -123 -2 -118 2 167 344 rlineto
          4 hlineto
          endchar
        </CharString>
        <CharString name="Abreve">
          36 21 -21 195.5 41.5 345 57 88 37 hstem
          -11 496 vstem
          335 727 rmoveto
          54 42 29 52 23 hvcurveto
          -15 19 rlineto
          -8 hlineto
          -40 -18 -33 -23 -44 hhcurveto
          -45 -27 23 40 -7 hvcurveto
          -9 hlineto
          -19 -19 rlineto
          -52 10 39 -29 57 hhcurveto
          150 -727 rmoveto
          -130 639 rlineto
          -55 hlineto
          -311 -639 rlineto
          50 hlineto
          22 55 68 140 129 1 142 -1 29 -142 6 -53 rlineto
          -44 238 rmoveto
          -123 -2 -118 2 167 344 rlineto
          4 hlineto
          endchar
        </CharString>
        <CharString name="Abreveacute">
          36 21 -21 195.5 41.5 345 57 68 37 hstem
          -11 496 vstem
          324 805 rmoveto
          7 hlineto
          30 31 30 30 28 32 rrcurveto
          6 vlineto
          -23 17 rlineto
          -6 hlineto
          -28 -34 -28 -32 -29 -33 rrcurveto
          31 -115 rmoveto
          54 42 29 52 23 hvcurveto
          -15 19 rlineto
          -8 hlineto
          -40 -18 -33 -23 -44 hhcurveto
          -45 -27 23 40 -7 hvcurveto
          -9 hlineto
          -19 -19 rlineto
          -52 10 39 -29 57 hhcurveto
          149 -707 rmoveto
          -130 639 rlineto
          -55 hlineto
          -311 -639 rlineto
          50 hlineto
          22 55 68 140 129 1 142 -1 29 -142 6 -53 rlineto
          -44 238 rmoveto
          -123 -2 -118 2 167 344 rlineto
          4 hlineto
          endchar
        </CharString>
        <CharString name="Abrevedotbelow">
          36 -145 65 101 -21 195.5 41.5 345 57 88 37 hstem
          192 64 vstem
          335 727 rmoveto
          54 42 29 52 23 hvcurveto
          -15 19 rlineto
          -8 hlineto
          -40 -18 -33 -23 -44 hhcurveto
          -45 -27 23 40 -7 hvcurveto
          -9 hlineto
          -19 -19 rlineto
          -52 10 39 -29 57 hhcurveto
          150 -727 rmoveto
          -130 639 rlineto
          -55 hlineto
          -311 -639 rlineto
          50 hlineto
          22 55 68 140 129 1 142 -1 29 -142 6 -53 rlineto
          -44 238 rmoveto
          -123 -2 -118 2 167 344 rlineto
          4 hlineto
          -96 -662 rmoveto
          -21 -12 -13 -20 -19 12 -13 19 20 13 14 20 19 -12 12 -19 hvcurveto
          endchar
        </CharString>
        <CharString name="Abrevegrave">
          36 21 -21 195.5 41.5 345 57 68 37 hstem
          -11 496 vstem
          354 805 rmoveto
          19 17 -30 33 -27 32 -28 34 rlinecurve
          -7 hlineto
          -23 -17 1 -6 28 -32 30 -30 30 -31 rlinecurve
          -10 -98 rmoveto
          54 42 29 52 23 hvcurveto
          -15 19 rlineto
          -9 hlineto
          -40 -17 -33 -23 -45 hhcurveto
          -45 -27 23 40 -7 hvcurveto
          -8 hlineto
          -20 -19 rlineto
          -52 10 40 -29 57 hhcurveto
          148 -707 rmoveto
          -130 639 rlineto
          -55 hlineto
          -311 -639 rlineto
          50 hlineto
          22 55 68 140 129 1 142 -1 29 -142 6 -53 rlineto
          -44 238 rmoveto
          -123 -2 -118 2 167 344 rlineto
          4 hlineto
          endchar
        </CharString>
        <CharString name="Abrevehookabove">
          36 21 -21 195.5 41.5 345 57 68 38 187 32 hstem
          364 33 vstem
          338 932 rmoveto
          16 10 -7 -13 -16 -18 -23 -32 -22 hvcurveto
          26 -48 25 13 -17 31 rlineto
          33 26 16 22 22 vvcurveto
          26 -22 21 -31 -23 -27 -13 -22 -24 vhcurveto
          12 -20 rlineto
          15 18 21 8 17 hhcurveto
          -2 -225 rmoveto
          54 42 29 53 23 hvcurveto
          -15 18 rlineto
          -8 hlineto
          -40 -18 -33 -22 -44 hhcurveto
          -45 -27 22 40 -7 hvcurveto
          -9 hlineto
          -19 -18 rlineto
          -53 10 39 -29 57 hhcurveto
          149 -707 rmoveto
          -130 639 rlineto
          -55 hlineto
          -311 -639 rlineto
          50 hlineto
          22 55 68 140 129 1 142 -1 29 -142 6 -53 rlineto
          -44 238 rmoveto
          -123 -2 -118 2 167 344 rlineto
          4 hlineto
          endchar
        </CharString>
        <CharString name="Abrevetilde">
          36 21 -21 195.5 41.5 345 57 68 37 111 38 -2 37.5 hstemhm
          -11 509 hintmask 00000000
          hintmask 11111010
          498 919 rmoveto
          -16 17 rlineto
          -5 hlineto
          -24 -25 -14 -19 -12 hhcurveto
          hintmask 11110110
          -24 -85 32 5 -38 hvcurveto
          -7 -3 -54 -56 rlineto
          -6 vlineto
          16 -17 rlineto
          6 hlineto
          24 24 14 19 12 hhcurveto
          hintmask 11111010
          24 86 -33 -4 38 hvcurveto
          6 2 54 57 rlineto
          -65 -107 rmoveto
          -9 hlineto
          -40 -17 -32 -22 -44 hhcurveto
          -45 -27 22 40 -7 hvcurveto
          -8 hlineto
          -19 -19 rlineto
          -51 10 38 -29 57 hhcurveto
          53 41 29 51 24 hvcurveto
          -93 -148 rmoveto
          -55 hlineto
          -311 -639 rlineto
          50 hlineto
          22 55 68 140 129 1 142 -1 29 -142 6 -53 rlineto
          50 hlineto
          -94 238 rmoveto
          -123 -2 -118 2 167 344 rlineto
          4 hlineto
          endchar
        </CharString>
        <CharString name="Acaron">
          36 21 -21 195.5 41.5 345 57 hstem
          -11 496 vstem
          343 727 rmoveto
          36 29 37 28 42 26 -9 23 rcurveline
          -7 hlineto
          -37 -22 -35 -22 -35 -24 -29 24 -29 22 -32 22 rrcurveto
          -6 hlineto
          -14 -23 34 -26 33 -28 32 -29 rlinecurve
          161 -727 rmoveto
          -130 639 rlineto
          -55 hlineto
          -311 -639 rlineto
          50 hlineto
          22 55 68 140 129 1 142 -1 29 -142 6 -53 rlineto
          -44 238 rmoveto
          -123 -2 -118 2 167 344 rlineto
          4 hlineto
          endchar
        </CharString>
        <CharString name="Acircumflex">
          36 21 -21 195.5 41.5 345 57 hstem
          -11 496 vstem
          234 735 rmoveto
          7 hlineto
          37 22 35 22 35 24 29 -24 29 -22 32 -22 rrcurveto
          7 hlineto
          14 23 -34 26 -34 28 -31 29 rlinecurve
          -19 hlineto
          -36 -29 -38 -28 -42 -26 rrcurveto
          260 -758 rmoveto
          -130 639 rlineto
          -55 hlineto
          -311 -639 rlineto
          50 hlineto
          22 55 68 140 129 1 142 -1 29 -142 6 -53 rlineto
          -44 238 rmoveto
          -123 -2 -118 2 167 344 rlineto
          4 hlineto
          endchar
        </CharString>
        <CharString name="Acircumflexacute">
          36 21 -21 195.5 41.5 345 57 hstem
          -11 499 vstem
          410 812 rmoveto
          42 44 36 46 -7 9 -21 9 -43 -46 -24 -52 rlineto
          -167 -106 rmoveto
          7 hlineto
          37 22 35 22 35 24 29 -24 29 -22 32 -22 rrcurveto
          6 hlineto
          14 23 -34 26 -33 28 -31 29 rlinecurve
          -19 hlineto
          -36 -29 -38 -28 -42 -26 rrcurveto
          138 -100 rmoveto
          -55 hlineto
          -311 -639 rlineto
          50 hlineto
          22 55 68 140 129 1 142 -1 29 -142 6 -53 rlineto
          50 hlineto
          -94 238 rmoveto
          -123 -2 -118 2 167 344 rlineto
          4 hlineto
          endchar
        </CharString>
        <CharString name="Acircumflexdotbelow">
          36 -145 65 101 -21 195.5 41.5 345 57 hstem
          192 64 vstem
          234 735 rmoveto
          7 hlineto
          37 22 35 22 35 24 29 -24 29 -22 32 -22 rrcurveto
          7 hlineto
          14 23 -34 26 -34 28 -31 29 rlinecurve
          -19 hlineto
          -36 -29 -38 -28 -42 -26 rrcurveto
          260 -758 rmoveto
          -130 639 rlineto
          -55 hlineto
          -311 -639 rlineto
          50 hlineto
          22 55 68 140 129 1 142 -1 29 -142 6 -53 rlineto
          -44 238 rmoveto
          -123 -2 -118 2 167 344 rlineto
          4 hlineto
          -96 -662 rmoveto
          -21 -12 -13 -20 -19 12 -13 19 20 13 14 20 19 -12 12 -19 hvcurveto
          endchar
        </CharString>
        <CharString name="Acircumflexgrave">
          36 21 -21 195.5 41.5 345 57 hstem
          -11 496 vstem
          399 855 rmoveto
          43 -43 16 10 -24 51 -43 47 -21 -10 -7 -8 rlineto
          -134 -186 rmoveto
          7 hlineto
          37 22 35 22 35 24 29 -24 29 -22 32 -22 rrcurveto
          7 hlineto
          14 23 -34 26 -34 28 -31 29 rlinecurve
          -19 hlineto
          -36 -29 -38 -28 -41 -26 rrcurveto
          264 -739 rmoveto
          -130 639 rlineto
          -55 hlineto
          -311 -639 rlineto
          50 hlineto
          22 55 68 140 129 1 142 -1 29 -142 6 -53 rlineto
          -44 238 rmoveto
          -123 -2 -118 2 167 344 rlineto
          4 hlineto
          endchar
        </CharString>
        <CharString name="Acircumflexhookabove">
          36 21 -21 195.5 41.5 345 57 283 31 hstem
          445 32 vstem
          420 922 rmoveto
          15 10 -7 -12 -15 -17 -22 -31 -21 hvcurveto
          25 -45 24 12 -16 29 rlineto
          31 25 16 21 21 vvcurveto
          25 -21 20 -30 -22 -26 -13 -21 -23 vhcurveto
          12 -18 rlineto
          14 18 20 7 15 hhcurveto
          -193 -206 rmoveto
          7 hlineto
          37 23 35 22 35 23 29 -23 29 -22 32 -23 rrcurveto
          7 hlineto
          14 24 -34 26 -34 28 -31 28 rlinecurve
          -19 hlineto
          -36 -28 -38 -28 -41 -26 rrcurveto
          266 -740 rmoveto
          -130 639 rlineto
          -55 hlineto
          -311 -639 rlineto
          50 hlineto
          22 55 68 140 129 1 142 -1 29 -142 6 -53 rlineto
          -44 238 rmoveto
          -123 -2 -118 2 167 344 rlineto
          4 hlineto
          endchar
        </CharString>
        <CharString name="Acircumflextilde">
          36 21 -21 195.5 41.5 345 57 216 38 -2 37.5 hstemhm
          -11 520 hintmask 11110100
          509 919 rmoveto
          -15 17 rlineto
          -6 hlineto
          -24 -24 -14 -19 -12 hhcurveto
          hintmask 11101100
          -24 -86 32 5 -38 hvcurveto
          -7 -3 -53 -56 rlineto
          -6 vlineto
          16 -17 rlineto
          5 hlineto
          24 25 13 19 13 hhcurveto
          hintmask 11110100
          24 86 -33 -4 37 hvcurveto
          7 2 53 57 rlineto
          -163 -127 rmoveto
          29 -23 29 -23 32 -22 rrcurveto
          6 hlineto
          14 23 -34 26 -33 29 -31 28 rlinecurve
          -19 hlineto
          -36 -28 -38 -29 -42 -26 9 -23 rcurveline
          7 hlineto
          37 22 35 23 35 23 rrcurveto
          9 -147 rmoveto
          -55 hlineto
          -311 -639 rlineto
          50 hlineto
          22 55 68 140 129 1 142 -1 29 -142 6 -53 rlineto
          50 hlineto
          -94 238 rmoveto
          -123 -2 -118 2 167 344 rlineto
          4 hlineto
          endchar
        </CharString>
        <CharString name="Adieresis">
          36 21 -21 195.5 41.5 345 57 115 63 hstem
          234 62 93 62 vstem
          265 754 rmoveto
          19 12 12 20 18 -11 13 -19 -20 -12 -13 -19 -20 12 -11 19 hvcurveto
          155 -1 rmoveto
          18 13 13 20 18 -12 12 -18 -20 -12 -12 -20 -19 11 -12 20 hvcurveto
          65 -753 rmoveto
          -130 639 rlineto
          -55 hlineto
          -311 -639 rlineto
          50 hlineto
          22 55 68 140 129 1 142 -1 29 -142 6 -53 rlineto
          -44 238 rmoveto
          -123 -2 -118 2 167 344 rlineto
          4 hlineto
          endchar
        </CharString>
        <CharString name="Adotbelow">
          36 -145 65 101 -21 195.5 41.5 345 57 hstem
          192 64 vstem
          485 hmoveto
          -130 639 rlineto
          -55 hlineto
          -311 -639 rlineto
          50 hlineto
          22 55 68 140 129 1 142 -1 29 -142 6 -53 rlineto
          -44 238 rmoveto
          -123 -2 -118 2 167 344 rlineto
          4 hlineto
          -96 -662 rmoveto
          -21 -12 -13 -20 -19 12 -13 19 20 13 14 20 19 -12 12 -19 hvcurveto
          endchar
        </CharString>
        <CharString name="Agrave">
          36 21 -21 195.5 41.5 345 57 hstem
          -11 496 vstem
          434 727 rmoveto
          10 25 -58 29 -59 30 -67 39 rlinecurve
          -6 -2 -14 -28 3 -7 63 -33 59 -27 62 -29 rlinecurve
          58 -724 rmoveto
          -130 639 rlineto
          -55 hlineto
          -311 -639 rlineto
          50 hlineto
          22 55 68 140 129 1 142 -1 29 -142 6 -53 rlineto
          -44 238 rmoveto
          -123 -2 -118 2 167 344 rlineto
          4 hlineto
          endchar
        </CharString>
        <CharString name="Ahookabove">
          36 21 -21 195.5 41.5 345 57 208 31 hstem
          351 34 vstem
          325 847 rmoveto
          16 10 -8 -13 -16 -18 -22 -32 -23 hvcurveto
          27 -48 25 13 -18 31 rlineto
          33 26 17 22 22 vvcurveto
          26 -23 21 -30 -24 -27 -13 -22 -24 vhcurveto
          12 -20 rlineto
          16 19 21 8 16 hhcurveto
          160 -847 rmoveto
          -130 639 rlineto
          -55 hlineto
          -311 -639 rlineto
          50 hlineto
          22 55 68 140 129 1 142 -1 29 -142 6 -53 rlineto
          -44 238 rmoveto
          -123 -2 -118 2 167 344 rlineto
          4 hlineto
          endchar
        </CharString>
        <CharString name="Amacron">
          36 21 -21 195.5 41.5 345 57 129 36 hstem
          -11 500 vstem
          489 800 rmoveto
          -4 4 rlineto
          -285 hlineto
          -3 -31 4 -5 rlineto
          285 hlineto
          -131 -129 rmoveto
          -55 hlineto
          -311 -639 rlineto
          50 hlineto
          22 55 68 140 129 1 142 -1 29 -142 6 -53 rlineto
          50 hlineto
          -94 238 rmoveto
          -123 -2 -118 2 167 344 rlineto
          4 hlineto
          endchar
        </CharString>
        <CharString name="Aogonek">
          36 -196 36 181 -21 195.5 41.5 345 57 hstem
          344 37 vstem
          478 -112 rmoveto
          -3 hlineto
          -30 -22 -21 -18 -23 hhcurveto
          -14 -14 7 22 27 20 29 75 75 hvcurveto
          9 hlineto
          -130 639 rlineto
          -55 hlineto
          -311 -639 rlineto
          50 hlineto
          22 55 68 140 129 1 142 -1 29 -142 6 -53 rlineto
          -82 -86 -9 -27 -27 vvcurveto
          -39 27 -17 30 31 27 21 33 24 vhcurveto
          -92 380 rmoveto
          -123 -2 -118 2 167 344 rlineto
          4 hlineto
          endchar
        </CharString>
        <CharString name="Aring">
          36 21 -21 195.5 41.5 345 57 75 29 94 29 hstem
          266 28 97 28 vstem
          341 714 rmoveto
          41 37 28 49 40 -26 35 -50 -47 -30 -32 -44 -48 35 -28 40 hvcurveto
          1 123 rmoveto
          33 16 -21 -27 -30 -22 -16 -27 -27 -21 17 31 27 18 19 30 hvcurveto
          143 -837 rmoveto
          -130 639 rlineto
          -55 hlineto
          -311 -639 rlineto
          50 hlineto
          22 55 68 140 129 1 142 -1 29 -142 6 -53 rlineto
          -44 238 rmoveto
          -123 -2 -118 2 167 344 rlineto
          4 hlineto
          endchar
        </CharString>
        <CharString name="Aringacute">
          38 21 -21 194.5 42 493.5 29 hstem
          256 28 96 29 vstem
          260 782 rmoveto
          6 -5 66 19 63 17 68 22 rlinecurve
          3 6 -8 30 -7 3 -72 -27 -63 -21 -62 -18 rlinecurve
          232 -808 rmoveto
          -127 613 rlineto
          28 9 22 25 37 vvcurveto
          40 -27 35 -50 -47 -29 -31 -44 -32 16 -24 22 -11 vhcurveto
          -304 -617 rlineto
          50 hlineto
          21 54 69 140 128 1 142 -1 29 -142 7 -52 rlineto
          -104 730 rmoveto
          32 16 -20 -27 -31 -21 -15 -27 -27 -21 16 31 28 17 18 31 hvcurveto
          59 -493 rmoveto
          -123 -1 -118 1 168 342 rlineto
          4 hlineto
          endchar
        </CharString>
        <CharString name="Atilde">
          36 21 -21 195.5 41.5 345 57 110.5 39.5 -3 38.5 hstemhm
          -11 501 hintmask 00000000
          hintmask 11110100
          490 814 rmoveto
          -16 18 rlineto
          -6 hlineto
          -25 -27 -14 -18 -13 hhcurveto
          hintmask 11101100
          -25 -91 32 5 -40 hvcurveto
          -7 -3 -57 -57 rlineto
          -6 vlineto
          17 -18 rlineto
          6 hlineto
          25 26 14 19 13 hhcurveto
          hintmask 11110100
          26 91 -33 -5 39 hvcurveto
          8 3 56 58 rlineto
          hintmask 11101100
          -135 -170 rmoveto
          -55 hlineto
          -311 -639 rlineto
          50 hlineto
          22 55 68 140 129 1 142 -1 29 -142 6 -53 rlineto
          50 hlineto
          -94 238 rmoveto
          -123 -2 -118 2 167 344 rlineto
          4 hlineto
          endchar
        </CharString>
        <CharString name="B">
          -8 -3 41 -17 -21 308 42 248 42 hstemhm
          394 49 -45 49 hintmask 10110100
          331 334 rmoveto
          hintmask 01111000
          71 29 41 60 87 vvcurveto
          84 -55 46 -95 vhcurveto
          -141 -1 -53 -445 -28 -194 rlineto
          1 hlineto
          hintmask 10110100
          -2 34 61 -1 25 hhcurveto
          167 88 73 129 74 -41 44 -75 17 hvcurveto
          hintmask 10111000
          63 168 rmoveto
          -82 -42 -55 -76 -16 vhcurveto
          -113 2 33 247 rlineto
          90 hlineto
          71 37 -35 -61 hvcurveto
          hintmask 10110100
          -195 -464 rmoveto
          -22 -27 1 2 -25 hvcurveto
          18 156 15 111 rlineto
          123 hlineto
          76 -7 41 -39 -66 vvcurveto
          -99 -72 -59 -127 vhcurveto
          endchar
        </CharString>
        <CharString name="C">
          -1 -6 43 553 -20 31 43 hstemhm
          51 50 hintmask 10110000
          355 644 rmoveto
          -192 -112 -148 -243 -165 76 -94 139 60 59 20 38 59 hvcurveto
          10 46 -8 3 rlineto
          -41 -53 -63 -23 -58 hhcurveto
          -111 -60 79 144 214 91 127 157 59 47 -20 -36 37 hvcurveto
          8 1 rlineto
          hintmask 11110000
          17 44 rlineto
          hintmask 10110000
          34 -42 -58 20 -62 hhcurveto
          endchar
        </CharString>
        <CharString name="C.ss01">
          -64 0 27 -27 40 414 -20 21 39 -26 26 hstemhm
          50 46 hintmask 10001100
          563 468 rmoveto
          3 26 rlineto
          -628 hlineto
          -3 -26 rlineto
          249 hlineto
          -86 -42 -48 -93 -133 vvcurveto
          -82 26 -60 49 -31 vhcurveto
          -246 hlineto
          -3 -27 rlineto
          628 hlineto
          3 27 rlineto
          -172 hlineto
          hintmask 01010100
          11 5 10 6 11 6 9 41 rcurveline
          -7 3 rlineto
          -30 -40 -52 -18 -45 hhcurveto
          -88 -48 59 107 158 70 91 122 46 40 -17 -27 28 hvcurveto
          7 2 rlineto
          hintmask 10101100
          15 41 rlineto
          hintmask 10001100
          -7 5 -8 5 -8 4 rrcurveto
          endchar
        </CharString>
        <CharString name="Cacute">
          -1 -6 43 553 -20 31 43 hstemhm
          51 50 hintmask 10110000
          453 847 rmoveto
          -7 2 -67 -39 -58 -31 -59 -28 rlinecurve
          11 -25 7 -3 61 28 59 28 64 33 rlinecurve
          2 7 rlineto
          -111 -175 rmoveto
          -192 -112 -148 -243 -165 76 -94 139 60 60 20 38 58 hvcurveto
          10 46 -8 3 rlineto
          -41 -53 -62 -23 -59 hhcurveto
          -111 -60 79 144 214 91 127 158 58 47 -20 -36 38 hvcurveto
          7 1 rlineto
          hintmask 11110000
          17 44 rlineto
          hintmask 10110000
          34 -42 -57 20 -63 hhcurveto
          endchar
        </CharString>
        <CharString name="Ccaron">
          -1 -6 43 553 -20 31 43 hstemhm
          51 50 hintmask 10110000
          460 833 rmoveto
          -7 hlineto
          -37 -22 -35 -22 -35 -24 -29 24 -29 22 -32 22 rrcurveto
          -6 hlineto
          -14 -23 34 -26 33 -28 32 -29 rlinecurve
          19 hlineto
          36 29 37 28 42 26 rrcurveto
          -114 -166 rmoveto
          -192 -112 -148 -243 -165 76 -94 139 60 60 20 38 58 hvcurveto
          10 46 -8 3 rlineto
          -41 -53 -62 -23 -59 hhcurveto
          -111 -60 79 144 214 91 127 158 58 47 -20 -36 38 hvcurveto
          7 1 rlineto
          hintmask 11110000
          17 44 rlineto
          hintmask 10110000
          34 -42 -57 20 -63 hhcurveto
          endchar
        </CharString>
        <CharString name="Ccedilla">
          -1 -185 30 149 43 -42 42 553 -20 31 43 hstemhm
          51 50 209 36 hintmask 11001110
          355 644 rmoveto
          -192 -112 -148 -243 -163 74 -93 135 -3 hvcurveto
          -18 -61 46 -29 rlineto
          13 -8 9 -7 -14 vvcurveto
          -19 -14 -11 -22 -24 -14 13 18 -14 vhcurveto
          -5 -1 -7 -28 rlineto
          -16 13 21 -16 32 hhcurveto
          39 31 23 36 hvcurveto
          hintmask 10101110
          22 -11 16 -25 15 vhcurveto
          -32 20 15 48 51 5 51 20 49 32 rlinecurve
          hintmask 11001110
          10 46 -8 3 rlineto
          -41 -53 -62 -23 -59 hhcurveto
          -111 -60 79 144 214 91 127 158 58 47 -20 -36 38 hvcurveto
          7 1 rlineto
          hintmask 11011110
          17 44 rlineto
          hintmask 11001110
          34 -42 -57 20 -63 hhcurveto
          endchar
        </CharString>
        <CharString name="Ccircumflex">
          -1 -6 43 553 -20 31 43 hstemhm
          51 50 hintmask 10110000
          246 735 rmoveto
          7 hlineto
          37 22 35 22 35 24 29 -24 29 -22 32 -22 rrcurveto
          7 hlineto
          14 23 -34 26 -34 28 -31 29 rlinecurve
          -19 hlineto
          -36 -29 -38 -28 -42 -26 rrcurveto
          118 -114 rmoveto
          -192 -112 -148 -243 -165 76 -94 139 60 60 20 38 58 hvcurveto
          10 46 -8 3 rlineto
          -41 -53 -62 -23 -59 hhcurveto
          -111 -60 79 144 214 91 127 158 58 47 -20 -36 38 hvcurveto
          7 1 rlineto
          hintmask 11110000
          17 44 rlineto
          hintmask 10110000
          34 -42 -57 20 -63 hhcurveto
          endchar
        </CharString>
        <CharString name="Cdotaccent">
          -1 -6 43 553 -20 31 43 121 65 hstemhm
          51 50 221 64 hintmask 10111100
          355 830 rmoveto
          -20 -13 -13 -20 -20 12 -12 20 20 12 13 20 20 -11 12 -20 hvcurveto
          -186 vmoveto
          -192 -112 -148 -243 -165 76 -94 139 60 60 20 38 58 hvcurveto
          10 46 -8 3 rlineto
          -41 -53 -62 -23 -59 hhcurveto
          -111 -60 79 144 214 91 127 158 58 47 -20 -36 38 hvcurveto
          7 1 rlineto
          hintmask 11111100
          17 44 rlineto
          hintmask 10111100
          34 -42 -57 20 -63 hhcurveto
          endchar
        </CharString>
        <CharString name="D">
          115 -5 41 -15 -21 601 42 hstemhm
          539 50 hintmask 10110000
          152 639 rmoveto
          -53 -445 rlineto
          hintmask 01110000
          -28 -194 rlineto
          1 hlineto
          hintmask 10110000
          -2 47 114 -3 30 hhcurveto
          209 117 155 244 159 -84 90 -151 hvcurveto
          -82 -607 rmoveto
          -21 -81 3 3 -45 hvcurveto
          18 155 52 400 rlineto
          2 37 96 2 21 hhcurveto
          124 66 -75 -141 -219 -98 -130 -169 hvcurveto
          endchar
        </CharString>
        <CharString name="D.ss01">
          30 0 27 -27 38 414 42 -26 26 hstemhm
          440 46 hintmask 10011000
          657 468 rmoveto
          3 26 rlineto
          -722 hlineto
          -3 -26 rlineto
          194 hlineto
          -40 -317 -16 -124 rlineto
          -194 hlineto
          -3 -27 rlineto
          722 hlineto
          3 27 rlineto
          -253 hlineto
          89 44 49 97 132 vvcurveto
          80 -28 58 -55 30 vhcurveto
          hintmask 01101000
          37 -176 rmoveto
          -161 -76 -93 -130 -18 -66 2 3 -31 vhcurveto
          13 112 37 294 rlineto
          1 30 76 2 15 hhcurveto
          98 52 -55 -105 hvcurveto
          endchar
        </CharString>
        <CharString name="Dcaron">
          115 -5 41 -15 -21 601 42 hstemhm
          539 50 hintmask 10110000
          351 727 rmoveto
          36 29 37 28 42 26 -9 23 rcurveline
          -7 hlineto
          -37 -22 -35 -22 -35 -24 -29 24 -29 22 -32 22 rrcurveto
          -6 hlineto
          -14 -23 34 -26 33 -28 32 -29 rlinecurve
          -180 -88 rmoveto
          -1 hlineto
          -53 -445 rlineto
          hintmask 01110000
          -27 -194 rlineto
          1 hlineto
          hintmask 10110000
          -2 47 114 -3 30 hhcurveto
          209 117 155 244 159 -84 90 -151 hvcurveto
          -82 -607 rmoveto
          -21 -83 3 3 -44 hvcurveto
          18 155 52 400 rlineto
          2 38 97 2 20 hhcurveto
          125 65 -75 -141 -219 -98 -130 -169 hvcurveto
          endchar
        </CharString>
        <CharString name="Dcroat">
          115 -5 41 -15 -21 601 42 125 36 hstemhm
          539 50 hintmask 10111000
          209 768 rmoveto
          285 hlineto
          3 32 -4 4 rlineto
          -285 hlineto
          -3 -31 rlineto
          -53 -134 rmoveto
          -1 hlineto
          -53 -445 rlineto
          hintmask 01111000
          -27 -194 rlineto
          1 hlineto
          hintmask 10111000
          -2 47 114 -3 30 hhcurveto
          209 117 155 244 159 -84 90 -151 hvcurveto
          -82 -607 rmoveto
          -21 -83 3 3 -44 hvcurveto
          18 155 52 400 rlineto
          2 38 97 2 20 hhcurveto
          125 65 -75 -141 -219 -98 -130 -169 hvcurveto
          endchar
        </CharString>
        <CharString name="Delta">
          37 0 42 540 57 hstem
          -11 496 vstem
          485 hmoveto
          -131 639 rlineto
          -54 hlineto
          -311 -639 rlineto
          328 582 rmoveto
          5 hlineto
          108 -540 rlineto
          -375 hlineto
          endchar
        </CharString>
        <CharString name="E">
          -53 0 41.5 267 41 247 42.5 hstem
          71 400 vstem
          194 596 rmoveto
          127 1 140 -2 10 38 -3 6 rlineto
          -316 hlineto
          -53 -445 -28 -194 rlineto
          317 hlineto
          10 38 -3 6 -147 -3 -123 1 18 155 14 111 114 1 105 -1 10 37 -4 6 -101 -2 -118 1 rlineto
          endchar
        </CharString>
        <CharString name="Eacute">
          -53 0 41.5 267 41 247 42.5 hstem
          71 400 vstem
          248 726 rmoveto
          7 -3 61 28 59 28 64 33 rlinecurve
          2 7 -13 28 -7 2 -67 -39 -58 -31 -59 -28 rlinecurve
          -43 -155 rmoveto
          127 1 141 -2 9 38 -2 6 rlineto
          -318 hlineto
          -53 -445 -27 -194 rlineto
          317 hlineto
          10 38 -3 6 -147 -3 -124 1 19 155 14 111 113 1 106 -1 10 37 -4 6 -101 -2 -118 1 rlineto
          endchar
        </CharString>
        <CharString name="Ebreve">
          -53 0 41.5 267 41 247 42.5 88 37 hstem
          71 400 vstem
          321 727 rmoveto
          54 42 29 52 23 hvcurveto
          -15 19 rlineto
          -8 hlineto
          -40 -18 -33 -23 -44 hhcurveto
          -45 -27 23 40 -7 hvcurveto
          -9 hlineto
          -19 -19 rlineto
          -52 10 39 -29 57 hhcurveto
          -127 -131 rmoveto
          127 1 141 -2 9 38 -2 6 rlineto
          -318 hlineto
          -53 -445 -27 -194 rlineto
          317 hlineto
          10 38 -3 6 -147 -3 -124 1 19 155 14 111 113 1 106 -1 10 37 -4 6 -101 -2 -118 1 rlineto
          endchar
        </CharString>
        <CharString name="Ecaron">
          -53 0 41.5 267 41 247 42.5 hstem
          71 400 vstem
          329 727 rmoveto
          36 29 37 28 42 26 -9 23 rcurveline
          -7 hlineto
          -37 -22 -35 -22 -35 -24 -29 24 -29 22 -32 22 rrcurveto
          -6 hlineto
          -14 -23 34 -26 33 -28 32 -29 rlinecurve
          -116 -131 rmoveto
          127 1 141 -2 9 38 -2 6 rlineto
          -318 hlineto
          -53 -445 -27 -194 rlineto
          317 hlineto
          10 38 -3 6 -147 -3 -124 1 19 155 14 111 113 1 106 -1 10 37 -4 6 -101 -2 -118 1 rlineto
          endchar
        </CharString>
        <CharString name="Ecircumflex">
          -53 0 41.5 267 41 247 42.5 hstem
          71 400 vstem
          221 735 rmoveto
          7 hlineto
          37 22 35 22 35 24 29 -24 29 -22 32 -22 rrcurveto
          7 hlineto
          14 23 -34 26 -34 28 -31 29 rlinecurve
          -19 hlineto
          -36 -29 -38 -28 -42 -26 rrcurveto
          -18 -162 rmoveto
          127 1 141 -2 9 38 -2 6 rlineto
          -318 hlineto
          -53 -445 -27 -194 rlineto
          317 hlineto
          10 38 -3 6 -147 -3 -124 1 19 155 14 111 113 1 106 -1 10 37 -4 6 -101 -2 -118 1 rlineto
          endchar
        </CharString>
        <CharString name="Ecircumflexacute">
          -53 0 41.5 267 41 247 42.5 hstem
          71 403 vstem
          396 812 rmoveto
          42 44 36 46 -7 9 -21 9 -43 -46 -24 -52 rlineto
          -167 -106 rmoveto
          7 hlineto
          37 22 35 22 35 24 29 -24 29 -22 32 -22 rrcurveto
          6 hlineto
          14 23 -34 26 -33 28 -31 29 rlinecurve
          -19 hlineto
          -36 -29 -38 -28 -42 -26 rrcurveto
          266 -100 rmoveto
          -318 hlineto
          -53 -445 -27 -194 rlineto
          317 hlineto
          10 38 -3 6 -147 -3 -124 1 19 155 14 111 113 1 106 -1 10 37 -4 6 -101 -2 -118 1 31 246 127 1 141 -2 9 38 rlineto
          endchar
        </CharString>
        <CharString name="Ecircumflexdotbelow">
          -53 -145 65 80 41.5 267 41 247 42.5 hstem
          214 64 vstem
          221 735 rmoveto
          7 hlineto
          37 22 35 22 35 24 29 -24 29 -22 32 -22 rrcurveto
          7 hlineto
          14 23 -34 26 -34 28 -31 29 rlinecurve
          -19 hlineto
          -36 -29 -38 -28 -42 -26 rrcurveto
          -18 -162 rmoveto
          127 1 141 -2 9 38 -2 6 rlineto
          -318 hlineto
          -53 -445 -27 -194 rlineto
          317 hlineto
          10 38 -3 6 -147 -3 -124 1 19 155 14 111 113 1 106 -1 10 37 -4 6 -101 -2 -118 1 rlineto
          84 -430 rmoveto
          -21 -12 -13 -20 -19 12 -13 19 20 13 14 20 19 -12 12 -19 hvcurveto
          endchar
        </CharString>
        <CharString name="Ecircumflexgrave">
          -53 0 41.5 267 41 247 42.5 hstem
          71 400 vstem
          385 855 rmoveto
          43 -43 16 10 -24 51 -43 47 -21 -10 -7 -8 rlineto
          -134 -186 rmoveto
          7 hlineto
          37 22 35 22 35 24 29 -24 29 -22 32 -22 rrcurveto
          7 hlineto
          14 23 -34 26 -34 28 -31 29 rlinecurve
          -19 hlineto
          -36 -29 -38 -28 -41 -26 rrcurveto
          -13 -143 rmoveto
          127 1 141 -2 9 38 -2 6 rlineto
          -318 hlineto
          -53 -445 -27 -194 rlineto
          317 hlineto
          10 38 -3 6 -147 -3 -124 1 19 155 14 111 113 1 106 -1 10 37 -4 6 -101 -2 -118 1 rlineto
          endchar
        </CharString>
        <CharString name="Ecircumflexhookabove">
          -53 0 41.5 267 41 247 42.5 283 31 hstem
          431 32 vstem
          406 922 rmoveto
          15 10 -7 -12 -15 -17 -22 -31 -21 hvcurveto
          25 -45 24 12 -16 29 rlineto
          31 25 16 21 21 vvcurveto
          25 -21 20 -30 -22 -26 -13 -21 -23 vhcurveto
          12 -18 rlineto
          14 18 20 7 15 hhcurveto
          -193 -206 rmoveto
          7 hlineto
          37 23 35 22 35 23 29 -23 29 -22 32 -23 rrcurveto
          7 hlineto
          14 24 -34 26 -34 28 -31 28 rlinecurve
          -19 hlineto
          -36 -28 -38 -28 -41 -26 rrcurveto
          -11 -144 rmoveto
          127 1 141 -2 9 38 -2 6 rlineto
          -318 hlineto
          -53 -445 -27 -194 rlineto
          317 hlineto
          10 38 -3 6 -147 -3 -124 1 19 155 14 111 113 1 106 -1 10 37 -4 6 -101 -2 -118 1 rlineto
          endchar
        </CharString>
        <CharString name="Ecircumflextilde">
          -53 0 41.5 267 41 247 42.5 hstem
          71 400 vstem
          385 855 rmoveto
          43 -43 16 10 -24 51 -43 47 -21 -10 -7 -8 rlineto
          -134 -186 rmoveto
          7 hlineto
          37 22 35 22 35 24 29 -24 29 -22 32 -22 rrcurveto
          7 hlineto
          14 23 -34 26 -34 28 -31 29 rlinecurve
          -19 hlineto
          -36 -29 -38 -28 -41 -26 rrcurveto
          -13 -143 rmoveto
          127 1 141 -2 9 38 -2 6 rlineto
          -318 hlineto
          -53 -445 -27 -194 rlineto
          317 hlineto
          10 38 -3 6 -147 -3 -124 1 19 155 14 111 113 1 106 -1 10 37 -4 6 -101 -2 -118 1 rlineto
          endchar
        </CharString>
        <CharString name="Edieresis">
          -53 0 41.5 267 41 247 42.5 115 63 hstem
          220 62 93 62 vstem
          251 754 rmoveto
          19 12 12 20 18 -11 13 -19 -20 -12 -13 -19 -20 12 -11 19 hvcurveto
          155 -1 rmoveto
          18 13 13 20 18 -12 12 -18 -20 -12 -12 -20 -19 11 -12 20 hvcurveto
          -212 -157 rmoveto
          127 1 141 -2 9 38 -2 6 rlineto
          -318 hlineto
          -53 -445 -27 -194 rlineto
          317 hlineto
          10 38 -3 6 -147 -3 -124 1 19 155 14 111 113 1 106 -1 10 37 -4 6 -101 -2 -118 1 rlineto
          endchar
        </CharString>
        <CharString name="Edotaccent">
          -53 0 41.5 267 41 247 42.5 126 65 hstem
          297 64 vstem
          329 765 rmoveto
          20 12 13 20 20 -11 12 -20 -20 -13 -13 -20 -20 12 -12 20 hvcurveto
          -135 -169 rmoveto
          127 1 141 -2 9 38 -2 6 rlineto
          -318 hlineto
          -53 -445 -27 -194 rlineto
          317 hlineto
          10 38 -3 6 -147 -3 -124 1 19 155 14 111 113 1 106 -1 10 37 -4 6 -101 -2 -118 1 rlineto
          endchar
        </CharString>
        <CharString name="Edotbelow">
          -53 -145 65 80 41.5 267 41 247 42.5 hstem
          214 64 vstem
          194 596 rmoveto
          127 1 141 -2 9 38 -2 6 rlineto
          -318 hlineto
          -53 -445 -27 -194 rlineto
          317 hlineto
          10 38 -3 6 -147 -3 -124 1 19 155 14 111 113 1 106 -1 10 37 -4 6 -101 -2 -118 1 rlineto
          84 -430 rmoveto
          -21 -12 -13 -20 -19 12 -13 19 20 13 14 20 19 -12 12 -19 hvcurveto
          endchar
        </CharString>
        <CharString name="Egrave">
          -53 0 41.5 267 41 247 42.5 hstem
          71 400 vstem
          420 727 rmoveto
          10 25 -58 29 -59 30 -67 39 rlinecurve
          -6 -2 -14 -28 3 -7 63 -33 59 -27 62 -29 rlinecurve
          -219 -128 rmoveto
          127 1 141 -2 9 38 -2 6 rlineto
          -318 hlineto
          -53 -445 -27 -194 rlineto
          317 hlineto
          10 38 -3 6 -147 -3 -124 1 19 155 14 111 113 1 106 -1 10 37 -4 6 -101 -2 -118 1 rlineto
          endchar
        </CharString>
        <CharString name="Ehookabove">
          -53 0 41.5 267 41 247 42.5 208 31 hstem
          337 34 vstem
          311 847 rmoveto
          16 10 -8 -13 -16 -18 -22 -32 -23 hvcurveto
          27 -48 25 13 -18 31 rlineto
          33 26 17 22 22 vvcurveto
          26 -23 21 -30 -24 -27 -13 -22 -24 vhcurveto
          12 -20 rlineto
          16 19 21 8 16 hhcurveto
          -117 -251 rmoveto
          127 1 141 -2 9 38 -2 6 rlineto
          -318 hlineto
          -53 -445 -27 -194 rlineto
          317 hlineto
          10 38 -3 6 -147 -3 -124 1 19 155 14 111 113 1 106 -1 10 37 -4 6 -101 -2 -118 1 rlineto
          endchar
        </CharString>
        <CharString name="Emacron">
          -53 0 41.5 267 41 247 42.5 129 36 hstem
          71 404 vstem
          475 800 rmoveto
          -4 4 rlineto
          -285 hlineto
          -3 -31 4 -5 rlineto
          285 hlineto
          -3 -129 rmoveto
          -318 hlineto
          -53 -445 -27 -194 rlineto
          317 hlineto
          10 38 -3 6 -147 -3 -124 1 19 155 14 111 113 1 106 -1 10 37 -4 6 -101 -2 -118 1 31 246 127 1 141 -2 9 38 rlineto
          endchar
        </CharString>
        <CharString name="Eng">
          155 21 -21 556 83 0 -20 21 -20 hstemhm
          71 532 hintmask 10011000
          543 182 rmoveto
          60 458 -47 -4 -68 -553 rlineto
          -5 hlineto
          hintmask 10101000
          -282 556 rlineto
          -50 hlineto
          -54 -449 -26 -190 rlineto
          47 hlineto
          23 205 rlineto
          hintmask 11001000
          43 351 rlineto
          5 hlineto
          282 -553 -18 -47 -39 -33 -71 -40 rlinecurve
          -1 -8 17 -27 113 58 44 53 11 88 rlinecurve
          endchar
        </CharString>
        <CharString name="Eogonek">
          -53 -197 36 161 41.5 267 41 247 42.5 hstem
          225 35 vstem
          194 596 rmoveto
          127 1 141 -2 9 38 -2 6 rlineto
          -318 hlineto
          -53 -445 -27 -194 rlineto
          217 hlineto
          -40 -59 rlineto
          -15 -22 -8 -22 -23 vvcurveto
          -42 28 -29 44 35 31 20 35 29 vhcurveto
          -11 27 rlineto
          -3 hlineto
          -29 -23 -27 -17 -25 hhcurveto
          -28 -15 18 25 15 6 16 13 21 hvcurveto
          44 66 rlineto
          65 hlineto
          10 38 -3 6 -147 -3 -124 1 19 155 14 111 113 1 106 -1 10 37 -4 6 -101 -2 -118 1 rlineto
          endchar
        </CharString>
        <CharString name="Eth">
          137 -5 41 -15 -21 308 37 256 42 hstemhm
          560 51 hintmask 10111000
          174 639 rmoveto
          -36 -294 rlineto
          -103 hlineto
          -4 -32 2 -5 rlineto
          101 hlineto
          -14 -114 rlineto
          hintmask 01111000
          -27 -194 rlineto
          1 hlineto
          hintmask 10111000
          -2 47 114 -3 30 hhcurveto
          209 117 155 244 159 -84 90 -151 hvcurveto
          -82 -607 rmoveto
          -21 -82 3 3 -45 hvcurveto
          18 155 15 111 rlineto
          171 hlineto
          4 33 -2 4 rlineto
          -169 hlineto
          33 252 rlineto
          2 39 95 2 21 hhcurveto
          124 65 -75 -141 -219 -98 -130 -168 hvcurveto
          endchar
        </CharString>
        <CharString name="Etilde">
          -53 0 41.5 267 41 247 42.5 110.5 39.5 -3 38.5 hstemhm
          71 405 hintmask 11110100
          476 814 rmoveto
          -16 18 rlineto
          -6 hlineto
          -25 -27 -14 -18 -13 hhcurveto
          hintmask 11101100
          -25 -91 32 5 -40 hvcurveto
          -7 -3 -57 -57 rlineto
          -6 vlineto
          17 -18 rlineto
          6 hlineto
          25 26 14 19 13 hhcurveto
          hintmask 11110100
          26 91 -33 -5 39 hvcurveto
          8 3 56 58 rlineto
          -7 -170 rmoveto
          -318 hlineto
          -53 -445 -27 -194 rlineto
          317 hlineto
          10 38 -3 6 -147 -3 -124 1 19 155 14 111 113 1 106 -1 10 37 -4 6 -101 -2 -118 1 31 246 127 1 141 -2 9 38 rlineto
          endchar
        </CharString>
        <CharString name="Euro">
          0 -5 37 131 32 86 33 143 -20 24 36 hstemhm
          96 43 hintmask 11101100
          351 497 rmoveto
          -120 -82 -65 -118 -36 hvcurveto
          -78 hlineto
          -6 -29 2 -4 rlineto
          74 hlineto
          -5 -28 -3 -29 -1 -29 rrcurveto
          -75 hlineto
          -7 -28 3 -4 rlineto
          79 hlineto
          -108 7 63 -60 112 hhcurveto
          48 53 16 29 47 hvcurveto
          8 34 -7 3 rlineto
          -29 -43 -53 -16 -47 hhcurveto
          -85 -49 46 85 -9 hvcurveto
          200 hlineto
          6 28 -2 4 rlineto
          -206 hlineto
          29 3 29 6 28 vhcurveto
          208 hlineto
          6 29 -3 4 rlineto
          -202 hlineto
          96 29 65 51 95 hhcurveto
          44 43 -14 -25 31 hvcurveto
          7 1 rlineto
          hintmask 11110100
          13 34 rlineto
          hintmask 11101100
          26 -36 -48 14 -49 hhcurveto
          endchar
        </CharString>
        <CharString name="F">
          -95 21 -21 297.5 41 258 42.5 hstem
          71 387 vstem
          194 596 rmoveto
          118 1 135 -3 11 39 -4 6 rlineto
          -302 hlineto
          -53 -445 -28 -194 rlineto
          49 hlineto
          23 197 13 100 105 1 102 -2 10 38 -3 5 -98 -1 -111 1 rlineto
          endchar
        </CharString>
        <CharString name="G">
          75 -5 42 556 -20 28 43 hstemhm
          50 49 352.5 45.5 hintmask 10111000
          380 644 rmoveto
          -209 -121 -145 -250 -161 78 -93 150 69 49 10 25 80 hvcurveto
          16 134 10 83 -46 -4 -9 -84 -14 -95 rlineto
          -21 -69 -36 -6 -48 hhcurveto
          -120 -61 74 142 223 98 125 175 54 48 -17 -36 53 hvcurveto
          7 hlineto
          hintmask 11111000
          17 45 rlineto
          hintmask 10111000
          34 -54 -59 17 -58 hhcurveto
          endchar
        </CharString>
        <CharString name="Gbreve">
          75 -5 42 556 -20 28 43 83 37 hstemhm
          50 49 353 45 hintmask 10111100
          462 827 rmoveto
          -8 hlineto
          -40 -18 -33 -23 -44 hhcurveto
          -45 -27 23 40 -7 hvcurveto
          -9 hlineto
          -19 -19 rlineto
          -52 10 39 -29 57 hhcurveto
          54 42 29 52 23 hvcurveto
          -97 -164 rmoveto
          -209 -121 -145 -250 -161 78 -93 150 69 49 10 25 80 hvcurveto
          16 134 10 83 -45 -4 -10 -84 -14 -95 rlineto
          -21 -69 -36 -6 -48 hhcurveto
          -120 -61 74 142 223 98 125 175 54 48 -17 -36 53 hvcurveto
          8 hlineto
          hintmask 11111100
          17 45 rlineto
          hintmask 10111100
          34 -55 -59 17 -58 hhcurveto
          endchar
        </CharString>
        <CharString name="Gcircumflex">
          75 -5 42 556 -20 28 43 hstemhm
          50 49 353 45 hintmask 10111000
          257 735 rmoveto
          7 hlineto
          37 22 35 22 35 24 29 -24 29 -22 32 -22 rrcurveto
          7 hlineto
          14 23 -34 26 -34 28 -31 29 rlinecurve
          -19 hlineto
          -36 -29 -38 -28 -42 -26 rrcurveto
          132 -114 rmoveto
          -209 -121 -145 -250 -161 78 -93 150 69 49 10 25 80 hvcurveto
          16 134 10 83 -45 -4 -10 -84 -14 -95 rlineto
          -21 -69 -36 -6 -48 hhcurveto
          -120 -61 74 142 223 98 125 175 54 48 -17 -36 53 hvcurveto
          8 hlineto
          hintmask 11111000
          17 45 rlineto
          hintmask 10111000
          34 -55 -59 17 -58 hhcurveto
          endchar
        </CharString>
        <CharString name="Gcommaaccent">
          75 -5 42 556 -20 28 43 hstemhm
          50 49 204 40 109 45 hintmask 10111100
          380 644 rmoveto
          -209 -121 -145 -250 -161 78 -93 150 69 49 10 25 80 hvcurveto
          16 134 10 83 -45 -4 -10 -84 -14 -95 rlineto
          -21 -69 -36 -6 -48 hhcurveto
          -120 -61 74 142 223 98 125 175 54 48 -17 -36 53 hvcurveto
          8 hlineto
          hintmask 11111100
          17 45 rlineto
          hintmask 10111100
          34 -55 -59 17 -58 hhcurveto
          -75 -707 rmoveto
          -12 -5 -10 -6 -9 -7 rrcurveto
          -5 vlineto
          18 -11 11 -13 -15 vvcurveto
          -26 -18 -28 -34 -26 vhcurveto
          -1 -5 17 -16 rlineto
          51 37 25 37 34 vvcurveto
          22 -14 19 -24 14 vhcurveto
          endchar
        </CharString>
        <CharString name="Gdieresis">
          75 -5 42 556 -20 28 43 110 63 hstemhm
          50 49 158 62 93 62 -22 45 hintmask 10111101
          289 817 rmoveto
          -20 -12 -13 -19 -20 12 -11 19 19 12 12 20 18 -11 13 -19 hvcurveto
          hintmask 10111110
          155 -1 rmoveto
          -20 -12 -12 -20 -19 11 -12 20 18 13 13 20 18 -12 12 -18 hvcurveto
          -64 -172 rmoveto
          -209 -121 -145 -250 -161 78 -93 150 hvcurveto
          hintmask 10111101
          69 49 10 25 80 hvcurveto
          16 134 10 83 -45 -4 -10 -84 -14 -95 rlineto
          -21 -69 -36 -6 -48 hhcurveto
          -120 -61 74 142 223 98 125 175 54 48 -17 -36 53 hvcurveto
          8 hlineto
          hintmask 11111101
          17 45 rlineto
          hintmask 10111110
          34 -55 -59 17 -58 hhcurveto
          endchar
        </CharString>
        <CharString name="Gdotaccent">
          75 -5 42 556 -20 28 43 121 65 hstemhm
          50 49 235 64 54 45 hintmask 10111110
          367 830 rmoveto
          -20 -13 -13 -20 -20 12 -12 20 20 12 13 20 20 -11 12 -20 hvcurveto
          13 -186 rmoveto
          -209 -121 -145 -250 -161 78 -93 150 69 49 10 25 80 hvcurveto
          16 134 10 83 -45 -4 -10 -84 -14 -95 rlineto
          -21 -69 -36 -6 -48 hhcurveto
          -120 -61 74 142 223 98 125 175 54 48 -17 -36 53 hvcurveto
          8 hlineto
          hintmask 11111110
          17 45 rlineto
          hintmask 10111110
          34 -55 -59 17 -58 hhcurveto
          endchar
        </CharString>
        <CharString name="Germandbls">
          83 -5 41 -15 -21 585 -20 36 42 hstemhm
          493 48 hintmask 10011000
          352 643 rmoveto
          -133 -96 -86 -128 -15 hvcurveto
          -29 -239 rlineto
          hintmask 01011000
          -26 -190 rlineto
          48 hlineto
          23 198 30 231 rlineto
          105 13 73 67 105 hhcurveto
          48 46 -12 -28 49 hvcurveto
          -197 -222 1 -17 rlineto
          134 -24 67 -43 -79 vvcurveto
          hintmask 10111000
          -78 -62 -62 -82 -44 -54 19 37 -37 vhcurveto
          -8 -3 -12 -49 rlineto
          -30 41 59 -15 48 hhcurveto
          108 91 77 113 91 -65 49 -121 28 hvcurveto
          195 219 -2 13 rlineto
          hintmask 10011000
          37 -66 -63 21 -67 hhcurveto
          endchar
        </CharString>
        <CharString name="Gtilde">
          75 -5 42 556 -20 28 43 105.5 39.5 -3 38.5 hstemhm
          50 49 353 45 hintmask 10110110
          513 814 rmoveto
          -16 18 rlineto
          -6 hlineto
          -25 -27 -14 -18 -13 hhcurveto
          hintmask 10101110
          -25 -91 32 5 -40 hvcurveto
          -7 -3 -57 -57 rlineto
          -6 vlineto
          17 -18 rlineto
          6 hlineto
          25 26 14 19 13 hhcurveto
          hintmask 10110110
          26 91 -33 -5 39 hvcurveto
          8 3 56 58 rlineto
          -133 -165 rmoveto
          -209 -121 -145 -250 -161 78 -93 150 69 49 10 25 80 hvcurveto
          16 134 10 83 -45 -4 -10 -84 -14 -95 rlineto
          -21 -69 -36 -6 -48 hhcurveto
          -120 -61 74 142 223 98 125 175 54 48 -17 -36 53 hvcurveto
          8 hlineto
          hintmask 11110110
          17 45 rlineto
          hintmask 10110110
          34 -55 -59 17 -58 hhcurveto
          endchar
        </CharString>
        <CharString name="H">
          147 21 -21 303 42 294 -20 hstem
          71 529 vstem
          600 639 rmoveto
          -49 hlineto
          -35 -293 -179 -2 -175 2 38 293 rlineto
          -49 hlineto
          -53 -445 -27 -194 rlineto
          49 hlineto
          23 197 14 105 169 2 185 -2 -13 -108 -26 -194 rlineto
          48 hlineto
          23 197 rlineto
          endchar
        </CharString>
        <CharString name="Hbar">
          171 21 -21 303 42 136 37 -37 158 hstemhm
          80 579 hintmask 11101000
          656 481 rmoveto
          3 33 -4 4 rlineto
          -61 hlineto
          hintmask 11011000
          16 121 rlineto
          -48 hlineto
          hintmask 11101000
          -14 -121 rlineto
          -354 hlineto
          hintmask 11011000
          16 121 rlineto
          -48 hlineto
          hintmask 11101000
          -15 -121 rlineto
          -64 hlineto
          -3 -33 3 -4 rlineto
          60 hlineto
          -35 -287 -26 -194 rlineto
          48 hlineto
          23 197 14 105 170 2 185 -2 -13 -108 -27 -194 rlineto
          48 hlineto
          23 197 37 284 rlineto
          -47 hmoveto
          -16 -135 -180 -2 -175 2 18 135 rlineto
          endchar
        </CharString>
        <CharString name="Hcircumflex">
          147 21 -21 303 42 294 -20 hstem
          71 529 vstem
          285 735 rmoveto
          7 hlineto
          37 22 35 22 35 24 29 -24 29 -22 32 -22 rrcurveto
          7 hlineto
          14 23 -34 26 -34 28 -31 29 rlinecurve
          -19 hlineto
          -36 -29 -38 -28 -42 -26 rrcurveto
          324 -119 rmoveto
          -48 hlineto
          -35 -293 -179 -2 -177 2 38 293 rlineto
          -48 hlineto
          -53 -445 -27 -194 rlineto
          48 hlineto
          23 197 14 105 171 2 185 -2 -13 -108 -27 -194 rlineto
          48 hlineto
          23 197 rlineto
          endchar
        </CharString>
        <CharString name="I">
          -253 21 -21 639 -20 hstem
          71 129 vstem
          143 197 rmoveto
          57 442 rlineto
          -49 hlineto
          -53 -445 -27 -194 rlineto
          49 hlineto
          endchar
        </CharString>
        <CharString name="I.ss01">
          -268 0 27 441 26 hstem
          -124 486 vstem
          128 154 rmoveto
          41 314 rlineto
          190 hlineto
          3 26 rlineto
          -424 hlineto
          -3 -26 rlineto
          188 hlineto
          -38 -317 -17 -124 rlineto
          -189 hlineto
          -3 -27 rlineto
          424 hlineto
          3 27 rlineto
          -190 hlineto
          endchar
        </CharString>
        <CharString name="IJ">
          26 -79 -21 121 -21 597.5 41.5 hstem
          368.5 44 vstem
          151 639 rmoveto
          -53 -445 -27 -194 rlineto
          48 hlineto
          23 197 57 442 rlineto
          275 hmoveto
          -173 hlineto
          -8 -36 6 -6 121 1 -46 -392 -11 -89 -10 -80 -42 -50 -93 -52 rlinecurve
          -8 vlineto
          17 -27 113 61 47 58 12 97 rlinecurve
          11 96 rlineto
          endchar
        </CharString>
        <CharString name="Iacute">
          -253 21 -21 639 -20 hstem
          71 233 vstem
          291 847 rmoveto
          -7 2 -67 -39 -58 -31 -59 -28 rlinecurve
          11 -25 7 -3 61 28 59 28 64 33 rlinecurve
          2 7 rlineto
          -162 -622 rmoveto
          57 442 rlineto
          -48 hlineto
          -53 -445 -27 -194 rlineto
          48 hlineto
          endchar
        </CharString>
        <CharString name="Iacute_J.loclNLD">
          26 -79 -21 121 -21 597.5 41.5 hstem
          368.5 44 vstem
          111 726 rmoveto
          7 -3 61 28 59 28 64 33 rlinecurve
          2 7 -13 28 -7 2 -67 -39 -58 -31 -59 -28 rlinecurve
          428 68 rmoveto
          -13 28 -7 2 -67 -39 -58 -31 -59 -28 rlinecurve
          11 -25 7 -3 61 28 59 28 64 33 rlinecurve
          -375 -173 rmoveto
          -53 -445 -27 -194 rlineto
          48 hlineto
          23 197 57 442 rlineto
          275 hmoveto
          -173 hlineto
          -8 -36 6 -6 121 1 -46 -392 -11 -89 -10 -80 -42 -50 -93 -52 rlinecurve
          -8 vlineto
          17 -27 113 61 47 58 12 97 rlinecurve
          11 96 rlineto
          endchar
        </CharString>
        <CharString name="Ibreve">
          -253 21 -21 639 -20 108 37 hstem
          71 233 vstem
          289 827 rmoveto
          -8 hlineto
          -40 -18 -33 -23 -44 hhcurveto
          -45 -27 23 40 -7 hvcurveto
          -9 hlineto
          -19 -19 rlineto
          -52 10 39 -29 57 hhcurveto
          54 42 29 52 23 hvcurveto
          -162 -611 rmoveto
          57 442 rlineto
          -48 hlineto
          -53 -445 -27 -194 rlineto
          48 hlineto
          endchar
        </CharString>
        <CharString name="Icaron">
          -253 21 -21 639 -20 hstem
          71 237 vstem
          299 833 rmoveto
          -7 hlineto
          -37 -22 -35 -22 -35 -24 -29 24 -29 22 -32 22 rrcurveto
          -6 hlineto
          -14 -23 34 -26 33 -28 32 -29 rlinecurve
          19 hlineto
          36 29 37 28 42 26 rrcurveto
          -166 -613 rmoveto
          57 442 rlineto
          -48 hlineto
          -53 -445 -27 -194 rlineto
          48 hlineto
          endchar
        </CharString>
        <CharString name="Icircumflex">
          -253 21 -21 639 -20 hstem
          71 239 vstem
          85 735 rmoveto
          7 hlineto
          37 22 35 22 35 24 29 -24 29 -22 32 -22 rrcurveto
          7 hlineto
          14 23 -34 26 -34 28 -31 29 rlinecurve
          -19 hlineto
          -36 -29 -38 -28 -42 -26 rrcurveto
          66 -561 rmoveto
          57 442 rlineto
          -48 hlineto
          -53 -445 -27 -194 rlineto
          48 hlineto
          endchar
        </CharString>
        <CharString name="Idieresis">
          -253 21 -21 639 -20 134 63 hstem
          105 62 51 62 vstem
          137 816 rmoveto
          -20 -12 -12 -20 -19 11 -12 19 19 13 13 20 18 -12 12 -18 hvcurveto
          113 hmoveto
          -19 -13 -12 -20 -19 12 -12 19 19 12 13 20 18 -11 12 -19 hvcurveto
          -108 -619 rmoveto
          57 442 rlineto
          -48 hlineto
          -53 -445 -27 -194 rlineto
          48 hlineto
          endchar
        </CharString>
        <CharString name="Idotaccent">
          -253 21 -21 639 -20 146 65 hstem
          161 64 vstem
          194 830 rmoveto
          -20 -13 -13 -20 -20 12 -12 20 20 12 13 20 20 -11 12 -20 hvcurveto
          -52 -633 rmoveto
          57 442 rlineto
          -48 hlineto
          -53 -445 -27 -194 rlineto
          48 hlineto
          endchar
        </CharString>
        <CharString name="Idotbelow">
          -253 -145 65 101 -21 639 -20 hstem
          57 64 vstem
          142 197 rmoveto
          57 442 rlineto
          -48 hlineto
          -53 -445 -27 -194 rlineto
          48 hlineto
          -29 -80 rmoveto
          -21 -12 -13 -20 -19 12 -13 19 20 13 14 20 19 -12 12 -19 hvcurveto
          endchar
        </CharString>
        <CharString name="Igrave">
          -253 21 -21 639 -20 hstem
          71 223 vstem
          104 848 rmoveto
          -14 -28 3 -7 63 -33 59 -27 62 -29 rlinecurve
          7 3 10 25 -58 29 -59 30 -67 39 rlinecurve
          32 -653 rmoveto
          57 442 rlineto
          -48 hlineto
          -53 -445 -27 -194 rlineto
          48 hlineto
          endchar
        </CharString>
        <CharString name="Ihookabove">
          -253 21 -21 639 -20 228 31 hstem
          201 34 vstem
          182 878 rmoveto
          -24 -27 -13 -22 -24 hvcurveto
          12 -20 rlineto
          16 19 21 8 16 hhcurveto
          16 10 -8 -13 -16 -18 -22 -32 -23 hvcurveto
          27 -48 25 13 -18 31 rlineto
          33 26 17 22 22 vvcurveto
          26 -23 21 -30 vhcurveto
          -40 -681 rmoveto
          57 442 rlineto
          -48 hlineto
          -53 -445 -27 -194 rlineto
          48 hlineto
          endchar
        </CharString>
        <CharString name="Imacron">
          -253 21 -21 639 -20 149 36 hstem
          71 230 vstem
          301 800 rmoveto
          -4 4 rlineto
          -211 hlineto
          -4 -31 5 -5 rlineto
          211 hlineto
          -156 -571 rmoveto
          57 442 rlineto
          -48 hlineto
          -53 -445 -27 -194 rlineto
          48 hlineto
          endchar
        </CharString>
        <CharString name="Iogonek">
          -253 -197 36 182 -21 639 -20 hstem
          -16 35 vstem
          199 639 rmoveto
          -48 hlineto
          -53 -445 -27 -191 rlineto
          -64 -79 -23 -33 -32 vvcurveto
          -32 21 -24 34 28 25 17 31 22 vhcurveto
          -12 27 rlineto
          -3 hlineto
          -27 -16 -19 -12 -18 hhcurveto
          -17 -10 11 16 23 24 34 63 77 hvcurveto
          13 hlineto
          23 197 rlineto
          endchar
        </CharString>
        <CharString name="Itilde">
          -253 21 -21 639 -20 128 40 hstem
          61 262 vstem
          323 811 rmoveto
          -16 18 rlineto
          -5 hlineto
          -24 -23 -13 -18 -12 hhcurveto
          -22 -78 32 5 -35 hvcurveto
          -8 -3 -50 -57 rlineto
          -6 vlineto
          16 -18 rlineto
          5 hlineto
          25 23 13 18 12 hhcurveto
          22 78 -33 -4 35 hvcurveto
          7 2 51 58 rlineto
          -181 -609 rmoveto
          57 442 rlineto
          -48 hlineto
          -53 -445 -27 -194 rlineto
          48 hlineto
          endchar
        </CharString>
        <CharString name="J">
          -221 -79 -21 697.5 41.5 hstem
          121.5 44 vstem
          227 639 rmoveto
          -173 hlineto
          -8 -36 6 -6 121 1 -46 -392 -11 -89 -10 -80 -42 -50 -93 -52 rlinecurve
          -8 vlineto
          17 -27 113 61 47 58 12 97 rlinecurve
          11 96 rlineto
          endchar
        </CharString>
        <CharString name="Jcircumflex">
          -221 -79 -21 697.5 41.5 hstem
          121.5 44 vstem
          168 841 rmoveto
          -36 -29 -38 -28 -42 -26 9 -23 rcurveline
          7 hlineto
          37 22 35 22 35 24 29 -24 29 -22 32 -22 rrcurveto
          7 hlineto
          14 23 -34 26 -34 28 -31 29 rlinecurve
          40 -202 rmoveto
          -173 hlineto
          -8 -36 6 -6 121 1 -46 -392 -11 -89 -10 -80 -42 -50 -93 -52 rlinecurve
          -8 vlineto
          17 -27 113 61 47 58 12 97 rlinecurve
          11 96 rlineto
          endchar
        </CharString>
        <CharString name="K">
          2 13 -21 29 -21 639 -20 hstemhm
          71 464 hintmask 01110000
          143 197 rmoveto
          57 442 rlineto
          -48 hlineto
          -54 -445 -27 -194 rlineto
          48 hlineto
          416 639 rmoveto
          -59 hlineto
          -46 -51 -249 -246 -1 -4 rlineto
          hintmask 10110000
          73 -118 83 -117 84 -108 6 -3 rcurveline
          15 3 14 3 15 6 1 7 rcurveline
          -83 102 -82 113 -71 113 rrcurveto
          endchar
        </CharString>
        <CharString name="Kcommaaccent">
          2 13 -21 29 -21 639 -20 hstemhm
          260 40 hintmask 01110000
          143 197 rmoveto
          57 442 rlineto
          -48 hlineto
          -54 -445 -27 -194 rlineto
          48 hlineto
          416 639 rmoveto
          -59 hlineto
          -46 -51 -250 -246 rlineto
          -4 vlineto
          hintmask 10110000
          73 -118 83 -117 84 -108 5 -3 rcurveline
          16 3 14 3 14 6 2 7 rcurveline
          -84 102 -81 113 -71 113 rrcurveto
          27 -402 rmoveto
          -12 -5 -10 -6 -9 -7 rrcurveto
          -5 vlineto
          18 -11 11 -13 -15 vvcurveto
          -26 -18 -28 -34 -26 vhcurveto
          -1 -5 17 -16 rlineto
          51 37 25 37 34 vvcurveto
          22 -14 19 -24 14 vhcurveto
          endchar
        </CharString>
        <CharString name="L">
          -113 0 42 597 -20 hstem
          70 291 vstem
          361 37 rmoveto
          -3 5 rlineto
          -235 hlineto
          18 155 57 442 rlineto
          -48 hlineto
          -53 -445 -27 -194 rlineto
          282 hlineto
          endchar
        </CharString>
        <CharString name="L.ss01">
          -144 0 27 -27 40 428 26 hstemhm
          -124 610 hintmask 10110000
          128 167 rmoveto
          39 301 rlineto
          316 hlineto
          3 26 rlineto
          -548 hlineto
          -3 -26 rlineto
          187 hlineto
          -37 -304 -18 -137 rlineto
          -188 hlineto
          -3 -27 rlineto
          547 hlineto
          4 27 rlineto
          -114 hlineto
          hintmask 01110000
          14 103 -35 -2 -14 -88 rlineto
          -166 hlineto
          endchar
        </CharString>
        <CharString name="Lacute">
          -113 0 42 597 -20 hstem
          70 291 vstem
          113 726 rmoveto
          7 -3 61 28 59 28 64 33 rlinecurve
          2 7 -13 28 -7 2 -67 -39 -58 -31 -59 -28 rlinecurve
          259 -714 rmoveto
          -3 5 rlineto
          -235 hlineto
          19 155 57 442 rlineto
          -49 hlineto
          -53 -445 -27 -194 rlineto
          282 hlineto
          endchar
        </CharString>
        <CharString name="Lcaron">
          -103 0 42 597 -20 hstem
          70 333 vstem
          358 42 rmoveto
          -235 hlineto
          19 155 57 442 rlineto
          -49 hlineto
          -53 -445 -27 -194 rlineto
          282 hlineto
          9 37 rlineto
          42 537 rmoveto
          -3 6 -37 -3 -28 -159 4 -5 28 4 rlineto
          endchar
        </CharString>
        <CharString name="Lcommaaccent">
          -113 0 42 597 -20 hstem
          189 40 vstem
          361 37 rmoveto
          -3 5 rlineto
          -235 hlineto
          19 155 57 442 rlineto
          -49 hlineto
          -53 -445 -27 -194 rlineto
          282 hlineto
          -161 -63 rmoveto
          -12 -5 -10 -6 -9 -7 rrcurveto
          -5 vlineto
          18 -11 11 -13 -15 vvcurveto
          -26 -18 -28 -34 -26 vhcurveto
          -1 -5 17 -16 rlineto
          51 37 25 37 34 vvcurveto
          22 -14 19 -24 14 vhcurveto
          endchar
        </CharString>
        <CharString name="Ldot">
          -113 0 42 298 65 234 -20 hstem
          282 64 vstem
          361 37 rmoveto
          -3 5 rlineto
          -235 hlineto
          19 155 57 442 rlineto
          -49 hlineto
          -53 -445 -27 -194 rlineto
          282 hlineto
          -38 340 rmoveto
          20 12 13 20 19 -12 13 -19 -20 -13 -14 -19 -20 12 -12 20 hvcurveto
          endchar
        </CharString>
        <CharString name="Lslash">
          -103 0 42 416 -20 201 -20 hstem
          25 345 vstem
          370 37 rmoveto
          -4 5 rlineto
          -235 hlineto
          19 155 18 141 164 87 -7 30 -6 3 -145 -76 33 257 rlineto
          -49 hlineto
          -34 -283 -99 -52 6 -31 6 -4 82 43 -14 -118 -27 -194 rlineto
          282 hlineto
          endchar
        </CharString>
        <CharString name="M">
          248 21 -21 78 64 412 85 hstem
          620 42 vstem
          652 hmoveto
          20 639 rlineto
          -55 hlineto
          -44 -90 -209 -407 rlineto
          -5 hlineto
          -98 399 -22 98 rlineto
          -55 hlineto
          -145 -639 rlineto
          43 hlineto
          43 198 80 356 rlineto
          6 hlineto
          119 -476 rlineto
          44 hlineto
          245 476 rlineto
          5 hlineto
          -8 -359 -8 -195 rlineto
          endchar
        </CharString>
        <CharString name="M.ss01">
          140 0 27 54 58 278 77 -26 26 hstemhm
          506.5 36 hintmask 11011000
          548 468 rmoveto
          220 hlineto
          3 26 rlineto
          -833 hlineto
          -3 -26 rlineto
          218 hlineto
          -103 -441 rlineto
          -171 hlineto
          -3 -27 rlineto
          833 hlineto
          3 27 rlineto
          -175 hlineto
          -47 441 rmoveto
          -24 -45 -156 -284 rlineto
          -4 hlineto
          -80 279 -12 50 rlineto
          284 -441 rmoveto
          -409 hlineto
          30 136 rlineto
          hintmask 11101000
          60 254 rlineto
          3 hlineto
          98 -336 rlineto
          39 hlineto
          185 336 rlineto
          5 hlineto
          -5 -257 rlineto
          endchar
        </CharString>
        <CharString name="N">
          147 0 82 -61 -21 557 82 0 -20 21 -20 hstemhm
          71 529 hintmask 01001100
          540 182 rmoveto
          60 458 -46 -4 rlineto
          hintmask 10010100
          -70 -554 rlineto
          -5 hlineto
          -277 557 rlineto
          -49 hlineto
          -55 -449 -27 -190 rlineto
          46 hlineto
          24 205 rlineto
          hintmask 01100100
          45 352 rlineto
          6 hlineto
          277 -557 rlineto
          49 hlineto
          endchar
        </CharString>
        <CharString name="Nacute">
          147 0 82 475 82 0 -20 21 -20 hstemhm
          71 529 hintmask 10011000
          492 847 rmoveto
          -7 2 -67 -39 -58 -31 -59 -28 rlinecurve
          11 -25 7 -3 61 28 59 28 64 33 rlinecurve
          2 7 rlineto
          34 -637 rmoveto
          61 458 -46 -4 -70 -554 rlineto
          -6 hlineto
          hintmask 10101000
          -277 557 rlineto
          -49 hlineto
          -55 -449 -26 -190 rlineto
          46 hlineto
          24 205 rlineto
          hintmask 11001000
          45 352 rlineto
          5 hlineto
          277 -557 rlineto
          50 hlineto
          endchar
        </CharString>
        <CharString name="Ncaron">
          147 0 82 475 82 0 -20 21 -20 hstemhm
          71 529 hintmask 10011000
          499 833 rmoveto
          -7 hlineto
          -37 -22 -35 -22 -35 -24 -29 24 -29 22 -32 22 rrcurveto
          -6 hlineto
          -14 -23 34 -26 33 -28 32 -29 rlinecurve
          19 hlineto
          36 29 37 28 42 26 rrcurveto
          31 -628 rmoveto
          61 458 -46 -4 -70 -554 rlineto
          -6 hlineto
          hintmask 10101000
          -277 557 rlineto
          -49 hlineto
          -55 -449 -26 -190 rlineto
          46 hlineto
          24 205 rlineto
          hintmask 11001000
          45 352 rlineto
          5 hlineto
          277 -557 rlineto
          50 hlineto
          endchar
        </CharString>
        <CharString name="Ncommaaccent">
          147 0 82 475 82 0 -20 21 -20 hstemhm
          285 40 hintmask 10011000
          539 182 rmoveto
          61 458 -46 -4 -70 -554 rlineto
          -6 hlineto
          hintmask 10101000
          -277 557 rlineto
          -49 hlineto
          -55 -449 -26 -190 rlineto
          46 hlineto
          24 205 rlineto
          hintmask 11001000
          45 352 rlineto
          5 hlineto
          277 -557 rlineto
          50 hlineto
          -231 -63 rmoveto
          -12 -5 -10 -6 -9 -7 rrcurveto
          -5 vlineto
          18 -11 11 -13 -15 vvcurveto
          -26 -18 -28 -34 -26 vhcurveto
          -1 -5 17 -16 rlineto
          51 37 25 37 34 vvcurveto
          22 -14 19 -24 14 vhcurveto
          endchar
        </CharString>
        <CharString name="Ntilde">
          147 0 82 475 82 0 -20 21 -20 129.5 39.5 -3 38.5 hstemhm
          71 529 hintmask 00000000
          hintmask 10011010
          540 814 rmoveto
          -16 18 rlineto
          -6 hlineto
          -25 -27 -14 -18 -13 hhcurveto
          hintmask 10010110
          -25 -91 32 5 -40 hvcurveto
          -7 -3 -57 -57 rlineto
          -6 vlineto
          17 -18 rlineto
          6 hlineto
          25 26 14 19 13 hhcurveto
          hintmask 10011010
          26 91 -33 -5 39 hvcurveto
          8 3 56 58 rlineto
          -1 -627 rmoveto
          hintmask 10010110
          61 458 -46 -4 -70 -554 rlineto
          -6 hlineto
          hintmask 10100110
          -277 557 rlineto
          -49 hlineto
          -55 -449 -26 -190 rlineto
          46 hlineto
          24 205 rlineto
          hintmask 11000110
          45 352 rlineto
          5 hlineto
          277 -557 rlineto
          50 hlineto
          endchar
        </CharString>
        <CharString name="O">
          105 -6 42 567 42 hstem
          51 50 428 50 vstem
          358 645 rmoveto
          -196 -111 -148 -243 -165 80 -95 140 197 111 152 245 161 -79 93 -142 hvcurveto
          -5 -42 rmoveto
          116 60 -76 -143 -218 -89 -130 -165 -114 -60 78 144 217 87 128 165 hvcurveto
          endchar
        </CharString>
        <CharString name="OE">
          301 -12 42 -30 41.5 267 41 247.5 42 -30 42 0 -20 hstemhm
          51 49 hintmask 00000000
          hintmask 10101010
          395 651 rmoveto
          -215 -129 -151 -240 -170 88 -102 159 hvcurveto
          hintmask 01110010
          53 58 12 56 hhcurveto
          277 hlineto
          10 38 -4 6 -147 -3 -123 1 18 149 14 117 108 1 111 -1 10 37 -3 6 -109 -2 -110 1 31 247 rlineto
          135 hlineto
          132 -2 rlineto
          hintmask 01100110
          10 38 -4 6 rlineto
          hintmask 01110010
          -276 hlineto
          hintmask 10101010
          -53 -43 12 -54 hhcurveto
          -9 -42 rmoveto
          hintmask 10110010
          41 45 -8 -4 15 hvcurveto
          10 -3 1 -7 -3 -25 -58 -493 rcurveline
          -3 -18 -6 -6 -22 -5 rrcurveto
          -4 -17 -43 -6 -36 hhcurveto
          -141 -69 85 149 hvcurveto
          hintmask 10101010
          215 103 130 183 vhcurveto
          endchar
        </CharString>
        <CharString name="Oacute">
          105 -6 42 567 42 hstem
          51 50 428 50 vstem
          470 847 rmoveto
          -7 2 -67 -39 -58 -31 -59 -28 rlinecurve
          11 -25 7 -3 61 28 59 28 64 33 rlinecurve
          2 7 rlineto
          -126 -174 rmoveto
          -196 -110 -148 -243 -165 80 -95 140 197 111 152 245 161 -79 93 -143 hvcurveto
          -4 -42 rmoveto
          116 60 -76 -143 -218 -89 -130 -165 -114 -60 78 144 217 87 128 165 hvcurveto
          endchar
        </CharString>
        <CharString name="Obreve">
          105 -6 42 567 42 82 37 hstem
          51 50 428 50 vstem
          468 827 rmoveto
          -8 hlineto
          -40 -18 -33 -23 -44 hhcurveto
          -45 -27 23 40 -7 hvcurveto
          -9 hlineto
          -19 -19 rlineto
          -52 10 39 -29 57 hhcurveto
          54 42 29 52 23 hvcurveto
          -126 -163 rmoveto
          -196 -110 -148 -243 -165 80 -95 140 197 111 152 245 161 -79 93 -143 hvcurveto
          -4 -42 rmoveto
          116 60 -76 -143 -218 -89 -130 -165 -114 -60 78 144 217 87 128 165 hvcurveto
          endchar
        </CharString>
        <CharString name="Ocaron">
          105 -6 42 567 42 hstem
          51 50 428 50 vstem
          478 833 rmoveto
          -7 hlineto
          -37 -22 -35 -22 -35 -24 -29 24 -29 22 -32 22 rrcurveto
          -6 hlineto
          -14 -23 34 -26 33 -28 32 -29 rlinecurve
          19 hlineto
          36 29 37 28 42 26 rrcurveto
          -130 -165 rmoveto
          -196 -110 -148 -243 -165 80 -95 140 197 111 152 245 161 -79 93 -143 hvcurveto
          -4 -42 rmoveto
          116 60 -76 -143 -218 -89 -130 -165 -114 -60 78 144 217 87 128 165 hvcurveto
          endchar
        </CharString>
        <CharString name="Ocircumflex">
          105 -6 42 567 42 hstem
          51 50 428 50 vstem
          264 735 rmoveto
          7 hlineto
          37 22 35 22 35 24 29 -24 29 -22 32 -22 rrcurveto
          7 hlineto
          14 23 -34 26 -34 28 -31 29 rlinecurve
          -19 hlineto
          -36 -29 -38 -28 -42 -26 rrcurveto
          102 -113 rmoveto
          -196 -110 -148 -243 -165 80 -95 140 197 111 152 245 161 -79 93 -143 hvcurveto
          -4 -42 rmoveto
          116 60 -76 -143 -218 -89 -130 -165 -114 -60 78 144 217 87 128 165 hvcurveto
          endchar
        </CharString>
        <CharString name="Ocircumflexacute">
          105 -6 42 567 42 hstem
          51 50 428 50 vstem
          510 911 rmoveto
          -21 9 -43 -46 -24 -52 17 -10 42 44 36 46 rlineto
          -155 -80 rmoveto
          -36 -29 -38 -28 -42 -26 9 -23 rcurveline
          7 hlineto
          37 22 35 22 35 24 29 -24 29 -22 32 -22 rrcurveto
          6 hlineto
          14 23 -34 26 -33 28 -31 29 rlinecurve
          -24 -177 rmoveto
          -196 -110 -148 -243 -165 80 -95 140 197 111 152 245 161 -79 93 -143 hvcurveto
          -4 -42 rmoveto
          116 60 -76 -143 -218 -89 -130 -165 -114 -60 78 144 217 87 128 165 hvcurveto
          endchar
        </CharString>
        <CharString name="Ocircumflexdotbelow">
          105 -145 65 74 42 567 42 hstem
          51 50 157 64 207 50 vstem
          264 735 rmoveto
          7 hlineto
          37 22 35 22 35 24 29 -24 29 -22 32 -22 rrcurveto
          7 hlineto
          14 23 -34 26 -34 28 -31 29 rlinecurve
          -19 hlineto
          -36 -29 -38 -28 -42 -26 rrcurveto
          102 -113 rmoveto
          -196 -110 -148 -243 -165 80 -95 140 197 111 152 245 161 -79 93 -143 hvcurveto
          -4 -42 rmoveto
          116 60 -76 -143 -218 -89 -130 -165 -114 -60 78 144 217 87 128 165 hvcurveto
          -62 -683 rmoveto
          -21 -12 -13 -20 -19 12 -13 19 20 13 14 20 19 -12 12 -19 hvcurveto
          endchar
        </CharString>
        <CharString name="Ocircumflexgrave">
          105 -6 42 567 42 hstem
          51 50 428 50 vstem
          463 873 rmoveto
          -43 47 -21 -10 -7 -8 36 -47 43 -43 16 10 rlineto
          -122 hmoveto
          -36 -29 -38 -28 -41 -26 8 -23 rcurveline
          7 hlineto
          37 22 35 22 35 24 29 -24 29 -22 32 -22 rrcurveto
          7 hlineto
          14 23 -34 26 -34 28 -31 29 rlinecurve
          -27 -177 rmoveto
          -196 -110 -148 -243 -165 80 -95 140 197 111 152 245 161 -79 93 -143 hvcurveto
          -4 -42 rmoveto
          116 60 -76 -143 -218 -89 -130 -165 -114 -60 78 144 217 87 128 165 hvcurveto
          endchar
        </CharString>
        <CharString name="Ocircumflexhookabove">
          105 -6 42 567 42 277 31 hstemhm
          51 50 373 32 23 50 hintmask 00000000
          hintmask 11111100
          455 953 rmoveto
          -22 -26 -13 -21 -23 hvcurveto
          12 -18 rlineto
          14 18 20 7 15 hhcurveto
          15 10 -7 -12 -15 -17 -22 -31 -21 hvcurveto
          25 -45 24 12 -16 29 rlineto
          31 25 16 21 21 vvcurveto
          25 -21 20 -30 vhcurveto
          -92 -131 rmoveto
          -36 -28 -38 -28 -41 -26 8 -24 rcurveline
          7 hlineto
          37 23 35 22 35 23 29 -23 29 -22 32 -23 rrcurveto
          7 hlineto
          14 24 -34 26 -34 28 -31 28 rlinecurve
          hintmask 11010100
          -25 -177 rmoveto
          -196 -110 -148 -243 -165 80 -95 140 197 111 152 245 161 -79 93 -143 hvcurveto
          -4 -42 rmoveto
          116 60 -76 -143 -218 -89 -130 -165 -114 -60 78 144 217 87 128 165 hvcurveto
          endchar
        </CharString>
        <CharString name="Ocircumflextilde">
          105 -6 42 567 42 210 38 -2 37.5 hstemhm
          51 50 428 50 hintmask 11101100
          538 919 rmoveto
          -15 17 rlineto
          -6 hlineto
          -24 -24 -14 -19 -12 hhcurveto
          hintmask 11011100
          -24 -86 32 5 -38 hvcurveto
          -7 -3 -53 -56 rlineto
          -6 vlineto
          16 -17 rlineto
          5 hlineto
          24 25 13 19 13 hhcurveto
          hintmask 11101100
          24 86 -33 -4 37 hvcurveto
          7 2 53 57 rlineto
          -170 -89 rmoveto
          -36 -28 -38 -29 -42 -26 9 -23 rcurveline
          7 hlineto
          37 22 35 23 35 23 29 -23 29 -23 32 -22 rrcurveto
          6 hlineto
          14 23 -34 26 -33 29 -31 28 rlinecurve
          -30 -179 rmoveto
          -196 -110 -148 -243 -165 80 -95 140 197 111 152 245 161 -79 93 -143 hvcurveto
          -4 -42 rmoveto
          116 60 -76 -143 -218 -89 -130 -165 -114 -60 78 144 217 87 128 165 hvcurveto
          endchar
        </CharString>
        <CharString name="Odieresis">
          105 -6 42 567 42 109 63 hstem
          51 50 162 62 93 62 49 50 vstem
          295 817 rmoveto
          -20 -12 -13 -19 -20 12 -11 19 19 12 12 20 18 -11 13 -19 hvcurveto
          155 -1 rmoveto
          -20 -12 -12 -20 -19 11 -12 20 18 13 13 20 18 -12 12 -18 hvcurveto
          -93 -171 rmoveto
          -196 -110 -148 -243 -165 80 -95 140 197 111 152 245 161 -79 93 -143 hvcurveto
          -4 -42 rmoveto
          116 60 -76 -143 -218 -89 -130 -165 -114 -60 78 144 217 87 128 165 hvcurveto
          endchar
        </CharString>
        <CharString name="Odotbelow">
          105 -145 65 74 42 567 42 hstem
          51 50 157 64 207 50 vstem
          357 645 rmoveto
          -196 -110 -148 -243 -165 80 -95 140 197 111 152 245 161 -79 93 -143 hvcurveto
          -4 -42 rmoveto
          116 60 -76 -143 -218 -89 -130 -165 -114 -60 78 144 217 87 128 165 hvcurveto
          -62 -683 rmoveto
          -21 -12 -13 -20 -19 12 -13 19 20 13 14 20 19 -12 12 -19 hvcurveto
          endchar
        </CharString>
        <CharString name="Ograve">
          105 -6 42 567 42 hstem
          51 50 428 50 vstem
          283 848 rmoveto
          -14 -28 3 -7 63 -33 59 -27 62 -29 rlinecurve
          7 3 10 25 -58 29 -59 30 -67 39 rlinecurve
          68 -205 rmoveto
          -196 -110 -148 -243 -165 80 -95 140 197 111 152 245 161 -79 93 -143 hvcurveto
          -4 -42 rmoveto
          116 60 -76 -143 -218 -89 -130 -165 -114 -60 78 144 217 87 128 165 hvcurveto
          endchar
        </CharString>
        <CharString name="Ohm">
          201 0 40 -18 -21 602 42 hstemhm
          105 49 428 50 hintmask 10111000
          403 645 rmoveto
          -191 -107 -142 -197 -104 35 -98 68 -61 hvcurveto
          -1 -3 rlineto
          -100 hlineto
          -78 3 rlineto
          hintmask 01111000
          -12 -40 4 -5 rlineto
          hintmask 10111000
          77 2 rlineto
          130 hlineto
          37 -1 4 2 4 39 rlineto
          -77 60 -42 102 107 vvcurveto
          173 88 121 158 123 59 -81 -124 -144 -74 -134 -125 -80 vhcurveto
          -5 -39 3 -2 38 1 rlineto
          119 hlineto
          86 -2 12 41 -4 5 -74 -4 rlineto
          -108 3 hlineto
          116 85 66 133 141 vvcurveto
          144 -77 99 -152 vhcurveto
          endchar
        </CharString>
        <CharString name="Ohookabove">
          105 -6 42 567 42 202 31 hstem
          51 50 279 34 115 50 vstem
          361 878 rmoveto
          -24 -27 -13 -22 -24 hvcurveto
          12 -20 rlineto
          16 19 21 8 16 hhcurveto
          16 10 -8 -13 -16 -18 -22 -32 -23 hvcurveto
          27 -48 25 13 -18 31 rlineto
          33 26 17 22 22 vvcurveto
          26 -23 21 -30 vhcurveto
          -4 -233 rmoveto
          -196 -110 -148 -243 -165 80 -95 140 197 111 152 245 161 -79 93 -143 hvcurveto
          -4 -42 rmoveto
          116 60 -76 -143 -218 -89 -130 -165 -114 -60 78 144 217 87 128 165 hvcurveto
          endchar
        </CharString>
        <CharString name="Ohorn">
          107 -6 42 545 30 -8 42 hstemhm
          51 49 429 49 24 41 hintmask 00000000
          hintmask 11011100
          607 759 rmoveto
          -6 -10 -4 -7 -10 hvcurveto
          -2 -6 rlineto
          15 -19 8 -23 -20 vvcurveto
          -47 -41 -22 -39 vhcurveto
          -49 -24 34 -91 hhcurveto
          hintmask 10111000
          -195 -112 -155 -224 -184 78 -88 143 193 113 159 228 hvcurveto
          hintmask 11011000
          87 -16 65 -43 48 vhcurveto
          hintmask 11011100
          70 54 39 69 40 -19 30 -17 hvcurveto
          hintmask 10111000
          -255 -156 rmoveto
          118 59 -72 -159 -199 -90 -137 -162 -119 -58 74 160 198 88 135 164 hvcurveto
          endchar
        </CharString>
        <CharString name="Ohornacute">
          107 -6 42 545 30 -8 42 hstemhm
          51 49 428 50 24 41 hintmask 10111000
          470 847 rmoveto
          -7 2 -67 -39 -58 -31 -59 -28 rlinecurve
          11 -25 7 -3 61 28 59 28 64 33 rlinecurve
          2 7 rlineto
          hintmask 11011100
          124 -60 rmoveto
          -6 -10 -4 -7 -10 hvcurveto
          -2 -6 rlineto
          15 -19 8 -23 -20 vvcurveto
          -47 -41 -22 -40 vhcurveto
          -48 -24 34 -92 hhcurveto
          hintmask 10111000
          -194 -112 -155 -224 -184 77 -88 144 192 114 159 228 hvcurveto
          hintmask 11011000
          87 -16 65 -43 48 vhcurveto
          hintmask 11011100
          70 54 39 69 40 -19 30 -17 hvcurveto
          hintmask 10111000
          -256 -156 rmoveto
          119 58 -72 -159 -199 -89 -137 -163 -119 -57 74 160 198 88 135 163 hvcurveto
          endchar
        </CharString>
        <CharString name="Ohorndotbelow">
          107 -145 65 74 42 545 30 -8 42 hstemhm
          51 49 158 64 206 50 24 41 hintmask 00000000
          hintmask 01101011
          607 759 rmoveto
          -6 -10 -4 -7 -10 hvcurveto
          -2 -6 rlineto
          15 -19 8 -23 -20 vvcurveto
          -47 -41 -22 -40 vhcurveto
          -48 -24 34 -92 hhcurveto
          hintmask 01011010
          -194 -112 -155 -224 -184 77 -88 144 192 114 159 228 hvcurveto
          hintmask 01101010
          87 -16 65 -43 48 vhcurveto
          hintmask 01101011
          70 54 39 69 40 -19 30 -17 hvcurveto
          hintmask 11011110
          -256 -156 rmoveto
          119 58 -72 -159 -199 -89 -137 -163 -119 -57 74 160 198 88 135 163 hvcurveto
          -60 -683 rmoveto
          -21 -12 -13 -20 -19 12 -13 19 20 13 14 20 19 -12 12 -19 hvcurveto
          endchar
        </CharString>
        <CharString name="Ohorngrave">
          107 -6 42 545 30 -8 42 hstemhm
          51 49 428 50 24 41 hintmask 10111000
          283 848 rmoveto
          -14 -28 3 -7 63 -33 59 -27 62 -29 rlinecurve
          7 3 10 25 -58 29 -59 30 -67 39 rlinecurve
          hintmask 11011100
          318 -91 rmoveto
          -6 -10 -4 -7 -10 hvcurveto
          -2 -6 rlineto
          15 -19 8 -23 -20 vvcurveto
          -47 -41 -22 -40 vhcurveto
          -48 -24 34 -92 hhcurveto
          hintmask 10111000
          -194 -112 -155 -224 -184 77 -88 144 192 114 159 228 hvcurveto
          hintmask 11011000
          87 -16 65 -43 48 vhcurveto
          hintmask 11011100
          70 54 39 69 40 -19 30 -17 hvcurveto
          hintmask 10111000
          -256 -156 rmoveto
          119 58 -72 -159 -199 -89 -137 -163 -119 -57 74 160 198 88 135 163 hvcurveto
          endchar
        </CharString>
        <CharString name="Ohornhookabove">
          107 -6 42 545 30 -8 42 202 31 hstemhm
          51 49 280 34 114 50 24 41 hintmask 10111110
          361 878 rmoveto
          -24 -27 -13 -22 -24 hvcurveto
          12 -20 rlineto
          16 19 21 8 16 hhcurveto
          16 10 -8 -13 -16 -18 -22 -32 -23 hvcurveto
          27 -48 25 13 -18 31 rlineto
          33 26 17 22 22 vvcurveto
          26 -23 21 -30 vhcurveto
          hintmask 11011111
          246 -119 rmoveto
          -6 -10 -4 -7 -10 hvcurveto
          -2 -6 rlineto
          15 -19 8 -23 -20 vvcurveto
          -47 -41 -22 -40 vhcurveto
          -48 -24 34 -92 hhcurveto
          hintmask 10111110
          -194 -112 -155 -224 -184 77 -88 144 192 114 159 228 hvcurveto
          hintmask 11011110
          87 -16 65 -43 48 vhcurveto
          hintmask 11011111
          70 54 39 69 40 -19 30 -17 hvcurveto
          hintmask 10111110
          -256 -156 rmoveto
          119 58 -72 -159 -199 -89 -137 -163 -119 -57 74 160 198 88 135 163 hvcurveto
          endchar
        </CharString>
        <CharString name="Ohorntilde">
          107 -6 42 545 30 -8 42 104.5 39.5 -3 38.5 hstemhm
          51 49 428 50 24 41 hintmask 10110110
          519 814 rmoveto
          -16 18 rlineto
          -6 hlineto
          -25 -27 -14 -18 -13 hhcurveto
          hintmask 10101110
          -25 -91 32 5 -40 hvcurveto
          -7 -3 -57 -57 rlineto
          -6 vlineto
          17 -18 rlineto
          6 hlineto
          25 26 14 19 13 hhcurveto
          hintmask 10110110
          26 91 -33 -5 39 hvcurveto
          8 3 56 58 rlineto
          hintmask 11010111
          88 -50 rmoveto
          -6 -10 -4 -7 -10 hvcurveto
          -2 -6 rlineto
          15 -19 8 -23 -20 vvcurveto
          -47 -41 -22 -40 vhcurveto
          -48 -24 34 -92 hhcurveto
          hintmask 10110110
          -194 -112 -155 -224 -184 77 -88 144 192 114 159 228 hvcurveto
          hintmask 11010110
          87 -16 65 -43 48 vhcurveto
          hintmask 11010111
          70 54 39 69 40 -19 30 -17 hvcurveto
          hintmask 10110110
          -256 -156 rmoveto
          119 58 -72 -159 -199 -89 -137 -163 -119 -57 74 160 198 88 135 163 hvcurveto
          endchar
        </CharString>
        <CharString name="Ohungarumlaut">
          105 -6 42 567 42 hstem
          51 50 428 50 vstem
          252 720 rmoveto
          6 hlineto
          40 36 38 35 37 36 1 7 rcurveline
          -22 17 -7 1 -36 -40 -37 -36 -39 -38 rlinecurve
          155 -18 rmoveto
          6 hlineto
          39 36 39 35 37 36 1 7 rcurveline
          -23 17 -6 1 -36 -40 -37 -36 -39 -38 rlinecurve
          -12 -93 rmoveto
          -196 -110 -148 -243 -165 80 -95 140 197 111 152 245 161 -79 93 -143 hvcurveto
          -4 -42 rmoveto
          116 60 -76 -143 -218 -89 -130 -165 -114 -60 78 144 217 87 128 165 hvcurveto
          endchar
        </CharString>
        <CharString name="Omacron">
          105 -6 42 567 42 123 36 hstem
          51 50 428 50 vstem
          518 800 rmoveto
          -4 4 rlineto
          -285 hlineto
          -3 -31 4 -5 rlineto
          285 hlineto
          -158 -123 rmoveto
          -196 -110 -148 -243 -165 80 -95 140 197 111 152 245 161 -79 93 -143 hvcurveto
          -4 -42 rmoveto
          116 60 -76 -143 -218 -89 -130 -165 -114 -60 78 144 217 87 128 165 hvcurveto
          endchar
        </CharString>
        <CharString name="Omega">
          201 0 40 -18 -21 602 42 hstemhm
          105 49 428 50 hintmask 10111000
          403 645 rmoveto
          -191 -107 -142 -197 -104 35 -98 68 -61 hvcurveto
          -1 -3 rlineto
          -100 hlineto
          -78 3 rlineto
          hintmask 01111000
          -12 -40 4 -5 rlineto
          hintmask 10111000
          77 2 rlineto
          130 hlineto
          37 -1 4 2 4 39 rlineto
          -77 60 -42 102 107 vvcurveto
          173 88 121 158 123 59 -81 -124 -144 -74 -134 -125 -80 vhcurveto
          -5 -39 3 -2 38 1 rlineto
          119 hlineto
          86 -2 12 41 -4 5 -74 -4 rlineto
          -108 3 hlineto
          116 85 66 133 141 vvcurveto
          144 -77 99 -152 vhcurveto
          endchar
        </CharString>
        <CharString name="Oogonek">
          105 -197 36 155 42 567 42 hstem
          51 50 187 35 206 50 vstem
          399 20 rmoveto
          116 53 64 133 185 vvcurveto
          161 -79 93 -143 -196 -110 -148 -243 -165 80 -95 140 29 28 3 7 25 vhcurveto
          -42 -63 rlineto
          -15 -22 -8 -22 -23 vvcurveto
          -42 28 -29 44 35 31 20 35 29 vhcurveto
          -11 27 rlineto
          -3 hlineto
          -29 -23 -27 -17 -25 hhcurveto
          -28 -15 18 25 15 6 16 13 21 hvcurveto
          -241 324 rmoveto
          217 87 128 165 116 60 -76 -143 -218 -89 -130 -165 -114 -60 78 144 vhcurveto
          endchar
        </CharString>
        <CharString name="Oslash">
          106 -73 -21 88 42 567 42 61 -20 hstem
          51 50 428 50 vstem
          554 699 rmoveto
          -2 7 -30 10 -54 -95 rlineto
          16 -31 -37 8 -43 hhcurveto
          -196 -110 -148 -243 -102 30 -75 56 -42 hvcurveto
          -64 -114 2 -5 30 -10 62 110 rlineto
          -14 30 35 -8 39 hhcurveto
          197 111 152 245 96 -28 71 -53 43 hvcurveto
          -397 -343 rmoveto
          217 87 128 165 36 31 -8 -14 26 vhcurveto
          -285 -505 rlineto
          -40 37 -20 61 84 vvcurveto
          174 -222 rmoveto
          -33 -29 7 12 -23 hvcurveto
          284 503 rlineto
          37 -36 18 -59 -79 vvcurveto
          -218 -89 -130 -165 vhcurveto
          endchar
        </CharString>
        <CharString name="Oslashacute">
          106 -73 -21 88 42 567 42 61 -20 hstem
          51 50 428 50 vstem
          290 726 rmoveto
          7 -3 61 28 59 28 64 33 rlinecurve
          2 7 -13 28 -7 2 -67 -39 -58 -31 -59 -28 rlinecurve
          275 -52 rmoveto
          -2 7 -30 10 -54 -95 rlineto
          16 -31 -37 8 -43 hhcurveto
          -196 -110 -148 -243 -102 30 -75 56 -42 hvcurveto
          -64 -114 2 -5 30 -10 62 110 rlineto
          -14 30 35 -8 39 hhcurveto
          197 111 152 245 96 -28 71 -53 43 hvcurveto
          -397 -343 rmoveto
          217 87 128 165 36 31 -8 -14 26 vhcurveto
          -285 -505 rlineto
          -40 37 -20 61 84 vvcurveto
          174 -222 rmoveto
          -33 -29 7 12 -23 hvcurveto
          284 503 rlineto
          37 -36 18 -59 -79 vvcurveto
          -218 -89 -130 -165 vhcurveto
          endchar
        </CharString>
        <CharString name="Otilde">
          105 -6 42 567 42 104.5 39.5 -3 38.5 hstemhm
          51 50 428 50 hintmask 11101100
          519 814 rmoveto
          -16 18 rlineto
          -6 hlineto
          -25 -27 -14 -18 -13 hhcurveto
          hintmask 11011100
          -25 -91 32 5 -40 hvcurveto
          -7 -3 -57 -57 rlineto
          -6 vlineto
          17 -18 rlineto
          6 hlineto
          25 26 14 19 13 hhcurveto
          hintmask 11101100
          26 91 -33 -5 39 hvcurveto
          8 3 56 58 rlineto
          -162 -164 rmoveto
          -196 -110 -148 -243 -165 80 -95 140 197 111 152 245 161 -79 93 -143 hvcurveto
          -4 -42 rmoveto
          116 60 -76 -143 -218 -89 -130 -165 -114 -60 78 144 217 87 128 165 hvcurveto
          endchar
        </CharString>
        <CharString name="P">
          -19 21 -21 238 41.5 318.5 42 hstem
          420 49 vstem
          152 639 rmoveto
          -53 -445 -28 -194 rlineto
          49 hlineto
          23 197 5 41 rlineto
          78 hlineto
          154 89 98 147 103 -61 54 -101 hvcurveto
          -153 -360 rmoveto
          41 317 106 2 rlineto
          81 -4 38 -43 -77 vvcurveto
          -108 -60 -77 -96 -11 vhcurveto
          endchar
        </CharString>
        <CharString name="Q">
          100 -166 -21 181 42 -14 -21 602 42 hstemhm
          51 50 428 50 hintmask 00000000
          hintmask 10111100
          342 1 rmoveto
          153 33 84 143 214 vvcurveto
          161 -79 93 -142 -196 -111 -148 -243 vhcurveto
          hintmask 11011100
          -165 80 -95 140 vhcurveto
          21 1 94 -95 123 -64 132 -23 rlinecurve
          5 2 6 6 7 9 9 15 rlinecurve
          8 vlineto
          hintmask 10111100
          -123 19 -113 52 -90 77 rrcurveto
          hintmask 11011100
          -241 257 rmoveto
          217 87 128 165 116 60 -76 -143 -218 -89 -130 -165 -114 -60 78 144 vhcurveto
          endchar
        </CharString>
        <CharString name="R">
          12 13 -21 29 -21 251 42 305 42 hstemhm
          420 50 hintmask 01111000
          470 488 rmoveto
          98 -59 54 -103 vhcurveto
          -156 -1 -54 -445 -27 -194 rlineto
          49 hlineto
          23 197 7 54 rlineto
          118 hlineto
          hintmask 10111000
          36 -86 43 -86 46 -83 7 -4 rcurveline
          15 3 13 3 14 7 2 6 rcurveline
          -50 82 -44 84 -39 85 rrcurveto
          hintmask 01111000
          100 37 59 82 107 vvcurveto
          -315 -194 rmoveto
          40 303 106 2 rlineto
          78 -4 41 -40 -74 vvcurveto
          -97 -50 -66 -91 -26 vhcurveto
          endchar
        </CharString>
        <CharString name="Racute">
          12 13 -21 29 -21 251 42 305 42 hstemhm
          421 49 hintmask 01111000
          252 703 rmoveto
          7 -1 53 43 50 41 53 48 rlinecurve
          2 6 -20 25 -6 1 -56 -55 -49 -44 -50 -42 rlinecurve
          234 -237 rmoveto
          98 -59 54 -102 vhcurveto
          -158 -1 -53 -445 -27 -194 rlineto
          48 hlineto
          23 197 7 54 rlineto
          119 hlineto
          hintmask 10111000
          36 -86 43 -86 46 -83 7 -4 rcurveline
          16 3 12 3 14 7 2 6 rcurveline
          -50 82 -44 84 -39 84 rrcurveto
          hintmask 01111000
          100 38 59 82 107 vvcurveto
          -315 -194 rmoveto
          40 303 106 2 rlineto
          78 -4 42 -40 -74 vvcurveto
          -97 -51 -66 -90 -26 vhcurveto
          endchar
        </CharString>
        <CharString name="Rcaron">
          12 13 -21 29 -21 251 42 305 42 hstemhm
          421 49 hintmask 01111000
          321 705 rmoveto
          45 50 39 42 40 38 -13 21 rcurveline
          -7 hlineto
          -41 -38 -36 -35 -35 -38 -26 38 -27 35 -32 38 rrcurveto
          -7 hlineto
          -18 -21 33 -39 32 -43 32 -48 rlinecurve
          170 -217 rmoveto
          98 -59 54 -102 vhcurveto
          -158 -1 -53 -445 -27 -194 rlineto
          48 hlineto
          23 197 7 54 rlineto
          119 hlineto
          hintmask 10111000
          36 -86 43 -86 46 -83 7 -4 rcurveline
          16 3 12 3 14 7 2 6 rcurveline
          -50 82 -44 84 -39 84 rrcurveto
          hintmask 01111000
          100 38 59 82 107 vvcurveto
          -315 -194 rmoveto
          40 303 106 2 rlineto
          78 -4 42 -40 -74 vvcurveto
          -97 -51 -66 -90 -26 vhcurveto
          endchar
        </CharString>
        <CharString name="Rcommaaccent">
          12 13 -21 29 -21 251 42 305 42 hstemhm
          216 40 165 49 hintmask 01110100
          470 488 rmoveto
          98 -59 54 -102 vhcurveto
          -158 -1 -53 -445 -27 -194 rlineto
          48 hlineto
          23 197 7 54 rlineto
          119 hlineto
          hintmask 10110100
          36 -86 43 -86 46 -83 7 -4 rcurveline
          16 3 12 3 14 7 2 6 rcurveline
          -50 82 -44 84 -39 84 rrcurveto
          hintmask 01110100
          100 38 59 82 107 vvcurveto
          -315 -194 rmoveto
          40 303 106 2 rlineto
          78 -4 42 -40 -74 vvcurveto
          -97 -51 -66 -90 -26 vhcurveto
          hintmask 01111100
          -62 -355 rmoveto
          -12 -5 -10 -6 -9 -7 rrcurveto
          -5 vlineto
          18 -11 11 -13 -15 vvcurveto
          -26 -18 -28 -34 -26 vhcurveto
          -1 -5 17 -16 rlineto
          51 37 25 37 34 vvcurveto
          22 -14 19 -24 14 vhcurveto
          endchar
        </CharString>
        <CharString name="S">
          -63 -5 41 566 41 hstem
          91 47 198 49 vstem
          291 643 rmoveto
          -114 -86 -75 -96 hvcurveto
          -171 245 5 -141 vvcurveto
          -68 -64 -61 -91 -46 -54 17 39 -38 vhcurveto
          -9 -3 -11 -49 rlineto
          -30 43 59 -15 51 hhcurveto
          119 90 79 99 hvcurveto
          171 -247 0 133 vvcurveto
          62 57 63 89 38 40 -12 -25 33 vhcurveto
          10 3 14 45 rlineto
          23 -46 -47 7 -35 hhcurveto
          endchar
        </CharString>
        <CharString name="Sacute">
          -63 -5 41 566 41 hstem
          90 48 198 48 vstem
          361 865 rmoveto
          -6 1 -56 -55 -49 -44 -50 -42 rlinecurve
          16 -22 7 -1 53 43 50 41 53 48 rlinecurve
          2 6 rlineto
          -90 -197 rmoveto
          -114 -87 -75 -96 hvcurveto
          -171 246 5 -141 vvcurveto
          -68 -64 -61 -91 -47 -53 17 39 -39 vhcurveto
          -8 -3 -11 -49 rlineto
          -30 43 59 -15 51 hhcurveto
          118 90 79 99 hvcurveto
          171 -246 0 133 vvcurveto
          62 57 63 89 38 40 -12 -25 33 vhcurveto
          10 3 14 45 rlineto
          23 -46 -47 7 -35 hhcurveto
          endchar
        </CharString>
        <CharString name="Scaron">
          -63 -5 41 566 41 hstem
          90 48 198 48 vstem
          396 856 rmoveto
          -7 hlineto
          -41 -38 -36 -35 -35 -38 -26 38 -27 35 -32 38 rrcurveto
          -7 hlineto
          -18 -21 33 -39 32 -43 32 -48 rlinecurve
          21 hlineto
          45 50 39 42 40 38 rrcurveto
          -118 -192 rmoveto
          -114 -87 -75 -96 hvcurveto
          -171 246 5 -141 vvcurveto
          -68 -64 -61 -91 -47 -53 17 39 -39 vhcurveto
          -8 -3 -11 -49 rlineto
          -30 43 59 -15 51 hhcurveto
          118 90 79 99 hvcurveto
          171 -246 0 133 vvcurveto
          62 57 63 89 38 40 -12 -25 33 vhcurveto
          10 3 14 45 rlineto
          23 -46 -47 7 -35 hhcurveto
          endchar
        </CharString>
        <CharString name="Scedilla">
          -63 -185 30 150 41 566 41 hstem
          90 48 75 36 87 48 vstem
          291 643 rmoveto
          -114 -87 -75 -96 hvcurveto
          -171 246 5 -141 vvcurveto
          -68 -64 -61 -91 -47 -53 17 39 -39 vhcurveto
          -8 -3 -11 -49 39 -28 53 -14 48 -3 rlinecurve
          -18 -62 46 -29 rlineto
          13 -8 9 -7 -14 vvcurveto
          -19 -14 -11 -22 -24 -14 13 18 -14 vhcurveto
          -5 -1 -7 -28 rlineto
          -16 13 21 -16 32 hhcurveto
          39 31 23 36 22 -11 16 -25 15 hvcurveto
          -32 20 15 49 rlineto
          108 8 80 76 93 171 -246 0 133 vvcurveto
          62 57 63 89 38 40 -12 -25 33 vhcurveto
          10 3 14 45 rlineto
          23 -46 -47 7 -35 hhcurveto
          endchar
        </CharString>
        <CharString name="Scircumflex">
          -63 -5 41 566 41 hstem
          90 48 198 48 vstem
          178 700 rmoveto
          7 hlineto
          42 37 35 36 36 38 26 -38 27 -36 32 -37 rrcurveto
          7 hlineto
          17 21 -32 39 -31 42 -32 49 rlinecurve
          -20 hlineto
          -46 -50 -40 -42 -40 -38 rrcurveto
          125 -78 rmoveto
          -114 -87 -75 -96 hvcurveto
          -171 246 5 -141 vvcurveto
          -68 -64 -61 -91 -47 -53 17 39 -39 vhcurveto
          -8 -3 -11 -49 rlineto
          -30 43 59 -15 51 hhcurveto
          118 90 79 99 hvcurveto
          171 -246 0 133 vvcurveto
          62 57 63 89 38 40 -12 -25 33 vhcurveto
          10 3 14 45 rlineto
          23 -46 -47 7 -35 hhcurveto
          endchar
        </CharString>
        <CharString name="Scommaaccent">
          -63 -5 41 566 41 hstem
          90 48 42 40 116 48 vstem
          291 643 rmoveto
          -114 -87 -75 -96 hvcurveto
          -171 246 5 -141 vvcurveto
          -68 -64 -61 -91 -47 -53 17 39 -39 vhcurveto
          -8 -3 -11 -49 rlineto
          -30 43 59 -15 51 hhcurveto
          118 90 79 99 hvcurveto
          171 -246 0 133 vvcurveto
          62 57 63 89 38 40 -12 -25 33 vhcurveto
          10 3 14 45 rlineto
          23 -46 -47 7 -35 hhcurveto
          -109 -706 rmoveto
          -12 -5 -10 -6 -9 -7 rrcurveto
          -5 vlineto
          18 -11 11 -13 -15 vvcurveto
          -26 -18 -28 -34 -26 vhcurveto
          -1 -5 17 -16 rlineto
          51 37 25 37 34 vvcurveto
          22 -14 19 -24 14 vhcurveto
          endchar
        </CharString>
        <CharString name="T">
          -41 21 -21 598 41 hstem
          71 415 vstem
          486 633 rmoveto
          -4 6 rlineto
          -400 hlineto
          -11 -38 4 -5 104 2 rlineto
          73 hlineto
          -48 -404 -26 -194 rlineto
          48 hlineto
          22 197 53 401 rlineto
          75 hlineto
          100 -2 rlineto
          endchar
        </CharString>
        <CharString name="Tbar">
          -41 21 -21 314 34 250 41 hstem
          71 414 vstem
          485 633 rmoveto
          -3 6 rlineto
          -401 hlineto
          -10 -38 4 -5 103 2 rlineto
          75 hlineto
          -30 -250 rlineto
          -97 hlineto
          -3 -30 4 -4 rlineto
          92 hlineto
          -14 -120 -27 -194 rlineto
          48 hlineto
          23 197 15 117 rlineto
          100 hlineto
          3 30 -5 4 rlineto
          -93 hlineto
          32 250 rlineto
          75 hlineto
          99 -2 rlineto
          endchar
        </CharString>
        <CharString name="Tcaron">
          -41 21 -21 598 41 hstem
          71 414 vstem
          295 705 rmoveto
          45 50 39 42 40 38 -13 21 rcurveline
          -7 hlineto
          -41 -38 -36 -35 -35 -38 -26 38 -27 35 -32 38 rrcurveto
          -7 hlineto
          -18 -21 33 -39 32 -43 32 -48 rlinecurve
          211 -72 rmoveto
          -3 6 rlineto
          -401 hlineto
          -10 -38 4 -5 103 2 rlineto
          75 hlineto
          -48 -404 -27 -194 rlineto
          48 hlineto
          23 197 52 401 rlineto
          75 hlineto
          99 -2 rlineto
          endchar
        </CharString>
        <CharString name="Tcedilla">
          -41 -182 28 175 -21 598 41 hstem
          230 33 vstem
          485 633 rmoveto
          -3 6 rlineto
          -401 hlineto
          -10 -38 4 -5 103 2 rlineto
          75 hlineto
          -48 -404 -27 -194 rlineto
          9 hlineto
          -19 -66 42 -28 rlineto
          13 -8 7 -7 -15 vvcurveto
          -19 -13 -11 -20 -23 -12 13 18 -13 vhcurveto
          -4 -1 -7 -26 rlineto
          -15 13 19 -17 29 hhcurveto
          35 29 23 35 22 -11 15 -22 15 hvcurveto
          -29 19 15 53 rlineto
          10 hlineto
          23 197 52 401 rlineto
          75 hlineto
          99 -2 rlineto
          endchar
        </CharString>
        <CharString name="Tcommaaccent">
          -41 21 -21 598 41 hstem
          191 40 vstem
          485 633 rmoveto
          -3 6 rlineto
          -401 hlineto
          -10 -38 4 -5 103 2 rlineto
          75 hlineto
          -48 -404 -27 -194 rlineto
          48 hlineto
          23 197 52 401 rlineto
          75 hlineto
          99 -2 rlineto
          -282 -659 rmoveto
          -12 -5 -10 -6 -9 -7 rrcurveto
          -5 vlineto
          18 -11 11 -13 -15 vvcurveto
          -26 -18 -28 -34 -26 vhcurveto
          -1 -5 17 -16 rlineto
          51 37 25 37 34 vvcurveto
          22 -14 19 -24 14 vhcurveto
          endchar
        </CharString>
        <CharString name="Thorn">
          -15 21 -21 120 42 318 43 -43 159 hstemhm
          407 49 hintmask 11101000
          185 522 rmoveto
          hintmask 11011000
          15 117 rlineto
          -48 hlineto
          -54 -445 -26 -194 rlineto
          48 hlineto
          14 120 rlineto
          79 hlineto
          154 89 98 147 hvcurveto
          hintmask 11101000
          104 -60 54 -102 vhcurveto
          -155 -360 rmoveto
          4 34 36 282 109 2 rlineto
          81 -4 38 -43 -76 vvcurveto
          -108 -60 -78 -96 -11 vhcurveto
          endchar
        </CharString>
        <CharString name="U">
          90 -5 43 601 -20 hstem
          75 47 vstem
          522 313 rmoveto
          42 326 rlineto
          -48 hlineto
          -48 -407 rlineto
          -127 -16 -69 -67 -112 hhcurveto
          -97 -52 52 99 16 1 15 2 16 hvcurveto
          53 403 rlineto
          -47 hlineto
          -39 -317 -13 -90 rlineto
          -3 -19 -1 -18 -17 vvcurveto
          -118 72 -65 122 142 86 88 152 16 vhcurveto
          endchar
        </CharString>
        <CharString name="Uacute">
          90 -5 43 601 -20 hstem
          75 47 vstem
          463 847 rmoveto
          -7 2 -67 -39 -58 -31 -59 -28 rlinecurve
          11 -25 7 -3 61 28 59 28 64 33 rlinecurve
          2 7 rlineto
          46 -506 rmoveto
          42 326 rlineto
          -48 hlineto
          -48 -407 rlineto
          -127 -16 -69 -67 -112 hhcurveto
          -97 -52 52 99 16 1 15 2 16 hvcurveto
          53 403 rlineto
          -47 hlineto
          -39 -317 -13 -90 rlineto
          -3 -19 -1 -18 -17 vvcurveto
          -118 72 -65 122 142 86 88 152 16 vhcurveto
          endchar
        </CharString>
        <CharString name="Ubreve">
          90 -5 43 601 -20 89 38 hstem
          75 47 128 28 vstem
          461 839 rmoveto
          -9 hlineto
          -64 -18 -32 -29 -48 hhcurveto
          -48 -25 29 64 -3 hvcurveto
          -8 hlineto
          -20 -21 rlineto
          -71 6 29 -39 67 hhcurveto
          61 40 38 72 23 hvcurveto
          46 -505 rmoveto
          42 326 rlineto
          -48 hlineto
          -48 -407 rlineto
          -127 -16 -69 -67 -112 hhcurveto
          -97 -52 52 99 16 1 15 2 16 hvcurveto
          53 403 rlineto
          -47 hlineto
          -39 -317 -13 -90 rlineto
          -3 -19 -1 -18 -17 vvcurveto
          -118 72 -65 122 142 86 88 152 16 vhcurveto
          endchar
        </CharString>
        <CharString name="Ucaron">
          90 -5 43 601 -20 hstem
          75 47 vstem
          472 856 rmoveto
          -7 hlineto
          -41 -38 -36 -35 -35 -38 -26 38 -27 35 -32 38 rrcurveto
          -7 hlineto
          -18 -21 33 -39 32 -43 32 -48 rlinecurve
          21 hlineto
          45 50 39 42 40 38 rrcurveto
          37 -522 rmoveto
          42 326 rlineto
          -48 hlineto
          -48 -407 rlineto
          -127 -16 -69 -67 -112 hhcurveto
          -97 -52 52 99 16 1 15 2 16 hvcurveto
          53 403 rlineto
          -47 hlineto
          -39 -317 -13 -90 rlineto
          -3 -19 -1 -18 -17 vvcurveto
          -118 72 -65 122 142 86 88 152 16 vhcurveto
          endchar
        </CharString>
        <CharString name="Ucircumflex">
          90 -5 43 601 -20 hstem
          75 47 vstem
          256 735 rmoveto
          7 hlineto
          37 22 35 22 35 24 29 -24 29 -22 32 -22 rrcurveto
          7 hlineto
          14 23 -34 26 -34 28 -31 29 rlinecurve
          -19 hlineto
          -36 -29 -38 -28 -42 -26 rrcurveto
          275 -445 rmoveto
          42 326 rlineto
          -48 hlineto
          -48 -407 rlineto
          -127 -16 -69 -67 -112 hhcurveto
          -97 -52 52 99 16 1 15 2 16 hvcurveto
          53 403 rlineto
          -47 hlineto
          -39 -317 -13 -90 rlineto
          -3 -19 -1 -18 -17 vvcurveto
          -118 72 -65 122 142 86 88 152 16 vhcurveto
          endchar
        </CharString>
        <CharString name="Udieresis">
          90 -5 43 601 -20 135 63 hstem
          75 47 134 62 93 62 vstem
          288 817 rmoveto
          -20 -12 -13 -19 -20 12 -11 19 19 12 12 20 18 -11 13 -19 hvcurveto
          155 -1 rmoveto
          -20 -12 -12 -20 -19 11 -12 20 18 13 13 20 18 -12 12 -18 hvcurveto
          79 -503 rmoveto
          42 326 rlineto
          -48 hlineto
          -48 -407 rlineto
          -127 -16 -69 -67 -112 hhcurveto
          -97 -52 52 99 16 1 15 2 16 hvcurveto
          53 403 rlineto
          -47 hlineto
          -39 -317 -13 -90 rlineto
          -3 -19 -1 -18 -17 vvcurveto
          -118 72 -65 122 142 86 88 152 16 vhcurveto
          endchar
        </CharString>
        <CharString name="Udieresisacute">
          90 -5 43 601 -20 115 61 hstem
          75 47 135 60 88 60 vstem
          470 943 rmoveto
          -6 4 -73 -28 -62 -20 -63 -17 rlinecurve
          6 -27 6 -4 66 17 63 17 68 21 rlinecurve
          4 7 rlineto
          -191 -118 rmoveto
          -19 -12 -12 -19 -18 11 -12 18 19 12 13 18 18 -11 12 -18 hvcurveto
          148 hmoveto
          -19 -12 -12 -19 -18 11 -12 18 19 12 13 18 18 -11 12 -18 hvcurveto
          86 -482 rmoveto
          42 326 rlineto
          -48 hlineto
          -48 -407 rlineto
          -127 -16 -69 -67 -112 hhcurveto
          -97 -52 52 99 16 1 15 2 16 hvcurveto
          53 403 rlineto
          -47 hlineto
          -39 -317 -13 -90 rlineto
          -3 -19 -1 -18 -17 vvcurveto
          -118 72 -65 122 142 86 88 152 16 vhcurveto
          endchar
        </CharString>
        <CharString name="Udieresiscaron">
          90 -5 43 601 -20 115 61 hstem
          75 47 135 60 88 60 vstem
          481 929 rmoveto
          -7 hlineto
          -38 -22 -35 -22 -34 -24 -30 24 -29 22 -31 22 rrcurveto
          -7 hlineto
          -14 -23 34 -26 34 -28 31 -29 rlinecurve
          19 hlineto
          36 29 38 28 41 26 rrcurveto
          -201 -111 rmoveto
          -19 -12 -12 -19 -18 11 -12 18 19 12 13 18 18 -11 12 -18 hvcurveto
          148 hmoveto
          -19 -12 -12 -19 -18 12 -12 18 18 12 13 18 18 -11 12 -18 hvcurveto
          86 -482 rmoveto
          42 326 rlineto
          -48 hlineto
          -48 -407 rlineto
          -127 -16 -69 -67 -112 hhcurveto
          -97 -52 52 99 16 1 15 2 16 hvcurveto
          53 403 rlineto
          -47 hlineto
          -39 -317 -13 -90 rlineto
          -3 -19 -1 -18 -17 vvcurveto
          -118 72 -65 122 142 86 88 152 16 vhcurveto
          endchar
        </CharString>
        <CharString name="Udieresisgrave">
          90 -5 43 601 -20 115 61 hstem
          75 47 128 61 87 61 vstem
          286 943 rmoveto
          -13 -30 4 -7 65 -21 61 -17 63 -17 rlinecurve
          7 4 9 27 -60 17 -61 20 -69 28 rlinecurve
          -7 -152 rmoveto
          -21 -14 -14 -21 -16 9 -10 17 20 15 14 21 16 -10 10 -16 hvcurveto
          148 hmoveto
          -21 -14 -14 -21 -16 9 -10 17 21 14 14 21 16 -10 10 -16 hvcurveto
          89 -482 rmoveto
          42 326 rlineto
          -48 hlineto
          -48 -407 rlineto
          -127 -16 -69 -67 -112 hhcurveto
          -97 -52 52 99 16 1 15 2 16 hvcurveto
          53 403 rlineto
          -47 hlineto
          -39 -317 -13 -90 rlineto
          -3 -19 -1 -18 -17 vvcurveto
          -118 72 -65 122 142 86 88 152 16 vhcurveto
          endchar
        </CharString>
        <CharString name="Udieresismacron">
          90 -5 43 601 -20 115 61 71 36 hstem
          75 47 148 60 88 60 vstem
          512 897 rmoveto
          -4 5 rlineto
          -248 hlineto
          -3 -31 5 -5 rlineto
          247 hlineto
          -208 -71 rmoveto
          -19 -12 -12 -19 -18 12 -12 18 18 12 13 18 18 -11 12 -18 hvcurveto
          148 hmoveto
          -19 -12 -12 -19 -18 12 -12 18 19 11 13 18 18 -11 12 -18 hvcurveto
          73 -482 rmoveto
          42 326 rlineto
          -48 hlineto
          -48 -407 rlineto
          -127 -16 -69 -67 -112 hhcurveto
          -97 -52 52 99 16 1 15 2 16 hvcurveto
          53 403 rlineto
          -47 hlineto
          -39 -317 -13 -90 rlineto
          -3 -19 -1 -18 -17 vvcurveto
          -118 72 -65 122 142 86 88 152 16 vhcurveto
          endchar
        </CharString>
        <CharString name="Udotbelow">
          90 -145 65 75 43 601 -20 hstem
          75 47 117 64 vstem
          522 313 rmoveto
          42 326 rlineto
          -48 hlineto
          -48 -407 rlineto
          -127 -16 -69 -67 -112 hhcurveto
          -97 -52 52 99 16 1 15 2 16 hvcurveto
          53 403 rlineto
          -47 hlineto
          -39 -317 -13 -90 rlineto
          -3 -19 -1 -18 -17 vvcurveto
          -118 72 -65 122 142 86 88 152 16 vhcurveto
          -241 -315 rmoveto
          -21 -12 -13 -20 -19 12 -13 19 20 13 14 20 19 -12 12 -19 hvcurveto
          endchar
        </CharString>
        <CharString name="Ugrave">
          90 -5 43 601 -20 hstem
          75 47 vstem
          276 848 rmoveto
          -14 -28 3 -7 63 -33 59 -27 62 -29 rlinecurve
          7 3 10 25 -58 29 -59 30 -67 39 rlinecurve
          240 -537 rmoveto
          42 326 rlineto
          -48 hlineto
          -48 -407 rlineto
          -127 -16 -69 -67 -112 hhcurveto
          -97 -52 52 99 16 1 15 2 16 hvcurveto
          53 403 rlineto
          -47 hlineto
          -39 -317 -13 -90 rlineto
          -3 -19 -1 -18 -17 vvcurveto
          -118 72 -65 122 142 86 88 152 16 vhcurveto
          endchar
        </CharString>
        <CharString name="Uhookabove">
          90 -5 43 601 -20 228 31 hstem
          75 47 251 34 vstem
          354 878 rmoveto
          -24 -27 -13 -22 -24 hvcurveto
          12 -20 rlineto
          16 19 21 8 16 hhcurveto
          16 10 -8 -13 -16 -18 -22 -32 -23 hvcurveto
          27 -48 25 13 -18 31 rlineto
          33 26 17 22 22 vvcurveto
          26 -23 21 -30 vhcurveto
          168 -565 rmoveto
          42 326 rlineto
          -48 hlineto
          -48 -407 rlineto
          -127 -16 -69 -67 -112 hhcurveto
          -97 -52 52 99 16 1 15 2 16 hvcurveto
          53 403 rlineto
          -47 hlineto
          -39 -317 -13 -90 rlineto
          -3 -19 -1 -18 -17 vvcurveto
          -118 72 -65 122 142 86 88 152 16 vhcurveto
          endchar
        </CharString>
        <CharString name="Uhorn">
          98 -5 43 601 -20 hstem
          75 47 478 39 vstem
          639 693 rmoveto
          43 -27 32 -16 -7 -9 -4 -6 -8 vhcurveto
          -3 -7 rlineto
          22 -23 9 -18 -19 vvcurveto
          -33 -24 -19 -40 vhcurveto
          -20 hlineto
          -48 -407 rlineto
          -127 -16 -69 -67 -112 hhcurveto
          -97 -52 52 99 16 1 15 2 16 hvcurveto
          53 403 rlineto
          -47 hlineto
          -39 -317 -13 -90 rlineto
          -3 -19 -1 -18 -17 vvcurveto
          -118 72 -65 122 142 86 88 152 16 vhcurveto
          9 78 38 297 rlineto
          49 8 30 32 43 vvcurveto
          endchar
        </CharString>
        <CharString name="Uhornacute">
          98 -5 43 601 -20 hstem
          75 47 478 39 vstem
          277 726 rmoveto
          7 -3 61 28 59 28 64 33 rlinecurve
          2 7 -13 28 -7 2 -67 -39 -58 -31 -59 -28 rlinecurve
          373 -58 rmoveto
          43 -27 32 -16 -7 -9 -4 -6 -8 vhcurveto
          -3 -7 rlineto
          22 -23 9 -18 -19 vvcurveto
          -33 -24 -19 -40 vhcurveto
          -20 hlineto
          -48 -407 rlineto
          -127 -16 -69 -67 -112 hhcurveto
          -97 -52 52 99 16 1 15 2 16 hvcurveto
          53 403 rlineto
          -47 hlineto
          -39 -317 -13 -90 rlineto
          -3 -19 -1 -18 -17 vvcurveto
          -118 72 -65 122 142 86 88 152 16 vhcurveto
          9 78 38 297 rlineto
          49 8 30 32 43 vvcurveto
          endchar
        </CharString>
        <CharString name="Uhorndotbelow">
          98 -146 65 76 43 601 -20 hstem
          75 47 106 64 308 39 vstem
          639 693 rmoveto
          43 -27 32 -16 -7 -9 -4 -6 -8 vhcurveto
          -3 -7 rlineto
          22 -23 9 -18 -19 vvcurveto
          -33 -24 -19 -40 vhcurveto
          -20 hlineto
          -48 -407 rlineto
          -127 -16 -69 -67 -112 hhcurveto
          -97 -52 52 99 16 1 15 2 16 hvcurveto
          53 403 rlineto
          -47 hlineto
          -39 -317 -13 -90 rlineto
          -3 -19 -1 -18 -17 vvcurveto
          -118 72 -65 122 142 86 88 152 16 vhcurveto
          9 78 38 297 rlineto
          49 8 30 32 43 vvcurveto
          -378 -774 rmoveto
          -21 -12 -13 -20 -19 12 -13 19 20 13 14 20 19 -12 12 -19 hvcurveto
          endchar
        </CharString>
        <CharString name="Uhorngrave">
          98 -5 43 601 -20 hstem
          75 47 478 39 vstem
          449 727 rmoveto
          10 25 -58 29 -59 30 -67 39 rlinecurve
          -6 -2 -14 -28 3 -7 63 -33 59 -27 62 -29 rlinecurve
          197 -31 rmoveto
          43 -27 32 -16 -7 -9 -4 -6 -8 vhcurveto
          -3 -7 rlineto
          22 -23 9 -18 -19 vvcurveto
          -33 -24 -19 -40 vhcurveto
          -20 hlineto
          -48 -407 rlineto
          -127 -16 -69 -67 -112 hhcurveto
          -97 -52 52 99 16 1 15 2 16 hvcurveto
          53 403 rlineto
          -47 hlineto
          -39 -317 -13 -90 rlineto
          -3 -19 -1 -18 -17 vvcurveto
          -118 72 -65 122 142 86 88 152 16 vhcurveto
          9 78 38 297 rlineto
          49 8 30 32 43 vvcurveto
          endchar
        </CharString>
        <CharString name="Uhornhookabove">
          98 -5 43 601 -20 228 31 hstem
          75 47 245 34 199 39 vstem
          341 847 rmoveto
          16 10 -8 -13 -16 -18 -22 -32 -23 hvcurveto
          27 -48 25 13 -18 31 rlineto
          33 26 17 22 22 vvcurveto
          26 -23 21 -30 -24 -27 -13 -22 -24 vhcurveto
          12 -20 rlineto
          16 19 21 8 16 hhcurveto
          298 -154 rmoveto
          43 -27 32 -16 -7 -9 -4 -6 -8 vhcurveto
          -3 -7 rlineto
          22 -23 9 -18 -19 vvcurveto
          -33 -24 -19 -40 vhcurveto
          -20 hlineto
          -48 -407 rlineto
          -127 -16 -69 -67 -112 hhcurveto
          -97 -52 52 99 16 1 15 2 16 hvcurveto
          53 403 rlineto
          -47 hlineto
          -39 -317 -13 -90 rlineto
          -3 -19 -1 -18 -17 vvcurveto
          -118 72 -65 122 142 86 88 152 16 vhcurveto
          9 78 38 297 rlineto
          49 8 30 32 43 vvcurveto
          endchar
        </CharString>
        <CharString name="Uhorntilde">
          98 -5 43 601 -20 130.5 39.5 -3 38.5 hstemhm
          75 47 478 39 hintmask 11011100
          227 742 rmoveto
          6 hlineto
          25 26 14 19 13 hhcurveto
          hintmask 11101100
          26 91 -33 -5 39 hvcurveto
          8 3 56 58 rlineto
          5 vlineto
          -16 18 rlineto
          -6 hlineto
          -25 -27 -14 -18 -13 hhcurveto
          hintmask 11011100
          -25 -91 32 5 -40 hvcurveto
          -7 -3 -57 -57 rlineto
          -6 vlineto
          429 -67 rmoveto
          43 -27 32 -16 -7 -9 -4 -6 -8 vhcurveto
          -3 -7 rlineto
          22 -23 9 -18 -19 vvcurveto
          -33 -24 -19 -40 vhcurveto
          -20 hlineto
          -48 -407 rlineto
          -127 -16 -69 -67 -112 hhcurveto
          -97 -52 52 99 16 1 15 2 16 hvcurveto
          53 403 rlineto
          -47 hlineto
          -39 -317 -13 -90 rlineto
          -3 -19 -1 -18 -17 vvcurveto
          -118 72 -65 122 142 86 88 152 16 vhcurveto
          9 78 38 297 rlineto
          49 8 30 32 43 vvcurveto
          endchar
        </CharString>
        <CharString name="Uhungarumlaut">
          90 -5 43 601 -20 hstem
          75 47 vstem
          245 720 rmoveto
          6 hlineto
          40 36 38 35 37 36 1 7 rcurveline
          -22 17 -7 1 -36 -40 -37 -36 -39 -38 rlinecurve
          155 -18 rmoveto
          6 hlineto
          39 36 39 35 37 36 1 7 rcurveline
          -23 17 -6 1 -36 -40 -37 -36 -39 -38 rlinecurve
          160 -425 rmoveto
          42 326 rlineto
          -48 hlineto
          -48 -407 rlineto
          -127 -16 -69 -67 -112 hhcurveto
          -97 -52 52 99 16 1 15 2 16 hvcurveto
          53 403 rlineto
          -47 hlineto
          -39 -317 -13 -90 rlineto
          -3 -19 -1 -18 -17 vvcurveto
          -118 72 -65 122 142 86 88 152 16 vhcurveto
          endchar
        </CharString>
        <CharString name="Umacron">
          90 -5 43 601 -20 149 36 hstem
          75 47 vstem
          511 800 rmoveto
          -4 4 rlineto
          -285 hlineto
          -3 -31 4 -5 rlineto
          285 hlineto
          14 -455 rmoveto
          42 326 rlineto
          -48 hlineto
          -48 -407 rlineto
          -127 -16 -69 -67 -112 hhcurveto
          -97 -52 52 99 16 1 15 2 16 hvcurveto
          53 403 rlineto
          -47 hlineto
          -39 -317 -13 -90 rlineto
          -3 -19 -1 -18 -17 vvcurveto
          -118 72 -65 122 142 86 88 152 16 vhcurveto
          endchar
        </CharString>
        <CharString name="Uogonek">
          89 -197 35 157 43 601 -20 hstem
          75 47 164 34 vstem
          564 639 rmoveto
          -48 hlineto
          -48 -407 rlineto
          -127 -16 -69 -67 -112 hhcurveto
          -97 -52 52 99 16 1 15 2 16 hvcurveto
          53 403 rlineto
          -47 hlineto
          -39 -317 -13 -90 rlineto
          -3 -19 -1 -18 -17 vvcurveto
          -118 72 -65 122 30 27 4 7 24 vhcurveto
          -43 -68 rlineto
          -14 -21 -7 -22 -20 vvcurveto
          -44 26 -28 41 34 30 21 34 28 vhcurveto
          -11 27 rlineto
          -4 hlineto
          -30 -20 -28 -17 -24 hhcurveto
          -25 -13 17 23 15 6 18 12 20 hvcurveto
          58 95 66 38 41 72 10 99 rlinecurve
          9 78 rlineto
          endchar
        </CharString>
        <CharString name="Uring">
          90 -5 43 601 -20 95 29 94 29 hstem
          75 47 166 28 97 28 vstem
          365 866 rmoveto
          -47 -30 -32 -44 -48 35 -28 40 41 37 28 49 40 -26 35 -50 hvcurveto
          -1 -29 rmoveto
          33 16 -21 -27 -30 -22 -16 -27 -27 -21 17 31 27 18 19 30 hvcurveto
          158 -524 rmoveto
          42 326 rlineto
          -48 hlineto
          -48 -407 rlineto
          -127 -16 -69 -67 -112 hhcurveto
          -97 -52 52 99 16 1 15 2 16 hvcurveto
          53 403 rlineto
          -47 hlineto
          -39 -317 -13 -90 rlineto
          -3 -19 -1 -18 -17 vvcurveto
          -118 72 -65 122 142 86 88 152 16 vhcurveto
          endchar
        </CharString>
        <CharString name="Utilde">
          90 -5 43 601 -20 130.5 39.5 -3 38.5 hstemhm
          75 47 hintmask 11101000
          512 814 rmoveto
          -16 18 rlineto
          -6 hlineto
          -25 -27 -14 -18 -13 hhcurveto
          hintmask 11011000
          -25 -91 32 5 -40 hvcurveto
          -7 -3 -57 -57 rlineto
          -6 vlineto
          17 -18 rlineto
          6 hlineto
          25 26 14 19 13 hhcurveto
          hintmask 11101000
          26 91 -33 -5 39 hvcurveto
          8 3 56 58 rlineto
          10 -496 rmoveto
          42 326 rlineto
          -48 hlineto
          -48 -407 rlineto
          -127 -16 -69 -67 -112 hhcurveto
          -97 -52 52 99 16 1 15 2 16 hvcurveto
          53 403 rlineto
          -47 hlineto
          -39 -317 -13 -90 rlineto
          -3 -19 -1 -18 -17 vvcurveto
          -118 72 -65 122 142 86 88 152 16 vhcurveto
          endchar
        </CharString>
        <CharString name="V">
          21 0 56 583 -20 hstem
          68 496 vstem
          255 hmoveto
          309 639 rlineto
          -49 hlineto
          -21 -55 -257 -528 rlineto
          -4 hlineto
          -108 529 -7 54 rlineto
          -50 hlineto
          132 -639 rlineto
          endchar
        </CharString>
        <CharString name="V.ss01">
          -39 0 27 -27 53 415 26 hstemhm
          -124 715 hintmask 10110000
          461 468 rmoveto
          127 hlineto
          3 26 rlineto
          -653 hlineto
          -3 -26 rlineto
          136 hlineto
          98 -441 rlineto
          -290 hlineto
          -3 -27 rlineto
          653 hlineto
          3 27 rlineto
          -295 hlineto
          180 441 rmoveto
          -9 -24 rlineto
          hintmask 01110000
          -200 -391 rlineto
          -3 hlineto
          -87 393 -3 22 rlineto
          endchar
        </CharString>
        <CharString name="W">
          342 0 59 580 -20 hstem
          73 810 vstem
          577 hmoveto
          306 639 rlineto
          -48 hlineto
          -20 -54 -251 -526 rlineto
          -6 hlineto
          -103 525 -7 55 rlineto
          -50 hlineto
          34 -164 -196 -416 rlineto
          -6 hlineto
          -103 528 -5 52 rlineto
          -49 hlineto
          124 -639 rlineto
          51 hlineto
          193 407 rlineto
          5 hlineto
          81 -407 rlineto
          endchar
        </CharString>
        <CharString name="Wacute">
          342 0 59 580 -20 hstem
          73 810 vstem
          568 847 rmoveto
          -7 2 -67 -39 -58 -31 -59 -28 rlinecurve
          11 -25 7 -3 61 28 59 28 64 33 rlinecurve
          2 7 rlineto
          -4 -819 rmoveto
          306 639 rlineto
          -47 hlineto
          -21 -54 -251 -526 rlineto
          -5 hlineto
          -104 525 -6 55 rlineto
          -51 hlineto
          34 -164 -196 -416 rlineto
          -5 hlineto
          -104 528 -5 52 rlineto
          -49 hlineto
          124 -639 rlineto
          51 hlineto
          193 407 rlineto
          5 hlineto
          82 -407 rlineto
          endchar
        </CharString>
        <CharString name="Wcircumflex">
          342 0 59 580 -20 hstem
          73 810 vstem
          361 735 rmoveto
          7 hlineto
          37 22 35 22 35 24 29 -24 29 -22 32 -22 rrcurveto
          7 hlineto
          14 23 -34 26 -34 28 -31 29 rlinecurve
          -19 hlineto
          -36 -29 -38 -28 -42 -26 rrcurveto
          225 -758 rmoveto
          306 639 rlineto
          -47 hlineto
          -21 -54 -251 -526 rlineto
          -5 hlineto
          -104 525 -6 55 rlineto
          -51 hlineto
          34 -164 -196 -416 rlineto
          -5 hlineto
          -104 528 -5 52 rlineto
          -49 hlineto
          124 -639 rlineto
          51 hlineto
          193 407 rlineto
          5 hlineto
          82 -407 rlineto
          endchar
        </CharString>
        <CharString name="Wdieresis">
          342 0 59 580 -20 135 63 hstem
          360 62 93 62 vstem
          392 817 rmoveto
          -20 -12 -13 -19 -20 12 -11 19 19 12 12 20 18 -11 13 -19 hvcurveto
          155 -1 rmoveto
          -20 -12 -12 -20 -19 11 -12 20 18 13 13 20 18 -12 12 -18 hvcurveto
          30 -816 rmoveto
          306 639 rlineto
          -47 hlineto
          -21 -54 -251 -526 rlineto
          -5 hlineto
          -104 525 -6 55 rlineto
          -51 hlineto
          34 -164 -196 -416 rlineto
          -5 hlineto
          -104 528 -5 52 rlineto
          -49 hlineto
          124 -639 rlineto
          51 hlineto
          193 407 rlineto
          5 hlineto
          82 -407 rlineto
          endchar
        </CharString>
        <CharString name="Wgrave">
          342 0 59 580 -20 hstem
          73 810 vstem
          380 848 rmoveto
          -14 -28 3 -7 63 -33 59 -27 62 -29 rlinecurve
          7 3 10 25 -58 29 -59 30 -67 39 rlinecurve
          191 -850 rmoveto
          306 639 rlineto
          -47 hlineto
          -21 -54 -251 -526 rlineto
          -5 hlineto
          -104 525 -6 55 rlineto
          -51 hlineto
          34 -164 -196 -416 rlineto
          -5 hlineto
          -104 528 -5 52 rlineto
          -49 hlineto
          124 -639 rlineto
          51 hlineto
          193 407 rlineto
          5 hlineto
          82 -407 rlineto
          endchar
        </CharString>
        <CharString name="X">
          49 21 -21 639 -20 hstem
          1 548 vstem
          315 329 rmoveto
          234 310 rlineto
          -55 hlineto
          -29 -45 -176 -230 -120 232 -17 43 rlineto
          -57 hlineto
          158 -309 -252 -330 rlineto
          54 hlineto
          28 41 194 253 131 -250 18 -44 rlineto
          56 hlineto
          endchar
        </CharString>
        <CharString name="X.ss01">
          -18 0 27 441 26 hstem
          -124 736 vstem
          269 256 rmoveto
          172 212 rlineto
          168 hlineto
          3 26 rlineto
          -674 hlineto
          -3 -26 rlineto
          158 hlineto
          121 -215 -184 -226 rlineto
          -151 hlineto
          -3 -27 rlineto
          674 hlineto
          3 27 rlineto
          -157 hlineto
          -149 258 rmoveto
          -96 169 -6 14 rlineto
          248 hlineto
          -11 -16 rlineto
          -146 -229 rmoveto
          101 -180 8 -16 rlineto
          -268 hlineto
          9 13 rlineto
          endchar
        </CharString>
        <CharString name="Y">
          -14 21 -21 639 -20 hstem
          210 44.5 vstem
          258 239 rmoveto
          258 400 rlineto
          -54 hlineto
          -16 -32 -200 -311 rlineto
          -6 hlineto
          -109 312 -7 31 rlineto
          -53 hlineto
          142 -401 -6 -47 -26 -191 rlineto
          48 hlineto
          22 191 rlineto
          endchar
        </CharString>
        <CharString name="Yacute">
          -14 21 -21 639 -20 hstem
          210.5 45 vstem
          231 726 rmoveto
          7 -3 61 28 59 28 64 33 rlinecurve
          2 7 -13 28 -7 2 -67 -39 -58 -31 -59 -28 rlinecurve
          39 -510 rmoveto
          257 398 rlineto
          -54 hlineto
          -17 -32 -199 -311 rlineto
          -7 hlineto
          -109 312 -7 31 rlineto
          -52 hlineto
          142 -404 -5 -44 -27 -191 rlineto
          48 hlineto
          23 191 rlineto
          endchar
        </CharString>
        <CharString name="Ycircumflex">
          -14 21 -21 639 -20 hstem
          210.5 45 vstem
          204 735 rmoveto
          7 hlineto
          37 22 35 22 35 24 29 -24 29 -22 32 -22 rrcurveto
          7 hlineto
          14 23 -34 26 -34 28 -31 29 rlinecurve
          -19 hlineto
          -36 -29 -38 -28 -42 -26 rrcurveto
          64 -517 rmoveto
          257 398 rlineto
          -54 hlineto
          -17 -32 -199 -311 rlineto
          -7 hlineto
          -109 312 -7 31 rlineto
          -52 hlineto
          142 -404 -5 -44 -27 -191 rlineto
          48 hlineto
          23 191 rlineto
          endchar
        </CharString>
        <CharString name="Ydieresis">
          -14 21 -21 639 -20 135 63 hstemhm
          204 62 -55.5 45 103.5 62 hintmask 00000000
          hintmask 11110100
          235 754 rmoveto
          19 12 12 20 18 -11 13 -19 -20 -12 -13 -19 -20 12 -11 19 hvcurveto
          155 -1 rmoveto
          18 13 13 20 18 -12 12 -18 -20 -12 -12 -20 -19 11 -12 20 hvcurveto
          hintmask 11101100
          -131 -512 rmoveto
          257 398 rlineto
          -54 hlineto
          -17 -32 -199 -311 rlineto
          -7 hlineto
          -109 312 -7 31 rlineto
          -52 hlineto
          142 -404 -5 -44 -27 -191 rlineto
          48 hlineto
          23 191 rlineto
          endchar
        </CharString>
        <CharString name="Ydotbelow">
          -14 -145 65 101 -21 639 -20 hstemhm
          164 64 -17.5 45 hintmask 11101000
          259 241 rmoveto
          257 398 rlineto
          -54 hlineto
          -17 -32 -199 -311 rlineto
          -7 hlineto
          -109 312 -7 31 rlineto
          -52 hlineto
          142 -404 -5 -44 -27 -191 rlineto
          48 hlineto
          23 191 rlineto
          hintmask 11110000
          -55 -271 rmoveto
          -21 -12 -13 -20 -19 12 -13 19 20 13 14 20 19 -12 12 -19 hvcurveto
          endchar
        </CharString>
        <CharString name="Ygrave">
          -14 21 -21 639 -20 hstem
          210.5 45 vstem
          403 727 rmoveto
          10 25 -58 29 -59 30 -67 39 rlinecurve
          -6 -2 -14 -28 3 -7 63 -33 59 -27 62 -29 rlinecurve
          -137 -483 rmoveto
          257 398 rlineto
          -54 hlineto
          -17 -32 -199 -311 rlineto
          -7 hlineto
          -109 312 -7 31 rlineto
          -52 hlineto
          142 -404 -5 -44 -27 -191 rlineto
          48 hlineto
          23 191 rlineto
          endchar
        </CharString>
        <CharString name="Yhookabove">
          -14 21 -21 639 -20 228 31 hstem
          210.5 45 65.5 34 vstem
          295 847 rmoveto
          16 10 -8 -13 -16 -18 -22 -32 -23 hvcurveto
          27 -48 25 13 -18 31 rlineto
          33 26 17 22 22 vvcurveto
          26 -23 21 -30 -24 -27 -13 -22 -24 vhcurveto
          12 -20 rlineto
          16 19 21 8 16 hhcurveto
          -36 -606 rmoveto
          257 398 rlineto
          -54 hlineto
          -17 -32 -199 -311 rlineto
          -7 hlineto
          -109 312 -7 31 rlineto
          -52 hlineto
          142 -404 -5 -44 -27 -191 rlineto
          48 hlineto
          23 191 rlineto
          endchar
        </CharString>
        <CharString name="Ytilde">
          -14 21 -21 639 -20 130.5 39.5 -3 38.5 hstemhm
          210.5 45 hintmask 11011000
          181 742 rmoveto
          6 hlineto
          25 26 14 19 13 hhcurveto
          hintmask 11101000
          26 91 -33 -5 39 hvcurveto
          8 3 56 58 rlineto
          5 vlineto
          -16 18 rlineto
          -6 hlineto
          -25 -27 -14 -18 -13 hhcurveto
          hintmask 11011000
          -25 -91 32 5 -40 hvcurveto
          -7 -3 -57 -57 rlineto
          -6 vlineto
          95 -519 rmoveto
          257 398 rlineto
          -54 hlineto
          -17 -32 -199 -311 rlineto
          -7 hlineto
          -109 312 -7 31 rlineto
          -52 hlineto
          142 -404 -5 -44 -27 -191 rlineto
          48 hlineto
          23 191 rlineto
          endchar
        </CharString>
        <CharString name="Z">
          -7 0 41 556 42 hstem
          4 499 vstem
          499 602 rmoveto
          4 38 -41 -1 rlineto
          -275 hlineto
          -82 1 -11 -41 4 -6 73 4 rlineto
          268 hlineto
          -430 -562 -5 -37 44 2 rlineto
          284 hlineto
          89 -1 10 41 -4 5 -77 -4 rlineto
          -282 hlineto
          endchar
        </CharString>
        <CharString name="Zacute">
          -7 0 41 556 42 hstem
          4 499 vstem
          383 847 rmoveto
          -7 2 -67 -39 -58 -31 -59 -28 rlinecurve
          11 -25 7 -3 61 28 59 28 64 33 rlinecurve
          2 7 rlineto
          102 -217 rmoveto
          5 38 -41 -1 rlineto
          -275 hlineto
          -82 1 -11 -41 4 -6 73 4 rlineto
          268 hlineto
          -430 -562 -5 -37 44 2 rlineto
          283 hlineto
          90 -1 10 41 -4 5 -78 -4 rlineto
          -281 hlineto
          endchar
        </CharString>
        <CharString name="Zcaron">
          -7 0 41 556 42 hstem
          4 499 vstem
          391 833 rmoveto
          -7 hlineto
          -37 -22 -35 -22 -35 -24 -29 24 -29 22 -32 22 rrcurveto
          -6 hlineto
          -14 -23 34 -26 33 -28 32 -29 rlinecurve
          19 hlineto
          36 29 37 28 42 26 rrcurveto
          98 -208 rmoveto
          5 38 -41 -1 rlineto
          -275 hlineto
          -82 1 -11 -41 4 -6 73 4 rlineto
          268 hlineto
          -430 -562 -5 -37 44 2 rlineto
          283 hlineto
          90 -1 10 41 -4 5 -78 -4 rlineto
          -281 hlineto
          endchar
        </CharString>
        <CharString name="Zdotaccent">
          -7 0 41 556 42 126 65 hstem
          253 64 vstem
          286 830 rmoveto
          -20 -13 -13 -20 -20 12 -12 20 20 12 13 20 20 -11 12 -20 hvcurveto
          212 -228 rmoveto
          5 38 -41 -1 rlineto
          -275 hlineto
          -82 1 -11 -41 4 -6 73 4 rlineto
          268 hlineto
          -430 -562 -5 -37 44 2 rlineto
          283 hlineto
          90 -1 10 41 -4 5 -78 -4 rlineto
          -281 hlineto
          endchar
        </CharString>
        <CharString name="a">
          -18 0 184 -38.5 38.5 260 50 hstemhm
          1 416 hintmask 00000000
          hintmask 10110000
          417 hmoveto
          -111 494 rlineto
          -53 hlineto
          -252 -494 rlineto
          47 hlineto
          hintmask 01110000
          19 46 51 99 106 1 118 -1 rlineto
          hintmask 10110000
          23 -101 4 -44 rlineto
          hintmask 01110000
          -36 184 rmoveto
          -196 hlineto
          133 260 rlineto
          4 hlineto
          endchar
        </CharString>
        <CharString name="a.sups">
          -195 340 40 233 31 -6 -20 hstemhm
          67 38 hintmask 00000000
          hintmask 11010000
          300 643 rmoveto
          -5 4 rlineto
          hintmask 10110000
          -26 -9 rlineto
          hintmask 11010000
          -47 6 rlineto
          -3 hlineto
          -100 -14 -52 -92 -101 vvcurveto
          -53 13 -27 36 -17 vhcurveto
          9 hlineto
          41 37 38 54 33 61 rrcurveto
          5 hlineto
          -19 -152 42 4 5 70 rlineto
          -141 -34 rmoveto
          -8 -16 18 53 86 41 75 69 1 hvcurveto
          41 -6 -3 -30 -3 -20 rlineto
          -113 -54 -57 -64 -10 hhcurveto
          endchar
        </CharString>
        <CharString name="aacute">
          -18 0 184 -38.5 38.5 260 50 hstemhm
          1 416 hintmask 01110000
          222 558 rmoveto
          7 -1 53 43 50 41 53 48 rlinecurve
          2 6 -20 25 -6 1 -56 -55 -49 -44 -50 -42 rlinecurve
          hintmask 10110000
          211 -580 rmoveto
          -112 494 rlineto
          -52 hlineto
          -252 -494 rlineto
          47 hlineto
          hintmask 01110000
          19 46 51 99 106 1 117 -1 rlineto
          hintmask 10110000
          23 -101 5 -44 rlineto
          hintmask 01110000
          -36 184 rmoveto
          -196 hlineto
          133 260 rlineto
          4 hlineto
          endchar
        </CharString>
        <CharString name="abreve">
          -18 0 184 -38.5 38.5 260 50 69 38 hstemhm
          181 28 hintmask 01111000
          283 563 rmoveto
          61 40 38 72 23 hvcurveto
          -15 21 rlineto
          -9 hlineto
          -64 -18 -32 -29 -48 hhcurveto
          -48 -25 29 64 -3 hvcurveto
          -8 hlineto
          -20 -21 rlineto
          -71 6 29 -39 67 hhcurveto
          hintmask 10111000
          134 -563 rmoveto
          -112 494 rlineto
          -52 hlineto
          -252 -494 rlineto
          47 hlineto
          hintmask 01111000
          19 46 51 99 106 1 117 -1 rlineto
          hintmask 10111000
          23 -101 5 -44 rlineto
          hintmask 01111000
          -36 184 rmoveto
          -196 hlineto
          133 260 rlineto
          4 hlineto
          endchar
        </CharString>
        <CharString name="abreveacute">
          -18 0 184 -38.5 38.5 260 50 68 37 44 -20 hstemhm
          1 416 hintmask 01111100
          276 660 rmoveto
          7 hlineto
          30 31 30 30 28 32 rrcurveto
          6 vlineto
          -23 17 rlineto
          -6 hlineto
          -28 -34 -28 -32 -29 -33 rrcurveto
          31 -115 rmoveto
          54 42 29 52 23 hvcurveto
          -15 19 rlineto
          -8 hlineto
          -40 -18 -33 -23 -44 hhcurveto
          -45 -27 23 40 -7 hvcurveto
          -9 hlineto
          -19 -19 rlineto
          -52 10 39 -29 57 hhcurveto
          hintmask 10111100
          129 -562 rmoveto
          -112 494 rlineto
          -52 hlineto
          -252 -494 rlineto
          47 hlineto
          hintmask 01111100
          19 46 51 99 106 1 117 -1 rlineto
          hintmask 10111100
          23 -101 5 -44 rlineto
          hintmask 01111100
          -36 184 rmoveto
          -196 hlineto
          133 260 rlineto
          4 hlineto
          endchar
        </CharString>
        <CharString name="abrevedotbelow">
          -18 -145 65 80 184 -38.5 38.5 260 50 69 38 hstemhm
          181 28 -25 64 hintmask 00111100
          283 563 rmoveto
          61 40 38 72 23 hvcurveto
          -15 21 rlineto
          -9 hlineto
          -64 -18 -32 -29 -48 hhcurveto
          -48 -25 29 64 -3 hvcurveto
          -8 hlineto
          -20 -21 rlineto
          -71 6 29 -39 67 hhcurveto
          hintmask 01011100
          134 -563 rmoveto
          -112 494 rlineto
          -52 hlineto
          -252 -494 rlineto
          47 hlineto
          hintmask 00111100
          19 46 51 99 106 1 117 -1 rlineto
          hintmask 01011100
          23 -101 5 -44 rlineto
          hintmask 10111010
          -36 184 rmoveto
          -196 hlineto
          133 260 rlineto
          4 hlineto
          -57 -524 rmoveto
          -21 -12 -13 -20 -19 12 -13 19 20 13 14 20 19 -12 12 -19 hvcurveto
          endchar
        </CharString>
        <CharString name="abrevegrave">
          -18 0 184 -38.5 38.5 260 50 68 37 44 -20 hstemhm
          1 416 hintmask 01111100
          306 660 rmoveto
          19 17 -30 33 -27 32 -28 34 rlinecurve
          -7 hlineto
          -23 -17 1 -6 28 -32 30 -30 30 -31 rlinecurve
          -10 -98 rmoveto
          54 42 29 52 23 hvcurveto
          -15 19 rlineto
          -9 hlineto
          -40 -17 -33 -23 -45 hhcurveto
          -45 -27 23 40 -7 hvcurveto
          -8 hlineto
          -20 -19 rlineto
          -52 10 40 -29 57 hhcurveto
          hintmask 10111100
          128 -562 rmoveto
          -112 494 rlineto
          -52 hlineto
          -252 -494 rlineto
          47 hlineto
          hintmask 01111100
          19 46 51 99 106 1 117 -1 rlineto
          hintmask 10111100
          23 -101 5 -44 rlineto
          hintmask 01111100
          -36 184 rmoveto
          -196 hlineto
          133 260 rlineto
          4 hlineto
          endchar
        </CharString>
        <CharString name="abrevehookabove">
          -18 0 184 -38.5 38.5 260 50 68 38 44 -20 78 -20 105 32 hstemhm
          316 33 hintmask 01111111
          290 787 rmoveto
          16 10 -7 -13 -16 -18 -23 -32 -22 hvcurveto
          26 -48 25 13 -17 31 rlineto
          33 26 16 22 22 vvcurveto
          26 -22 21 -31 -23 -27 -13 -22 -24 vhcurveto
          12 -20 rlineto
          15 18 21 8 17 hhcurveto
          -2 -225 rmoveto
          54 42 29 53 23 hvcurveto
          -15 18 rlineto
          -8 hlineto
          -40 -18 -33 -22 -44 hhcurveto
          -45 -27 22 40 -7 hvcurveto
          -9 hlineto
          -19 -18 rlineto
          -53 10 39 -29 57 hhcurveto
          hintmask 10111111
          129 -562 rmoveto
          -112 494 rlineto
          -52 hlineto
          -252 -494 rlineto
          47 hlineto
          hintmask 01111111
          19 46 51 99 106 1 117 -1 rlineto
          hintmask 10111111
          23 -101 5 -44 rlineto
          hintmask 01111111
          -36 184 rmoveto
          -196 hlineto
          133 260 rlineto
          4 hlineto
          endchar
        </CharString>
        <CharString name="abrevetilde">
          -18 0 184 -38.5 38.5 260 50 68 37 43 -20 88 38 -2 37.5 hstemhm
          1 449 hintmask 00000000
          hintmask 01111101
          450 774 rmoveto
          -16 17 rlineto
          -5 hlineto
          -24 -25 -14 -19 -12 hhcurveto
          hintmask 01111011
          -24 -85 32 5 -38 hvcurveto
          -7 -3 -54 -56 rlineto
          -6 vlineto
          16 -17 rlineto
          6 hlineto
          24 24 14 19 12 hhcurveto
          hintmask 10111101
          24 86 -33 -4 38 hvcurveto
          6 2 54 57 rlineto
          -65 -107 rmoveto
          -9 hlineto
          -40 -17 -32 -22 -44 hhcurveto
          -45 -27 22 40 -7 hvcurveto
          -8 hlineto
          -19 -19 rlineto
          -51 10 38 -29 57 hhcurveto
          53 41 29 51 24 hvcurveto
          -95 -148 rmoveto
          -52 hlineto
          -252 -494 rlineto
          47 hlineto
          hintmask 01111011
          19 46 51 99 106 1 117 -1 rlineto
          hintmask 10111011
          23 -101 5 -44 rlineto
          48 hlineto
          hintmask 01111011
          -84 184 rmoveto
          -196 hlineto
          133 260 rlineto
          4 hlineto
          endchar
        </CharString>
        <CharString name="acaron">
          -18 0 184 -38.5 38.5 260 50 217 -20 hstemhm
          1 416 hintmask 01111000
          291 560 rmoveto
          45 50 39 42 40 38 -13 21 rcurveline
          -7 hlineto
          -41 -38 -36 -35 -35 -38 -26 38 -27 35 -32 38 rrcurveto
          -7 hlineto
          -18 -21 33 -39 32 -43 32 -48 rlinecurve
          hintmask 10111000
          147 -560 rmoveto
          -112 494 rlineto
          -52 hlineto
          -252 -494 rlineto
          47 hlineto
          hintmask 01111000
          19 46 51 99 106 1 117 -1 rlineto
          hintmask 10111000
          23 -101 5 -44 rlineto
          hintmask 01111000
          -36 184 rmoveto
          -196 hlineto
          133 260 rlineto
          4 hlineto
          endchar
        </CharString>
        <CharString name="acircumflex">
          -18 0 184 -38.5 38.5 260 50 172 40 0 -20 hstemhm
          1 416 hintmask 01101100
          185 555 rmoveto
          7 hlineto
          hintmask 10110100
          42 37 35 36 36 38 26 -38 27 -36 32 -37 rrcurveto
          7 hlineto
          17 21 -32 39 -31 42 -32 49 rlinecurve
          -20 hlineto
          -46 -50 -40 -42 -40 -38 rrcurveto
          244 -576 rmoveto
          -112 494 rlineto
          -52 hlineto
          -252 -494 rlineto
          47 hlineto
          hintmask 01101100
          19 46 51 99 106 1 117 -1 rlineto
          hintmask 10101100
          23 -101 5 -44 rlineto
          hintmask 01101100
          -36 184 rmoveto
          -196 hlineto
          133 260 rlineto
          4 hlineto
          endchar
        </CharString>
        <CharString name="acircumflexacute">
          -18 0 184 -38.5 38.5 260 50 100 -20 hstemhm
          1 439 hintmask 01111000
          362 667 rmoveto
          42 44 36 46 -7 9 -21 9 -43 -46 -24 -52 rlineto
          -167 -106 rmoveto
          7 hlineto
          37 22 35 22 35 24 29 -24 29 -22 32 -22 rrcurveto
          6 hlineto
          14 23 -34 26 -33 28 -31 29 rlinecurve
          -19 hlineto
          -36 -29 -38 -28 -42 -26 rrcurveto
          136 -100 rmoveto
          -52 hlineto
          hintmask 10111000
          -252 -494 rlineto
          47 hlineto
          hintmask 01111000
          19 46 51 99 106 1 117 -1 rlineto
          hintmask 10111000
          23 -101 5 -44 rlineto
          48 hlineto
          hintmask 01111000
          -84 184 rmoveto
          -196 hlineto
          133 260 rlineto
          4 hlineto
          endchar
        </CharString>
        <CharString name="acircumflexdotbelow">
          -18 -145 65 80 184 -38.5 38.5 260 50 172 40 0 -20 hstemhm
          184 64 hintmask 10110110
          185 555 rmoveto
          7 hlineto
          hintmask 11011010
          42 37 35 36 36 38 26 -38 27 -36 32 -37 rrcurveto
          7 hlineto
          17 21 -32 39 -31 42 -32 49 rlinecurve
          -20 hlineto
          -46 -50 -40 -42 -40 -38 rrcurveto
          244 -576 rmoveto
          -112 494 rlineto
          -52 hlineto
          -252 -494 rlineto
          47 hlineto
          hintmask 10110110
          19 46 51 99 106 1 117 -1 rlineto
          hintmask 11010110
          23 -101 5 -44 rlineto
          hintmask 10110110
          -36 184 rmoveto
          -196 hlineto
          133 260 rlineto
          4 hlineto
          -57 -524 rmoveto
          -21 -12 -13 -20 -19 12 -13 19 20 13 14 20 19 -12 12 -19 hvcurveto
          endchar
        </CharString>
        <CharString name="acircumflexgrave">
          -18 0 184 -38.5 38.5 260 50 100 -20 hstemhm
          1 416 hintmask 01111000
          351 710 rmoveto
          43 -43 16 10 -24 51 -43 47 -21 -10 -7 -8 rlineto
          -134 -186 rmoveto
          7 hlineto
          37 22 35 22 35 24 29 -24 29 -22 32 -22 rrcurveto
          7 hlineto
          14 23 -34 26 -34 28 -31 29 rlinecurve
          -19 hlineto
          -36 -29 -38 -28 -41 -26 rrcurveto
          hintmask 10111000
          244 -594 rmoveto
          -112 494 rlineto
          -52 hlineto
          -252 -494 rlineto
          47 hlineto
          hintmask 01111000
          19 46 51 99 106 1 117 -1 rlineto
          hintmask 10111000
          23 -101 5 -44 rlineto
          hintmask 01111000
          -36 184 rmoveto
          -196 hlineto
          133 260 rlineto
          4 hlineto
          endchar
        </CharString>
        <CharString name="acircumflexhookabove">
          -18 0 184 -38.5 38.5 260 50 101 -20 202 31 hstemhm
          397 32 hintmask 01111100
          372 777 rmoveto
          15 10 -7 -12 -15 -17 -22 -31 -21 hvcurveto
          25 -45 24 12 -16 29 rlineto
          31 25 16 21 21 vvcurveto
          25 -21 20 -30 -22 -26 -13 -21 -23 vhcurveto
          12 -18 rlineto
          14 18 20 7 15 hhcurveto
          -193 -206 rmoveto
          7 hlineto
          37 23 35 22 35 23 29 -23 29 -22 32 -23 rrcurveto
          7 hlineto
          14 24 -34 26 -34 28 -31 28 rlinecurve
          -19 hlineto
          -36 -28 -38 -28 -41 -26 rrcurveto
          134 -101 rmoveto
          -52 hlineto
          hintmask 10111100
          -252 -494 rlineto
          47 hlineto
          hintmask 01111100
          19 46 51 99 106 1 117 -1 rlineto
          hintmask 10111100
          23 -101 5 -44 rlineto
          48 hlineto
          hintmask 01111100
          -84 184 rmoveto
          -196 hlineto
          133 260 rlineto
          4 hlineto
          endchar
        </CharString>
        <CharString name="acircumflextilde">
          -18 0 184 -38.5 38.5 260 50 102 -20 134 38 -2 37.5 hstemhm
          1 460 hintmask 01111010
          461 774 rmoveto
          -15 17 rlineto
          -6 hlineto
          -24 -24 -14 -19 -12 hhcurveto
          hintmask 01110110
          -24 -86 32 5 -38 hvcurveto
          -7 -3 -53 -56 rlineto
          -6 vlineto
          16 -17 rlineto
          5 hlineto
          24 25 13 19 13 hhcurveto
          hintmask 10111010
          24 86 -33 -4 37 hvcurveto
          7 2 53 57 rlineto
          -163 -127 rmoveto
          29 -23 29 -23 32 -22 rrcurveto
          6 hlineto
          14 23 -34 26 -33 29 -31 28 rlinecurve
          -19 hlineto
          -36 -28 -38 -29 -42 -26 9 -23 rcurveline
          7 hlineto
          37 22 35 23 35 23 rrcurveto
          7 -147 rmoveto
          -52 hlineto
          -252 -494 rlineto
          47 hlineto
          hintmask 01111010
          19 46 51 99 106 1 117 -1 rlineto
          hintmask 10111010
          23 -101 5 -44 rlineto
          48 hlineto
          hintmask 01111010
          -84 184 rmoveto
          -196 hlineto
          133 260 rlineto
          4 hlineto
          endchar
        </CharString>
        <CharString name="acute">
          518 164 hstem
          150 181 vstem
          311 681 rmoveto
          -6 1 -56 -55 -49 -44 -50 -42 rlinecurve
          16 -22 7 -1 53 43 50 41 53 48 rlinecurve
          2 6 rlineto
          endchar
        </CharString>
        <CharString name="acute.cap">
          539 126 hstem
          138 204 vstem
          329 663 rmoveto
          -7 2 -67 -39 -58 -31 -59 -28 rlinecurve
          11 -25 7 -3 61 28 59 28 64 33 rlinecurve
          2 7 rlineto
          endchar
        </CharString>
        <CharString name="adieresis">
          -18 0 184 -38.5 38.5 260 50 115 63 hstemhm
          186 62 93 62 hintmask 01111100
          217 609 rmoveto
          19 12 12 20 18 -11 13 -19 -20 -12 -13 -19 -20 12 -11 19 hvcurveto
          155 -1 rmoveto
          18 13 13 20 18 -12 12 -18 -20 -12 -12 -20 -19 11 -12 20 hvcurveto
          hintmask 10111100
          45 -608 rmoveto
          -112 494 rlineto
          -52 hlineto
          -252 -494 rlineto
          47 hlineto
          hintmask 01111100
          19 46 51 99 106 1 117 -1 rlineto
          hintmask 10111100
          23 -101 5 -44 rlineto
          hintmask 01111100
          -36 184 rmoveto
          -196 hlineto
          133 260 rlineto
          4 hlineto
          endchar
        </CharString>
        <CharString name="adotbelow">
          -18 -145 65 80 184 -38.5 38.5 260 50 hstemhm
          184 64 hintmask 00000000
          hintmask 11011000
          417 hmoveto
          -112 494 rlineto
          -52 hlineto
          -252 -494 rlineto
          47 hlineto
          hintmask 10111000
          19 46 51 99 106 1 117 -1 rlineto
          hintmask 11011000
          23 -101 5 -44 rlineto
          hintmask 10111000
          -36 184 rmoveto
          -196 hlineto
          133 260 rlineto
          4 hlineto
          -57 -524 rmoveto
          -21 -12 -13 -20 -19 12 -13 19 20 13 14 20 19 -12 12 -19 hvcurveto
          endchar
        </CharString>
        <CharString name="ae">
          164 0 39 405 50 -37 37 hstemhm
          330.5 44 -35.5 43 hintmask 10110000
          609 37 rmoveto
          -3 4 rlineto
          hintmask 10101000
          -129 -2 rlineto
          -92 hlineto
          -6 175 179 32 3 37 -4 3 rlineto
          hintmask 10110000
          -179 -33 -7 204 rlineto
          79 hlineto
          129 -4 10 36 -3 5 rlineto
          -271 hlineto
          -339 -494 rlineto
          49 hlineto
          24 45 83 121 rlineto
          hintmask 10101000
          204 40 6 -162 -3 -44 rlineto
          261 hlineto
          hintmask 11010000
          -266 245 rmoveto
          -171 -33 160 232 rlineto
          4 hlineto
          endchar
        </CharString>
        <CharString name="aeacute">
          164 0 39 405 50 -37 37 hstemhm
          331.5 43.5 -35 42.5 hintmask 10110000
          388 558 rmoveto
          7 -1 53 43 50 41 53 48 rlinecurve
          2 6 -20 25 -6 1 -56 -55 -49 -44 -50 -42 rlinecurve
          237 -543 rmoveto
          -2 4 rlineto
          hintmask 10101000
          -130 -2 rlineto
          -92 hlineto
          -5 176 177 31 4 37 -4 3 rlineto
          hintmask 10110000
          -179 -33 -6 204 rlineto
          78 hlineto
          129 -4 11 36 -3 5 rlineto
          -272 hlineto
          -338 -494 rlineto
          48 hlineto
          24 45 83 121 rlineto
          hintmask 10101000
          205 41 6 -163 -4 -44 rlineto
          261 hlineto
          hintmask 11010000
          -265 245 rmoveto
          -171 -33 160 232 rlineto
          4 hlineto
          endchar
        </CharString>
        <CharString name="agrave">
          -18 0 184 -38.5 38.5 260 50 hstemhm
          1 416 hintmask 01110000
          359 558 rmoveto
          16 22 -50 42 -49 44 -55 55 rlinecurve
          -7 -1 -19 -25 1 -6 53 -48 50 -41 53 -43 rlinecurve
          hintmask 10110000
          65 -557 rmoveto
          -112 494 rlineto
          -52 hlineto
          -252 -494 rlineto
          47 hlineto
          hintmask 01110000
          19 46 51 99 106 1 117 -1 rlineto
          hintmask 10110000
          23 -101 5 -44 rlineto
          hintmask 01110000
          -36 184 rmoveto
          -196 hlineto
          133 260 rlineto
          4 hlineto
          endchar
        </CharString>
        <CharString name="ahookabove">
          -18 0 184 -38.5 38.5 260 50 91 -20 137 31 hstemhm
          304 34 hintmask 01111100
          278 702 rmoveto
          16 10 -8 -13 -16 -18 -22 -32 -23 hvcurveto
          27 -48 25 13 -18 31 rlineto
          33 26 17 22 22 vvcurveto
          26 -23 21 -30 -24 -27 -13 -22 -24 vhcurveto
          12 -20 rlineto
          16 19 21 8 16 hhcurveto
          hintmask 10111100
          139 -702 rmoveto
          -112 494 rlineto
          -52 hlineto
          -252 -494 rlineto
          47 hlineto
          hintmask 01111100
          19 46 51 99 106 1 117 -1 rlineto
          hintmask 10111100
          23 -101 5 -44 rlineto
          hintmask 01111100
          -36 184 rmoveto
          -196 hlineto
          133 260 rlineto
          4 hlineto
          endchar
        </CharString>
        <CharString name="amacron">
          -18 0 184 -38.5 38.5 260 50 129 36 hstemhm
          1 440 hintmask 01111000
          441 655 rmoveto
          -4 4 rlineto
          -285 hlineto
          -3 -31 4 -5 rlineto
          285 hlineto
          -133 -129 rmoveto
          -52 hlineto
          hintmask 10111000
          -252 -494 rlineto
          47 hlineto
          hintmask 01111000
          19 46 51 99 106 1 117 -1 rlineto
          hintmask 10111000
          23 -101 5 -44 rlineto
          48 hlineto
          hintmask 01111000
          -84 184 rmoveto
          -196 hlineto
          133 260 rlineto
          4 hlineto
          endchar
        </CharString>
        <CharString name="ampersand">
          255 -10 39 222 38 -2 38 138 37 211 -20 hstemhm
          56 43 210 36 214 39 hintmask 11011111
          807 361 rmoveto
          -7 -2 rlineto
          -48 -18 -28 -22 -42 hhcurveto
          hintmask 10111111
          -55 -117 36 -50 hhcurveto
          -54 -4 -29 -26 -25 -53 14 -26 rcurveline
          7 1 rlineto
          49 20 28 21 40 hhcurveto
          16 25 -4 -6 27 hvcurveto
          -149 4 -102 -99 -149 hhcurveto
          -115 -74 69 106 -19 hvcurveto
          231 82 227 197 87 192 -4 14 -6 11 -10 11 rrcurveto
          -5 hlineto
          -56 -127 -105 -121 -127 -93 rrcurveto
          6 16 3 16 12 vvcurveto
          50 -41 36 -65 -101 -82 -97 -146 -161 98 -106 155 173 115 112 167 1 vhcurveto
          hintmask 11011111
          -9 43 44 -9 29 hhcurveto
          53 4 29 26 25 54 rrcurveto
          -582 128 rmoveto
          39 28 -19 -34 3 hvcurveto
          2 -22 -8 -36 -39 -30 -53 -32 -55 -27 -56 -21 -1 20 rcurveline
          122 60 79 80 vhcurveto
          endchar
        </CharString>
        <CharString name="aogonek">
          -18 -196 36 181 -21 145.5 38.5 260 50 hstem
          276 37 vstem
          413 -112 rmoveto
          -4 hlineto
          -30 -22 -21 -18 -24 hhcurveto
          -14 -15 7 22 27 21 29 76 75 hvcurveto
          7 hlineto
          -112 494 rlineto
          -52 hlineto
          -252 -494 rlineto
          47 hlineto
          19 46 51 99 106 1 117 -1 23 -101 5 -44 rlineto
          -83 -86 -10 -27 -27 vvcurveto
          -39 28 -17 30 32 27 21 33 25 vhcurveto
          -85 326 rmoveto
          -196 hlineto
          133 260 rlineto
          4 hlineto
          endchar
        </CharString>
        <CharString name="approxequal">
          -19 149 41 5 42 67 40 5 40.5 hstemhm
          72 380 hintmask 00000000
          hintmask 10011000
          178 349 rmoveto
          hintmask 10101000
          32 114 -41 -5 47 hvcurveto
          8 2 72 64 1 6 -12 18 rlineto
          -8 hlineto
          -30 -33 -20 -19 -15 hhcurveto
          hintmask 10011000
          -31 -115 41 6 -47 hvcurveto
          -8 -3 -72 -63 rlineto
          -7 vlineto
          12 -17 rlineto
          8 hlineto
          28 33 19 20 15 hhcurveto
          hintmask 01101000
          -19 -154 rmoveto
          hintmask 10101000
          32 114 -42 -5 47 hvcurveto
          8 2 73 64 rlineto
          6 vlineto
          -12 18 rlineto
          -7 hlineto
          -29 -34 -20 -19 -15 hhcurveto
          hintmask 01101000
          -31 -115 40 7 -46 hvcurveto
          -9 -4 -72 -63 rlineto
          -6 vlineto
          12 -18 rlineto
          8 hlineto
          29 33 19 20 15 hhcurveto
          endchar
        </CharString>
        <CharString name="aring">
          -18 0 184 -38.5 38.5 260 50 75 29 94 29 hstemhm
          218 28 97 28 hintmask 01111110
          293 569 rmoveto
          41 37 28 49 40 -26 35 -50 -47 -30 -32 -44 -48 35 -28 40 hvcurveto
          1 123 rmoveto
          33 16 -21 -27 -30 -22 -16 -27 -27 -21 17 31 27 18 19 30 hvcurveto
          hintmask 10111110
          123 -692 rmoveto
          -112 494 rlineto
          -52 hlineto
          -252 -494 rlineto
          47 hlineto
          hintmask 01111110
          19 46 51 99 106 1 117 -1 rlineto
          hintmask 10111110
          23 -101 5 -44 rlineto
          hintmask 01111110
          -36 184 rmoveto
          -196 hlineto
          133 260 rlineto
          4 hlineto
          endchar
        </CharString>
        <CharString name="aringacute">
          -18 0 184 -38.5 38.5 260 50 54 28 94 29 hstemhm
          212 28 97 28 hintmask 01111110
          423 781 rmoveto
          -9 30 -7 3 -72 -28 -63 -20 -62 -18 rlinecurve
          6 -26 7 -5 65 19 63 17 68 22 rlinecurve
          -54 -151 rmoveto
          40 -27 35 -49 -48 -29 -31 -44 -49 35 -27 40 41 37 27 49 vhcurveto
          -125 hmoveto
          28 18 18 30 32 17 -21 -26 -31 -22 -16 -27 -27 -21 17 31 vhcurveto
          65 -130 rmoveto
          -52 hlineto
          hintmask 10111110
          -252 -494 rlineto
          47 hlineto
          hintmask 01111110
          19 46 51 99 106 1 117 -1 rlineto
          hintmask 10111110
          23 -101 5 -44 rlineto
          48 hlineto
          hintmask 01111110
          -84 184 rmoveto
          -196 hlineto
          133 260 rlineto
          4 hlineto
          endchar
        </CharString>
        <CharString name="arrowdown">
          8 19 -21 458 -20 23 -20 hstemhm
          235 36 hintmask 10110000
          452 190 rmoveto
          -10 28 rlineto
          -9 hlineto
          -163 -158 rlineto
          hintmask 11010000
          2 396 rlineto
          hintmask 10110000
          -34 3 -4 -4 2 -395 -162 158 rlineto
          -9 hlineto
          -10 -28 195 -192 rlineto
          7 hlineto
          endchar
        </CharString>
        <CharString name="arrowdownleft">
          8 62 34.5 hstem
          102.5 34 vstem
          389 95 rmoveto
          -227 3 281 279 -22 25 rlineto
          -5 hlineto
          -278 -280 -3 227 -7 6 -27 -13 3 -273 5 -6 273 -2 13 27 rlineto
          endchar
        </CharString>
        <CharString name="arrowdownright">
          8 60.5 34 hstem
          368.5 33.5 vstem
          403 340 rmoveto
          -27 13 -6 -6 -3 -228 -279 282 -26 -22 rlineto
          -5 vlineto
          280 -278 -226 -3 -6 -6 12 -28 274 3 5 5 rlineto
          endchar
        </CharString>
        <CharString name="arrowleft">
          8 211.5 35.5 hstem
          22 460 vstem
          479 211 rmoveto
          3 33 -3 4 -396 -2 159 163 rlineto
          9 vlineto
          -28 10 -192 -195 rlineto
          -8 vlineto
          192 -195 28 11 rlineto
          9 vlineto
          -159 162 rlineto
          endchar
        </CharString>
        <CharString name="arrowright">
          8 212.5 35.5 hstem
          23 460 vstem
          483 235 rmoveto
          -191 194 -29 -10 rlineto
          -9 vlineto
          160 -163 -397 2 -3 -34 4 -3 394 1 -158 -162 rlineto
          -9 vlineto
          29 -10 191 195 rlineto
          endchar
        </CharString>
        <CharString name="arrowup">
          8 22 -21 460 -20 hstem
          234.5 36 vstem
          451 269 rmoveto
          -195 192 rlineto
          -8 hlineto
          -194 -192 10 -28 rlineto
          9 hlineto
          162 158 -1 -396 34 -2 3 3 -1 394 162 -157 rlineto
          9 hlineto
          endchar
        </CharString>
        <CharString name="arrowupleft">
          8 363 34 hstem
          103 33.5 vstem
          443 84 rmoveto
          -280 277 226 4 6 6 -12 27 -274 -2 -5 -6 -2 -273 27 -13 6 7 3 227 279 -282 26 22 rlineto
          endchar
        </CharString>
        <CharString name="arrowupright">
          8 364.5 33.5 hstem
          369.5 34 vstem
          405 118 rmoveto
          -3 274 -5 5 -273 2 -13 -27 6 -6 228 -3 -282 -279 22 -26 rlineto
          5 hlineto
          278 280 3 -226 7 -6 rlineto
          endchar
        </CharString>
        <CharString name="asciicircum">
          -85 448 41 hstem
          10 370 vstem
          380 127 rmoveto
          -112 362 rlineto
          -42 hlineto
          -7 -4 -209 -360 27 -12 7 3 194 332 rlineto
          5 hlineto
          102 -335 31 8 rlineto
          endchar
        </CharString>
        <CharString name="asciitilde">
          -20 223 41 5 42 hstemhm
          62 361 hintmask 00000000
          hintmask 01100000
          149 269 rmoveto
          hintmask 10100000
          32 114 -42 -5 46 hvcurveto
          9 2 72 64 1 6 -12 18 rlineto
          -8 hlineto
          -29 -34 -19 -19 -15 hhcurveto
          hintmask 01100000
          -31 -115 40 7 -47 hvcurveto
          -8 -4 -72 -63 rlineto
          -6 vlineto
          12 -18 rlineto
          7 hlineto
          29 34 19 20 15 hhcurveto
          endchar
        </CharString>
        <CharString name="asterisk">
          -130 589 -20 72 -20 hstem
          214 27 vstem
          257 719 rmoveto
          -3 5 rlineto
          -12 -14 -2 -4 -13 hvcurveto
          -2 -112 5 -5 23 2 rlineto
          -45 -14 rmoveto
          -101 52 -5 -2 rlineto
          -4 -11 -2 -16 -12 vvcurveto
          101 -37 7 3 rlineto
          70 26 rmoveto
          -4 -6 10 -22 111 21 2 3 -3 13 -7 12 -7 11 rlinecurve
          -101 -84 rmoveto
          -6 1 -17 -15 52 -104 5 -1 10 7 10 9 7 12 rlinecurve
          -108 81 rmoveto
          -20 10 -80 -84 1 -4 11 -7 12 -8 12 -4 rlinecurve
          63 89 rlineto
          endchar
        </CharString>
        <CharString name="at">
          314 -191 33 152 54 -52 38 -19 -21 23 -21 426 39 -3 -20 129 35 hstemhm
          40 37 149 42 473 37 hintmask 1000101111100000
          778 291 rmoveto
          186 -129 125 -200 -246 -163 -168 -245 -231 163 -145 242 -4 vhcurveto
          18 27 -1 6 rlineto
          -233 -152 132 222 217 147 153 221 1 hvcurveto
          183 1 113 -112 -166 vvcurveto
          hintmask 1010001111100000
          -149 -83 -91 -148 -16 vhcurveto
          5 74 48 350 -7 4 rlineto
          hintmask 1001010111100000
          -30 -15 -64 14 rlineto
          -4 hlineto
          -152 -17 -80 -146 -155 vvcurveto
          -79 21 -42 42 -28 vhcurveto
          13 hlineto
          65 60 64 88 54 97 rrcurveto
          7 hlineto
          hintmask 1000101111100000
          -33 -243 rlineto
          205 10 114 103 182 vvcurveto
          hintmask 1100010111100000
          -474 -243 rmoveto
          -13 -23 24 83 140 68 125 116 2 hvcurveto
          61 -14 -4 -48 -2 -17 rlineto
          -190 -89 -97 -105 -17 hhcurveto
          endchar
        </CharString>
        <CharString name="atilde">
          -18 0 184 -38.5 38.5 260 50 147 38.5 -35.5 -20 hstemhm
          1 441 hintmask 01101100
          442 669 rmoveto
          -16 18 rlineto
          -6 hlineto
          -25 -27 -14 -18 -13 hhcurveto
          -25 -91 32 5 -40 hvcurveto
          -7 -3 rlineto
          hintmask 01110100
          -57 -57 rlineto
          -6 vlineto
          17 -18 rlineto
          6 hlineto
          25 26 14 19 13 hhcurveto
          26 91 -33 -5 39 hvcurveto
          8 3 rlineto
          hintmask 01101100
          56 58 rlineto
          -137 -170 rmoveto
          -52 hlineto
          hintmask 10101100
          -252 -494 rlineto
          47 hlineto
          hintmask 01101100
          19 46 51 99 106 1 117 -1 rlineto
          hintmask 10101100
          23 -101 5 -44 rlineto
          48 hlineto
          hintmask 01101100
          -84 184 rmoveto
          -196 hlineto
          133 260 rlineto
          4 hlineto
          endchar
        </CharString>
        <CharString name="b">
          -54 -2 36 201.5 37.5 185 37 hstemhm
          334 49 -43 47 hintmask 11101000
          291 258 rmoveto
          hintmask 11110000
          57 23 35 44 66 vvcurveto
          67 -48 37 -81 vhcurveto
          -122 -1 -42 -344 -21 -150 rlineto
          -2 33 44 0 28 hhcurveto
          hintmask 11101000
          137 76 53 101 59 -36 35 -60 12 hvcurveto
          hintmask 11110000
          43 126 rmoveto
          -61 -32 -39 -60 -12 vhcurveto
          -93 2 23 184 rlineto
          71 hlineto
          60 31 -26 -48 hvcurveto
          hintmask 11101000
          -153 -350 rmoveto
          -19 -23 1 2 -20 hvcurveto
          14 117 11 81 100 1 rlineto
          63 -7 33 -28 -50 vvcurveto
          -74 -58 -43 -101 vhcurveto
          endchar
        </CharString>
        <CharString name="b.sups">
          -194 340 31 232 40 0 -20 hstemhm
          270 38 hintmask 10110000
          249 643 rmoveto
          -40 -37 -40 -55 -34 -61 rrcurveto
          -5 hlineto
          43 319 -43 -5 -5 -62 -51 -388 40 -7 37 -7 rlineto
          3 hlineto
          100 13 54 92 104 vvcurveto
          51 -14 25 -35 18 vhcurveto
          -142 -261 rmoveto
          5 45 rlineto
          hintmask 11010000
          112 57 58 64 10 hhcurveto
          7 16 -18 -52 -85 -42 -77 -70 hvcurveto
          endchar
        </CharString>
        <CharString name="backslash">
          -175 -111 787 hstem
          57 243 vstem
          95 676 rmoveto
          -34 hlineto
          -4 -6 204 -781 rlineto
          34 hlineto
          5 5 rlineto
          endchar
        </CharString>
        <CharString name="bar">
          -183 -264 1058 hstem
          79 169 vstem
          248 790 rmoveto
          -3 4 -37 -3 -62 -507 -67 -542 4 -6 35 2 68 548 rlineto
          endchar
        </CharString>
        <CharString name="braceleft">
          -215 -140 34 725 29 -5 -20 hstemhm
          47.5 62.5 -31 41 3 42 -17 40 hintmask 11010010
          269 654 rmoveto
          -79 -42 -46 -110 hvcurveto
          -29 2 -44 -27 vvcurveto
          -82 -31 -35 -70 -10 vhcurveto
          -3 -29 rlineto
          hintmask 11010100
          53 -8 24 -25 -45 vvcurveto
          hintmask 11001010
          -51 -44 -96 -67 vvcurveto
          -59 31 -31 60 18 13 2 4 14 vhcurveto
          5 4 -3 29 rlineto
          -3 -15 -10 -2 -13 hhcurveto
          -39 -20 21 43 hvcurveto
          hintmask 11010100
          61 45 93 56 vvcurveto
          41 -19 31 -36 15 vhcurveto
          3 vlineto
          hintmask 11010010
          53 21 28 40 75 27 -3 45 31 vvcurveto
          89 26 33 53 13 10 -2 -3 15 vhcurveto
          hintmask 10110010
          9 29 -3 5 rlineto
          hintmask 11010010
          3 -13 -12 3 -17 hhcurveto
          endchar
        </CharString>
        <CharString name="braceright">
          -215 -140 35 724 35 hstemhm
          104 40 -16 41 3 41 hintmask 11100000
          24 -140 rmoveto
          78 42 46 109 hvcurveto
          29 -2 45 27 vvcurveto
          82 31 34 70 11 vhcurveto
          hintmask 11010000
          4 28 rlineto
          -54 8 -24 26 44 vvcurveto
          hintmask 11101000
          52 44 96 66 vvcurveto
          60 -31 31 -60 -17 -14 -2 -4 -14 vhcurveto
          -4 -5 2 -29 rlineto
          3 16 10 2 13 hhcurveto
          39 19 -20 -43 hvcurveto
          hintmask 11010000
          -61 -44 -94 -55 vvcurveto
          -42 18 -30 37 -16 vhcurveto
          -1 -3 rlineto
          hintmask 11100000
          -52 -20 -29 -40 -75 -27 3 -46 -30 vvcurveto
          -89 -26 -33 -53 -13 -10 2 3 -15 vhcurveto
          -9 -30 3 -4 rlineto
          -4 13 13 -2 17 hhcurveto
          endchar
        </CharString>
        <CharString name="bracketleft">
          -215 -126 30 16 -21 31 -21 702 35 -4 -20 hstemhm
          219 7.5 hintmask 00000000
          hintmask 00101100
          319 642 rmoveto
          -4 4 rlineto
          hintmask 10010100
          -162 -10 -45 -378 -49 -379 160 -10 6 4 rlineto
          hintmask 01010100
          3 26 rlineto
          hintmask 00110100
          -123 10 85 697 126 10 rlineto
          endchar
        </CharString>
        <CharString name="bracketright">
          -215 -126 30.5 706.5 35 hstem
          -26 259 vstem
          -26 -126 rmoveto
          3 -5 163 10 45 378 48 379 -160 10 -5 -4 -3 -26 123 -10 -85 -696 -126 -11 rlineto
          endchar
        </CharString>
        <CharString name="breve">
          524 38 hstem
          132 28 vstem
          343 655 rmoveto
          -9 hlineto
          -64 -18 -32 -29 -48 hhcurveto
          -48 -25 29 64 -3 hvcurveto
          -8 hlineto
          -20 -21 rlineto
          -71 6 29 -39 67 hhcurveto
          61 40 38 72 23 hvcurveto
          endchar
        </CharString>
        <CharString name="breve.cap">
          543 37 63 -20 hstem
          131 225 vstem
          341 643 rmoveto
          -8 hlineto
          -40 -18 -33 -23 -44 hhcurveto
          -45 -27 23 40 -7 hvcurveto
          -9 hlineto
          -19 -19 rlineto
          -52 10 39 -29 57 hhcurveto
          54 42 29 52 23 hvcurveto
          endchar
        </CharString>
        <CharString name="breveacute">
          523 37 78 -20 hstem
          128 225 vstem
          317 720 rmoveto
          -23 17 rlineto
          -6 hlineto
          -28 -34 -28 -32 -29 -33 19 -17 rcurveline
          7 hlineto
          30 31 30 30 28 32 rrcurveto
          21 -91 rmoveto
          -8 hlineto
          -40 -18 -33 -23 -44 hhcurveto
          -45 -27 23 40 -7 hvcurveto
          -9 hlineto
          -19 -19 rlineto
          -52 10 39 -29 57 hhcurveto
          54 42 29 52 23 hvcurveto
          endchar
        </CharString>
        <CharString name="brevegrave">
          523 37 78 -20 hstem
          128 226 vstem
          252 621 rmoveto
          19 17 -30 33 -27 32 -28 34 rlinecurve
          -7 hlineto
          -23 -17 1 -6 28 -32 30 -30 30 -31 rlinecurve
          94 2 rmoveto
          -9 hlineto
          -40 -17 -33 -23 -45 hhcurveto
          -45 -27 23 40 -7 hvcurveto
          -8 hlineto
          -20 -19 rlineto
          -52 10 40 -29 57 hhcurveto
          54 42 29 52 23 hvcurveto
          endchar
        </CharString>
        <CharString name="brevehookabove">
          523 38 187 32 hstem
          262 33 vstem
          242 780 rmoveto
          -23 -27 -13 -22 -24 hvcurveto
          12 -20 rlineto
          15 18 21 8 17 hhcurveto
          16 10 -7 -13 -16 -18 -23 -32 -22 hvcurveto
          26 -48 25 13 -17 31 rlineto
          33 26 16 22 22 vvcurveto
          26 -22 21 -31 vhcurveto
          96 -157 rmoveto
          -8 hlineto
          -40 -18 -33 -22 -44 hhcurveto
          -45 -27 22 40 -7 hvcurveto
          -9 hlineto
          -19 -18 rlineto
          -53 10 39 -29 57 hhcurveto
          54 42 29 53 23 hvcurveto
          endchar
        </CharString>
        <CharString name="brevetilde">
          523 37 147 37.5 -35.5 -20 hstemhm
          116 280 hintmask 10110000
          396 735 rmoveto
          -16 17 rlineto
          -5 hlineto
          -24 -25 -14 -19 -12 hhcurveto
          -24 -85 32 5 -38 hvcurveto
          -7 -3 rlineto
          hintmask 11010000
          -54 -56 rlineto
          -6 vlineto
          16 -17 rlineto
          6 hlineto
          24 24 14 19 12 hhcurveto
          24 86 -33 -4 38 hvcurveto
          6 2 rlineto
          hintmask 10110000
          54 57 rlineto
          -65 -107 rmoveto
          -9 hlineto
          -40 -17 -32 -22 -44 hhcurveto
          -45 -27 22 40 -7 hvcurveto
          -8 hlineto
          -19 -19 rlineto
          -51 10 38 -29 57 hhcurveto
          53 41 29 51 24 hvcurveto
          endchar
        </CharString>
        <CharString name="brokenbar">
          -183 -264 1058 hstem
          79 169 vstem
          248 790 rmoveto
          -3 4 -37 -3 -52 -421 5 -4 35 4 rlineto
          -26 -217 rmoveto
          -5 7 -35 -5 -51 -413 4 -6 35 2 rlineto
          endchar
        </CharString>
        <CharString name="bullet">
          -258 202 69 hstem
          90 68 vstem
          125 271 rmoveto
          -21 -14 -14 -21 -21 13 -13 21 20 14 14 21 21 -13 13 -20 hvcurveto
          endchar
        </CharString>
        <CharString name="bulletoperator">
          -257 202 69 hstem
          116 68 vstem
          151 271 rmoveto
          -21 -14 -14 -21 -21 13 -13 21 20 14 14 21 21 -13 13 -20 hvcurveto
          endchar
        </CharString>
        <CharString name="c">
          -53 -5 40 424 39 hstem
          52 48 vstem
          304 498 rmoveto
          -160 -92 -110 -189 -129 65 -75 118 50 48 15 29 46 hvcurveto
          9 42 -6 3 rlineto
          -31 -43 -53 -18 -48 hhcurveto
          -90 -48 61 108 163 71 92 126 47 42 -16 -28 30 hvcurveto
          7 2 15 42 rlineto
          25 -35 -49 14 -50 hhcurveto
          endchar
        </CharString>
        <CharString name="c.sups">
          -264 340 34 238 33 -20 20 hstemhm
          68 39 hintmask 11010000
          269 631 rmoveto
          -43 14 rlineto
          -110 -48 -89 -111 -78 27 -21 47 -6 hvcurveto
          7 hlineto
          40 7 29 19 30 49 -15 18 rcurveline
          -6 hlineto
          -45 -26 -26 -14 -23 hhcurveto
          -29 -16 21 55 101 37 61 66 12 14 -6 -12 16 hvcurveto
          10 2 rlineto
          hintmask 10110000
          11 29 rlineto
          endchar
        </CharString>
        <CharString name="cacute">
          -53 -5 40 424 39 hstem
          52 48 vstem
          364 720 rmoveto
          -6 1 -56 -55 -49 -44 -50 -42 rlinecurve
          16 -22 7 -1 53 43 50 41 53 48 rlinecurve
          2 6 rlineto
          -80 -197 rmoveto
          -159 -93 -110 -189 -129 66 -75 118 50 47 15 29 47 hvcurveto
          9 42 -7 3 rlineto
          -31 -42 -53 -18 -48 hhcurveto
          -90 -49 61 108 163 71 92 126 48 42 -16 -28 29 hvcurveto
          8 2 15 42 rlineto
          25 -35 -50 14 -50 hhcurveto
          endchar
        </CharString>
        <CharString name="caron">
          651 -20 hstem
          126 242 vstem
          355 672 rmoveto
          -7 hlineto
          -41 -38 -36 -35 -35 -38 -26 38 -27 35 -32 38 rrcurveto
          -7 hlineto
          -18 -21 33 -39 32 -43 32 -48 rlinecurve
          21 hlineto
          45 50 39 42 40 38 rrcurveto
          endchar
        </CharString>
        <CharString name="caron.alt">
          505 166 hstem
          205 68 vstem
          273 666 rmoveto
          -4 5 -36 -3 -28 -159 4 -4 28 3 rlineto
          endchar
        </CharString>
        <CharString name="caron.cap">
          626 23 0 -20 hstemhm
          127 233 hintmask 01100000
          351 649 rmoveto
          -7 hlineto
          -37 -22 -35 -22 -35 -24 -29 24 -29 22 -32 22 rrcurveto
          -6 hlineto
          hintmask 10100000
          -14 -23 34 -26 33 -28 32 -29 rlinecurve
          19 hlineto
          36 29 37 28 42 26 rrcurveto
          endchar
        </CharString>
        <CharString name="ccaron">
          -53 -5 40 424 39 213 -20 hstem
          52 48 vstem
          398 711 rmoveto
          -7 hlineto
          -41 -38 -36 -35 -35 -38 -26 38 -27 35 -32 38 rrcurveto
          -7 hlineto
          -18 -21 33 -39 32 -43 32 -48 rlinecurve
          21 hlineto
          45 50 39 42 40 38 rrcurveto
          -107 -192 rmoveto
          -159 -93 -110 -189 -129 66 -75 118 50 47 15 29 47 hvcurveto
          9 42 -7 3 rlineto
          -31 -42 -53 -18 -48 hhcurveto
          -90 -49 61 108 163 71 92 126 48 42 -16 -28 29 hvcurveto
          8 2 15 42 rlineto
          25 -35 -50 14 -50 hhcurveto
          endchar
        </CharString>
        <CharString name="ccedilla">
          -53 -187 30 152 40 -39 39 424 39 hstemhm
          52 48 170 36 hintmask 11011100
          304 498 rmoveto
          -159 -93 -110 -189 -123 60 -74 109 -7 hvcurveto
          -19 -64 46 -29 rlineto
          13 -8 9 -7 -14 vvcurveto
          -19 -14 -11 -22 -24 -14 13 18 -14 vhcurveto
          -5 -1 -7 -28 rlineto
          -16 13 21 -16 32 hhcurveto
          39 31 23 36 hvcurveto
          hintmask 10111100
          22 -11 16 -25 15 vhcurveto
          -32 20 16 51 43 3 42 14 41 26 rlinecurve
          hintmask 11011100
          9 42 -7 3 rlineto
          -31 -42 -53 -18 -48 hhcurveto
          -90 -49 61 108 163 71 92 126 48 42 -16 -28 29 hvcurveto
          8 2 15 42 rlineto
          25 -35 -50 14 -50 hhcurveto
          endchar
        </CharString>
        <CharString name="ccircumflex">
          -53 -5 40 424 39 168 40 0 -20 hstemhm
          52 48 hintmask 11011000
          181 555 rmoveto
          7 hlineto
          hintmask 11101000
          42 37 35 36 36 38 26 -38 27 -36 32 -37 rrcurveto
          7 hlineto
          17 21 -32 39 -31 42 -32 49 rlinecurve
          -20 hlineto
          -46 -50 -40 -42 -40 -38 rrcurveto
          135 -78 rmoveto
          -159 -93 -110 -189 -129 66 -75 118 50 47 15 29 47 hvcurveto
          9 42 -7 3 rlineto
          -31 -42 -53 -18 -48 hhcurveto
          -90 -49 61 108 163 71 92 126 48 42 -16 -28 29 hvcurveto
          8 2 15 42 rlineto
          25 -35 -50 14 -50 hhcurveto
          endchar
        </CharString>
        <CharString name="cdotaccent">
          -53 -5 40 424 39 122 65 hstem
          52 48 160 64 vstem
          293 685 rmoveto
          -20 -13 -13 -20 -20 12 -12 20 20 12 13 20 20 -11 12 -20 hvcurveto
          11 -187 rmoveto
          -159 -93 -110 -189 -129 66 -75 118 50 47 15 29 47 hvcurveto
          9 42 -7 3 rlineto
          -31 -42 -53 -18 -48 hhcurveto
          -90 -49 61 108 163 71 92 126 48 42 -16 -28 29 hvcurveto
          8 2 15 42 rlineto
          25 -35 -50 14 -50 hhcurveto
          endchar
        </CharString>
        <CharString name="cedilla">
          -185 30 hstem
          181 36 vstem
          149 -53 rmoveto
          21 68 rlineto
          -33 hlineto
          -24 -82 46 -29 rlineto
          13 -8 9 -7 -14 vvcurveto
          -19 -14 -11 -22 -24 -14 13 18 -14 vhcurveto
          -5 -1 -7 -28 rlineto
          -16 13 21 -16 32 hhcurveto
          39 31 23 36 22 -11 16 -25 15 hvcurveto
          endchar
        </CharString>
        <CharString name="cent">
          -116 469 35 141 -20 26 -20 hstemhm
          49 39 hintmask 10110000
          354 476 rmoveto
          -6 8 -64 20 -21 -1 rlineto
          hintmask 11010000
          24 142 -6 6 rlineto
          hintmask 10110000
          -27 hlineto
          -26 -153 rlineto
          -124 -28 -55 -122 -151 vvcurveto
          -121 41 -27 61 -10 vhcurveto
          -25 -150 4 -6 rlineto
          27 hlineto
          27 161 49 13 40 30 39 66 rlinecurve
          -14 19 -8 1 -33 -59 -36 -26 -31 -9 rlinecurve
          67 390 rlineto
          5 hlineto
          20 23 -8 -20 28 hvcurveto
          9 3 rlineto
          -185 -369 rmoveto
          -45 3 -24 36 88 vvcurveto
          143 49 96 85 23 vhcurveto
          endchar
        </CharString>
        <CharString name="circle1">
          -54 9 -21 476 -20 hstem
          -14 475 vstem
          223 464 rmoveto
          -131 -106 -107 -131 -131 106 -107 131 131 107 107 131 131 -107 107 -131 hvcurveto
          endchar
        </CharString>
        <CharString name="circle2">
          134 649 -20 hstem
          -15 664 vstem
          317 649 rmoveto
          -183 -149 -149 -183 -183 149 -148 183 183 149 148 183 183 -149 149 -183 hvcurveto
          endchar
        </CharString>
        <CharString name="circumflex">
          516 151 hstem
          112 241 vstem
          124 516 rmoveto
          7 hlineto
          42 37 35 36 36 38 26 -38 27 -36 32 -37 rrcurveto
          7 hlineto
          17 21 -32 39 -31 42 -32 49 rlinecurve
          -20 hlineto
          -46 -50 -40 -42 -40 -38 rrcurveto
          endchar
        </CharString>
        <CharString name="circumflex.cap">
          551 106 hstem
          120 234 vstem
          129 551 rmoveto
          7 hlineto
          37 22 35 22 35 24 29 -24 29 -22 32 -22 rrcurveto
          7 hlineto
          14 23 -34 26 -34 28 -31 29 rlinecurve
          -19 hlineto
          -36 -29 -38 -28 -42 -26 rrcurveto
          endchar
        </CharString>
        <CharString name="circumflexacute">
          600 38 0 -20 hstemhm
          115 271 hintmask 01100000
          379 727 rmoveto
          -21 9 -43 -46 -24 -52 17 -10 42 44 36 46 rlineto
          -155 -80 rmoveto
          hintmask 10100000
          -36 -29 -38 -28 -42 -26 9 -23 rcurveline
          7 hlineto
          37 22 35 22 35 24 29 -24 29 -22 32 -22 rrcurveto
          6 hlineto
          14 23 -34 26 -33 28 -31 29 rlinecurve
          endchar
        </CharString>
        <CharString name="circumflexgrave">
          600 38 0 -20 hstemhm
          119 237 hintmask 01100000
          332 689 rmoveto
          -43 47 -21 -10 -7 -8 36 -47 43 -43 16 10 rlineto
          -122 hmoveto
          hintmask 10100000
          -36 -29 -38 -28 -41 -26 8 -23 rcurveline
          7 hlineto
          37 22 35 22 35 24 29 -24 29 -22 32 -22 rrcurveto
          7 hlineto
          14 23 -34 26 -34 28 -31 29 rlinecurve
          endchar
        </CharString>
        <CharString name="circumflexhookabove">
          600 38 0 -20 120 31 hstemhm
          343 32 hintmask 01110000
          324 769 rmoveto
          -22 -26 -13 -21 -23 hvcurveto
          12 -18 rlineto
          14 18 20 7 15 hhcurveto
          15 10 -7 -12 -15 -17 -22 -31 -21 hvcurveto
          25 -45 24 12 -16 29 rlineto
          31 25 16 21 21 vvcurveto
          25 -21 20 -30 vhcurveto
          -92 -131 rmoveto
          hintmask 10110000
          -36 -28 -38 -28 -41 -26 8 -24 rcurveline
          7 hlineto
          37 23 35 22 35 23 29 -23 29 -22 32 -23 rrcurveto
          7 hlineto
          14 24 -34 26 -34 28 -31 28 rlinecurve
          endchar
        </CharString>
        <CharString name="circumflextilde">
          602 38 0 -20 87 37.5 -35.5 -20 hstemhm
          112 286 hintmask 01011000
          398 735 rmoveto
          -15 17 rlineto
          -6 hlineto
          -24 -24 -14 -19 -12 hhcurveto
          -24 -86 32 5 -38 hvcurveto
          -7 -3 rlineto
          hintmask 01101000
          -53 -56 rlineto
          -6 vlineto
          16 -17 rlineto
          5 hlineto
          24 25 13 19 13 hhcurveto
          24 86 -33 -4 37 hvcurveto
          7 2 rlineto
          hintmask 01011000
          53 57 rlineto
          -170 -89 rmoveto
          hintmask 10011000
          -36 -28 -38 -29 -42 -26 9 -23 rcurveline
          7 hlineto
          37 22 35 23 35 23 29 -23 29 -23 32 -22 rrcurveto
          6 hlineto
          14 23 -34 26 -33 29 -31 28 rlinecurve
          endchar
        </CharString>
        <CharString name="colon">
          -271 -3 65 208 65 hstemhm
          58 64 -31 64 hintmask 11010000
          124 335 rmoveto
          -20 -13 -13 -20 -19 12 -13 20 20 12 13 21 19 -11 12 -20 hvcurveto
          hintmask 11100000
          -33 -273 rmoveto
          -20 -13 -14 -19 -20 12 -12 19 20 13 13 20 19 -12 13 -19 hvcurveto
          endchar
        </CharString>
        <CharString name="comma">
          -270 -106 169 hstem
          88 42 vstem
          91 63 rmoveto
          -13 -4 -11 -7 -9 -7 rrcurveto
          -6 vlineto
          19 -11 11 -14 -16 vvcurveto
          -26 -19 -29 -35 -27 vhcurveto
          -1 -5 18 -17 rlineto
          53 39 26 38 35 vvcurveto
          23 -14 20 -25 14 vhcurveto
          endchar
        </CharString>
        <CharString name="commaaccent">
          -500 -228 163 hstem
          152 40 vstem
          154 -65 rmoveto
          -12 -5 -10 -6 -9 -7 rrcurveto
          -5 vlineto
          18 -11 11 -13 -15 vvcurveto
          -26 -18 -28 -34 -26 vhcurveto
          -1 -5 17 -16 rlineto
          51 37 25 37 34 vvcurveto
          22 -14 19 -24 14 vhcurveto
          endchar
        </CharString>
        <CharString name="copyright">
          189 -12 26 111 33 274 33 107 26 hstem
          59 26 123 38 373 27 vstem
          352 598 rmoveto
          -176 -117 -122 -183 -183 117 -122 176 176 118 122 183 183 -118 122 -176 hvcurveto
          -26 vmoveto
          160 107 -112 -167 -167 -107 -112 -160 -161 -106 112 167 167 106 112 161 hvcurveto
          12 -107 rmoveto
          -101 -55 -61 -109 -109 52 -61 98 32 35 11 17 29 hvcurveto
          4 32 -5 1 rlineto
          -18 -28 -34 -10 -31 hhcurveto
          -74 -40 49 90 89 41 46 76 29 32 -8 -17 23 hvcurveto
          5 1 8 31 rlineto
          16 -28 -34 10 -34 hhcurveto
          endchar
        </CharString>
        <CharString name="currency">
          -64 226 33 208 32 hstem
          97 33 210 32 vstem
          426 515 rmoveto
          -19 22 rlineto
          -7 hlineto
          -72 -66 rlineto
          17 -20 -27 11 -30 hhcurveto
          -30 -30 -11 -18 -24 hvcurveto
          -57 67 rlineto
          -7 hlineto
          -23 -22 -2 -7 59 -64 rlineto
          -25 -26 -15 -32 -36 vvcurveto
          -25 7 -26 13 -18 vhcurveto
          -73 -64 -2 -6 19 -22 7 -1 72 67 rlineto
          -18 20 28 -11 30 hhcurveto
          30 31 11 19 24 hvcurveto
          56 -66 6 -1 25 22 1 7 -59 64 rlineto
          25 26 15 32 36 vvcurveto
          25 -8 25 -12 19 vhcurveto
          73 64 rlineto
          -178 -42 rmoveto
          54 39 -42 -52 -63 -56 -51 -62 -54 -38 41 52 63 56 52 61 hvcurveto
          endchar
        </CharString>
        <CharString name="d">
          46 -4 38 -13 -21 458 40 hstemhm
          453 48 hintmask 10110000
          132 494 rmoveto
          -42 -344 rlineto
          hintmask 01110000
          -20 -150 rlineto
          hintmask 10110000
          -2 40 94 -2 27 hhcurveto
          173 97 117 189 124 -73 72 -126 hvcurveto
          -62 -464 rmoveto
          -19 -69 2 3 -32 hvcurveto
          13 115 40 300 rlineto
          2 31 77 2 16 hhcurveto
          102 54 -57 -107 -165 -79 -95 -134 hvcurveto
          endchar
        </CharString>
        <CharString name="d.sups">
          -196 340 40 232 31 -4 -20 hstemhm
          66 38 173 45 hintmask 01011000
          322 809 rmoveto
          -43 -5 -4 -62 rlineto
          hintmask 00111000
          -14 -103 rlineto
          hintmask 11011000
          -37 4 rlineto
          -4 hlineto
          -101 -13 -53 -93 -103 vvcurveto
          -51 13 -27 36 -16 vhcurveto
          9 hlineto
          41 37 40 54 33 61 rrcurveto
          4 hlineto
          -20 -152 43 4 5 70 rlineto
          -143 -34 rmoveto
          -8 -15 17 51 87 41 77 71 hvcurveto
          41 -5 -7 -54 rlineto
          -110 -57 -57 -63 -9 hhcurveto
          endchar
        </CharString>
        <CharString name="dagger">
          -29 -73 -21 456 36 188 -20 23 -20 hstemhm
          229 36.5 hintmask 11011000
          441 362 rmoveto
          8 32 -4 4 rlineto
          -170 hlineto
          hintmask 11101000
          23 188 -2 3 rlineto
          hintmask 11011000
          -35 -3 -23 -188 rlineto
          -170 hlineto
          -7 -32 3 -4 rlineto
          170 hlineto
          -10 -78 -46 -373 4 -5 33 1 46 379 9 76 rlineto
          endchar
        </CharString>
        <CharString name="daggerdbl">
          -29 -73 -21 186 37 235 37 185 -20 23 -20 hstemhm
          229 37 hintmask 11101100
          261 286 rmoveto
          10 78 rlineto
          171 hlineto
          7 33 -4 4 rlineto
          -170 hlineto
          hintmask 11110100
          23 185 -2 3 rlineto
          hintmask 11101100
          -35 -3 -23 -185 rlineto
          -170 hlineto
          -7 -32 4 -5 rlineto
          169 hlineto
          -10 -80 -19 -155 rlineto
          -170 hlineto
          -8 -32 5 -5 rlineto
          168 hlineto
          -22 -181 4 -5 32 1 23 185 rlineto
          172 hlineto
          7 33 -5 4 rlineto
          -169 hlineto
          endchar
        </CharString>
        <CharString name="dcaron">
          46 -4 38 -13 -21 458 40 213 -20 hstemhm
          453 48 hintmask 10111000
          305 560 rmoveto
          45 50 39 42 40 38 -13 21 rcurveline
          -7 hlineto
          -41 -38 -36 -35 -35 -38 -26 38 -27 35 -32 38 rrcurveto
          -7 hlineto
          -18 -21 33 -39 32 -43 32 -48 rlinecurve
          -152 -66 rmoveto
          -42 -344 rlineto
          hintmask 01111000
          -20 -150 rlineto
          hintmask 10111000
          -2 40 94 -2 27 hhcurveto
          173 97 117 189 124 -73 72 -126 hvcurveto
          -62 -464 rmoveto
          -19 -69 2 3 -32 hvcurveto
          13 115 40 300 rlineto
          2 31 77 2 16 hhcurveto
          102 54 -57 -107 -165 -79 -95 -134 hvcurveto
          endchar
        </CharString>
        <CharString name="dcroat">
          46 -4 38 -13 -21 458 40 125 36 hstemhm
          453 48 hintmask 10111000
          167 623 rmoveto
          285 hlineto
          3 32 -4 4 rlineto
          -285 hlineto
          -3 -31 rlineto
          -31 -134 rmoveto
          -42 -344 rlineto
          hintmask 01111000
          -20 -150 rlineto
          hintmask 10111000
          -2 40 94 -2 27 hhcurveto
          173 97 117 189 124 -73 72 -126 hvcurveto
          -62 -464 rmoveto
          -19 -69 2 3 -32 hvcurveto
          13 115 40 300 rlineto
          2 31 77 2 16 hhcurveto
          102 54 -57 -107 -165 -79 -95 -134 hvcurveto
          endchar
        </CharString>
        <CharString name="degree">
          -206 401 29 186 29 hstem
          58 30 190 30 vstem
          199 645 rmoveto
          -75 -66 -61 -74 -62 46 -47 65 73 66 60 74 62 -46 48 -63 hvcurveto
          -4 -29 rmoveto
          47 36 -38 -47 -54 -52 -47 -54 -48 -36 38 46 54 52 48 55 hvcurveto
          endchar
        </CharString>
        <CharString name="dieresis">
          570 63 hstem
          132 62 93 62 vstem
          164 633 rmoveto
          -20 -12 -13 -19 -20 12 -11 19 19 12 12 20 18 -11 13 -19 hvcurveto
          155 -1 rmoveto
          -20 -12 -12 -20 -19 11 -12 20 18 13 13 20 18 -12 12 -18 hvcurveto
          endchar
        </CharString>
        <CharString name="dieresis.i">
          569 63 hstem
          153 62 51 62 vstem
          185 632 rmoveto
          -20 -12 -12 -20 -19 11 -12 19 19 13 13 20 18 -12 12 -18 hvcurveto
          113 hmoveto
          -19 -13 -12 -20 -19 12 -12 19 19 12 13 20 18 -11 12 -19 hvcurveto
          endchar
        </CharString>
        <CharString name="dieresisacute">
          550 61 hstem
          133 60 88 60 vstem
          346 759 rmoveto
          -6 4 -73 -28 -62 -20 -63 -17 rlinecurve
          6 -27 6 -4 66 17 63 17 68 21 rlinecurve
          4 7 rlineto
          -191 -118 rmoveto
          -19 -12 -12 -19 -18 11 -12 18 19 12 13 18 18 -11 12 -18 hvcurveto
          148 hmoveto
          -19 -12 -12 -19 -18 11 -12 18 19 12 13 18 18 -11 12 -18 hvcurveto
          endchar
        </CharString>
        <CharString name="dieresiscaron">
          550 61 hstem
          133 60 88 60 vstem
          357 745 rmoveto
          -7 hlineto
          -38 -22 -35 -22 -34 -24 -30 24 -29 22 -31 22 rrcurveto
          -7 hlineto
          -14 -23 34 -26 34 -28 31 -29 rlinecurve
          19 hlineto
          36 29 38 28 41 26 rrcurveto
          -201 -111 rmoveto
          -19 -12 -12 -19 -18 11 -12 18 19 12 13 18 18 -11 12 -18 hvcurveto
          148 hmoveto
          -19 -12 -12 -19 -18 12 -12 18 18 12 13 18 18 -11 12 -18 hvcurveto
          endchar
        </CharString>
        <CharString name="dieresisgrave">
          550 61 hstem
          130 61 87 61 vstem
          166 759 rmoveto
          -13 -30 4 -7 65 -21 61 -17 63 -17 rlinecurve
          7 4 9 27 -60 17 -61 20 -69 28 rlinecurve
          -7 -152 rmoveto
          -21 -14 -14 -21 -16 9 -10 17 20 15 14 21 16 -10 10 -16 hvcurveto
          148 hmoveto
          -21 -14 -14 -21 -16 9 -10 17 21 14 14 21 16 -10 10 -16 hvcurveto
          endchar
        </CharString>
        <CharString name="dieresismacron">
          550 61 71 31 -31 36 hstemhm
          146 60 88 60 hintmask 00000000
          hintmask 01011000
          388 713 rmoveto
          -4 5 rlineto
          hintmask 10111000
          -248 hlineto
          -3 -31 5 -5 rlineto
          247 hlineto
          -208 -71 rmoveto
          -19 -12 -12 -19 -18 12 -12 18 18 12 13 18 18 -11 12 -18 hvcurveto
          148 hmoveto
          -19 -12 -12 -19 -18 12 -12 18 19 11 13 18 18 -11 12 -18 hvcurveto
          endchar
        </CharString>
        <CharString name="divide">
          -22 59 63 127 37 130 63 hstemhm
          191 62 -19 62 hintmask 00000000
          hintmask 01101000
          266 479 rmoveto
          -19 -13 -13 -19 -19 12 -12 19 19 12 12 20 19 -11 12 -19 hvcurveto
          182 -197 rmoveto
          -4 4 rlineto
          -402 hlineto
          -3 -32 4 -5 rlineto
          402 hlineto
          hintmask 11010000
          -222 -127 rmoveto
          -20 -12 -13 -19 -19 12 -12 19 19 12 12 20 19 -11 12 -19 hvcurveto
          endchar
        </CharString>
        <CharString name="divisionslash">
          -211 -111 787 hstem
          8 297 vstem
          305 670 rmoveto
          -4 6 rlineto
          -34 hlineto
          -259 -782 4 -5 rlineto
          34 hlineto
          endchar
        </CharString>
        <CharString name="dollar">
          -82 -4 35 431 35 0 -20 151 7 hstemhm
          83 41 174 41 hintmask 10111100
          281 628 rmoveto
          -7 7 rlineto
          -27 hlineto
          -18 -139 rlineto
          -89 -8 -57 -61 -68 vvcurveto
          -68 56 -30 55 -27 vhcurveto
          -27 -203 -39 1 -47 15 -32 29 rlinecurve
          -7 -2 -8 -43 36 -23 51 -11 41 -1 rlinecurve
          -16 -117 6 -6 rlineto
          26 hlineto
          17 125 rlineto
          89 12 55 63 67 vvcurveto
          68 -54 30 -54 26 vhcurveto
          hintmask 11011100
          27 198 26 -2 28 -9 28 -19 rlinecurve
          9 2 12 40 -34 15 -35 6 -29 2 rlinecurve
          -139 -133 rmoveto
          43 37 45 63 8 vhcurveto
          -24 -181 rlineto
          -42 21 -34 22 42 vvcurveto
          174 -229 rmoveto
          -45 -39 -44 -59 -12 vhcurveto
          25 185 rlineto
          40 -21 33 -22 -41 vvcurveto
          endchar
        </CharString>
        <CharString name="dotaccent">
          581 65 hstem
          209 64 vstem
          242 646 rmoveto
          -20 -13 -13 -20 -20 12 -12 20 20 12 13 20 20 -11 12 -20 hvcurveto
          endchar
        </CharString>
        <CharString name="dotbelowcomb">
          -500 -145 65 hstem
          121 64 vstem
          154 -80 rmoveto
          -21 -12 -13 -20 -19 12 -13 19 20 13 14 20 19 -12 12 -19 hvcurveto
          endchar
        </CharString>
        <CharString name="dotlessi">
          -257 21 -21 494 -20 hstem
          69 108 vstem
          133 154 rmoveto
          44 340 rlineto
          -46 hlineto
          -41 -344 -21 -150 rlineto
          45 hlineto
          endchar
        </CharString>
        <CharString name="dotlessj">
          -226 457 37 -33 -20 hstemhm
          108 43.5 hintmask 10100000
          198 494 rmoveto
          -144 hlineto
          hintmask 01100000
          -8 -33 4 -4 rlineto
          hintmask 10100000
          98 hlineto
          -36 -299 -8 -65 -8 -60 -29 -39 -65 -39 rlinecurve
          -6 vlineto
          17 -27 85 47 34 45 9 77 rlinecurve
          9 73 rlineto
          endchar
        </CharString>
        <CharString name="down">
          -94 75 277 hstem
          65 277 vstem
          203 75 rmoveto
          139 277 rlineto
          -277 hlineto
          endchar
        </CharString>
        <CharString name="e">
          -92 0 38.5 196.5 39 182 38 hstem
          69 333 vstem
          172 456 rmoveto
          104 hlineto
          117 -3 9 36 -3 5 rlineto
          -268 hlineto
          -42 -344 -20 -150 rlineto
          268 hlineto
          10 36 -4 4 -126 -2 -98 1 13 115 11 81 rlineto
          95 hlineto
          87 -1 8 36 -3 5 -83 -1 rlineto
          -99 hlineto
          endchar
        </CharString>
        <CharString name="e.sups">
          -243 340 31 245 30 hstem
          68 39 128 37 vstem
          241 430 rmoveto
          -7 1 rlineto
          -39 -22 -27 -21 -31 hhcurveto
          -32 -15 25 58 hvcurveto
          4 vlineto
          113 38 52 44 51 vvcurveto
          31 -20 19 -36 5 vhcurveto
          -6 hlineto
          -82 -4 -59 -81 -1 -116 rrcurveto
          -64 21 -35 57 -6 vhcurveto
          7 hlineto
          41 6 33 23 28 44 rrcurveto
          -52 203 rmoveto
          22 10 -12 -17 -38 -45 -34 -81 -30 hvcurveto
          79 7 38 52 49 hhcurveto
          endchar
        </CharString>
        <CharString name="eacute">
          -92 0 38.5 196.5 39 182 38 hstem
          69 333 vstem
          210 558 rmoveto
          7 -1 53 43 50 41 53 48 rlinecurve
          2 6 -20 25 -6 1 -56 -55 -49 -44 -50 -42 rlinecurve
          -22 -124 rmoveto
          104 hlineto
          117 -3 9 36 -3 5 rlineto
          -268 hlineto
          -42 -344 -20 -150 rlineto
          269 hlineto
          9 36 -4 4 -126 -2 -98 1 13 115 11 81 rlineto
          94 hlineto
          87 -1 9 36 -3 5 -83 -1 rlineto
          -99 hlineto
          endchar
        </CharString>
        <CharString name="ebreve">
          -92 0 38.5 196.5 39 182 38 69 38 hstem
          168 28 vstem
          270 563 rmoveto
          61 40 38 72 23 hvcurveto
          -15 21 rlineto
          -9 hlineto
          -64 -18 -32 -29 -48 hhcurveto
          -48 -25 29 64 -3 hvcurveto
          -8 hlineto
          -20 -21 rlineto
          -71 6 29 -39 67 hhcurveto
          -98 -107 rmoveto
          104 hlineto
          117 -3 9 36 -3 5 rlineto
          -268 hlineto
          -42 -344 -20 -150 rlineto
          269 hlineto
          9 36 -4 4 -126 -2 -98 1 13 115 11 81 rlineto
          94 hlineto
          87 -1 9 36 -3 5 -83 -1 rlineto
          -99 hlineto
          endchar
        </CharString>
</ttFont>
